<?xml version="1.0" encoding="utf-8"?>
<!-- Generator: Adobe Illustrator 25.2.3, SVG Export Plug-In . SVG Version: 6.00 Build 0)  -->
<svg version="1.1" id="Capa_1" xmlns="http://www.w3.org/2000/svg" xmlns:xlink="http://www.w3.org/1999/xlink" x="0px" y="0px"
	 viewBox="0 0 241 76" style="enable-background:new 0 0 241 76;" xml:space="preserve">
<style type="text/css">
	.st0{fill:#1D1D1B;}
	.st1{fill:#0072A0;}
	.st2{fill:#9C9B9B;}
	.st3{fill:#848483;}
</style>
<g>
	<path class="st0" d="M33.9,53.1L33.9,53.1c-0.1,0-1.3-0.3-1.7-1.2c-0.2-0.6,0-1.2,0.5-1.9v-0.1c0-1.1,0.1-2.6,0.1-3.7
		c-0.7,1.2-1.8,3.2-2.5,4.6L30.2,51l-2.7,0l0.2-0.5c1.2-2.7,3.1-6.8,3.1-7c0,0,0-0.1,0-0.1c-0.1,0-0.2,0.1-0.5,0.3
		c-0.1,0.1-3.1,2.6-5.7,2.6c-1.4,0-2.5-0.8-3-2.2c-2.1-5.1-1.2-10.2,0.1-12c0.5-0.7,1.1-1.1,1.8-1.1c0.9,0,1.7,0.5,2.2,0.9
		c0.1,0.1,0.2,0.1,0.2,0.1c0.4,0.2,1.4,0.9,2.5,1.6c1.3,0.8,2.6,1.7,2.9,1.8c0.2,0.1,0.7,0.3,1.1,0.3c0.2,0,0.3,0,0.3-0.1
		c0.1-0.1,0.1-0.2,0.1-0.3l-0.2-2.1c-1.3-0.2-6.2-1.4-5.8-6.4c0.3-1.8,2-4.9,6.4-5.3c3.7-0.3,6.3,1.3,7.3,4.4
		c1.3,0.2,2.8,0.5,2.9,1.2c0,0.6-0.8,1.1-2.8,1.6c-0.3,0.7-1.4,3.2-4.4,4.2l0.4,1.5c0,0,0.1,0.1,0.1,0.1c0,0,0.2,0,0.5-0.3
		c0.1,0,0.1-0.1,0.2-0.2c0.8-0.7,3.2-3,5.4-4.3c0.9-0.5,1.8-0.8,2.6-0.8c1.6,0,2.7,0.9,3.1,2.5c1.1,3,1,9.6-0.7,11.8
		c-0.6,0.7-1.4,1.6-3,1.6c-0.8,0-1.7-0.2-2.7-0.7c-0.4-0.2-1.4-0.8-2.3-1.3c-0.3-0.2-0.6-0.3-0.8-0.5c-0.5-0.3-0.7-0.4-0.8-0.4
		c0,0.1,0.1,0.1,0.2,0.3l6.5,7.7l-2.5,0.8l-4.8-5.5l1.7,4.7c0,0,0.5,1.3-0.1,2.3c-0.4,0.6-1.1,0.9-2,0.9L33.9,53.1z M33.2,44.6h0.1
		l0.1,0.1c0.1,0.1,0.2,0.2,0,5.2v0.3l-0.1,0.1c-0.3,0.4-0.6,0.9-0.5,1.3c0.2,0.5,0.9,0.7,1.1,0.7l3.4,0c0.7,0,1.2-0.2,1.4-0.6
		c0.4-0.6,0.1-1.6,0.1-1.6l-1.9-5c-0.3-0.7-0.4-1-0.3-1.2c0.1-0.1,0.2-0.2,0.4-0.2c0.1,0,0.3,0,0.8,0.6l4.9,5.6l1.1-0.4l-5.9-6.9
		c-0.3-0.4-0.4-0.7-0.3-1c0.1-0.2,0.2-0.3,0.3-0.4c0.1,0,0.2-0.1,0.3-0.1c0.2,0,0.5,0.1,1.3,0.5c0.3,0.1,0.5,0.3,0.8,0.5
		c0.9,0.5,1.9,1.1,2.3,1.3c0.9,0.4,1.7,0.6,2.4,0.6c1.2,0,1.9-0.7,2.4-1.3c1.5-2,1.6-8.5,0.6-11.2l0,0c-0.3-1.3-1.2-2-2.4-2
		c-0.7,0-1.5,0.2-2.3,0.7c-2.2,1.3-4.5,3.5-5.3,4.2c-0.1,0.1-0.2,0.2-0.2,0.2c-0.3,0.3-0.7,0.5-1,0.5c-0.5,0-0.7-0.4-0.8-0.6
		l-0.6-2.2l0.3-0.1c3.3-1,4.3-4,4.3-4.1l0.1-0.2l0.2,0c1.9-0.5,2.4-0.8,2.5-0.9c-0.2-0.2-1.3-0.5-2.4-0.6l-0.1,0l-0.1-0.1
		C40,26.3,40,26.3,40,26.1c-0.9-2.8-3.2-4.3-6.6-4c-3.7,0.3-5.4,2.7-5.7,4.7c-0.4,5,5.2,5.7,5.5,5.7l0.3,0l0.3,2.7
		c0,0.4-0.1,0.6-0.3,0.8c-0.2,0.2-0.5,0.3-0.8,0.3c-0.5,0-1.1-0.2-1.5-0.4c-0.3-0.2-1.6-1-2.9-1.9c-1.1-0.7-2.1-1.3-2.4-1.6
		c-0.1,0-0.2-0.1-0.2-0.2c-0.5-0.3-1.2-0.8-1.8-0.8c-0.5,0-0.9,0.2-1.2,0.7c-1.2,1.7-2,6.5,0,11.4c0.5,1.2,1.3,1.8,2.4,1.8
		c2.3,0,5.2-2.5,5.2-2.5c0.4-0.4,0.8-0.5,1-0.5c0.2,0,0.4,0.1,0.5,0.2c0.2,0.3,0.1,0.7,0.1,0.8c-0.1,0.2-2,4.6-2.9,6.6l1.2,0
		C32.8,44.6,32.9,44.6,33.2,44.6"/>
	<path class="st0" d="M43.3,37.2L43.3,37.2c0,0-2.5,0-3.2,0c-0.8,0-1.4-0.3-1.6-0.7c-0.1-0.3-0.1-0.8,0.6-1.5
		c1.3-1.3,2.2-2.2,4.1-3.5c0.7-0.5,1.4-0.7,2-0.7c0.9,0,1.5,0.6,1.7,1.6c0,0.2,0.1,0.7,0.1,1.1c0,0.1,0.1,0.9-0.3,1.9
		C46.3,36.2,45.4,37.2,43.3,37.2L43.3,37.2z M45.2,31.3c-0.5,0-1.1,0.2-1.6,0.6c-2,1.4-3,2.4-4.1,3.5c-0.4,0.4-0.5,0.7-0.5,0.9
		c0.1,0.2,0.5,0.4,1,0.4c0.7,0,3.1,0,3.2,0c1.4,0,2.4-0.6,2.8-1.6c0.4-0.9,0.3-1.6,0.3-1.6l0,0v0c0-0.3-0.1-0.8-0.1-1
		C46.2,31.6,45.8,31.3,45.2,31.3"/>
	<path class="st0" d="M23.8,38.5c-0.1,0-0.7,0-1.1-0.5c-0.4-0.4-0.5-0.9-0.5-1.6c0-1.9,0.9-2.6,1.7-2.6c0.2,0,0.5,0.1,0.7,0.2
		c0,0,3.9,1.7,4.8,2.1c0.7,0.3,1.3,0.9,1.2,1.5c-0.1,0.6-0.8,0.9-2.1,0.9c-0.9,0-1.8,0-2.4,0C24.6,38.5,23.8,38.5,23.8,38.5
		L23.8,38.5z M23.8,34.4c-0.6,0-1.1,0.8-1.1,2c0,0.6,0.1,1,0.4,1.2c0.3,0.3,0.6,0.3,0.7,0.3v0.3l0-0.3c0,0,1.8,0,4.6,0
		c1.1,0,1.5-0.2,1.6-0.4c0-0.2-0.3-0.6-0.9-0.9c-0.9-0.4-4.8-2.1-4.8-2.1C24.1,34.4,24,34.4,23.8,34.4"/>
	<path class="st0" d="M25.4,44c-1.3,0-2.2-0.5-2.5-1.4c-0.2-0.6-0.2-1.1,0.1-1.6c0.6-1.1,2.1-1.6,2.5-1.7c0.5-0.1,1.8-0.3,3-0.3
		c2.6,0,2.9,0.6,2.9,0.8c0.1,0.4,0,0.8-0.5,1.2c-0.1,0.1-2.3,2.3-4.6,2.8C26.4,44,26,44,25.4,44 M28.6,39.6c-1.1,0-2.4,0.1-2.8,0.3
		c-0.8,0.2-1.8,0.7-2.1,1.4c-0.2,0.4-0.2,0.8-0.1,1.2c0.3,0.8,1.2,1,2,1c0.4,0,0.8-0.1,0.8-0.1c2.1-0.5,4.3-2.7,4.3-2.7
		c0.3-0.3,0.5-0.5,0.4-0.6C30.9,39.9,30.3,39.6,28.6,39.6"/>
	<path class="st0" d="M44,42.7c-0.3,0-0.7-0.1-1-0.2c0,0-2.3-1.1-3.7-1.8c-0.8-0.4-1.2-0.9-1.1-1.4c0.1-0.4,0.5-0.8,1.9-1
		c2.9-0.3,4.6-0.4,4.8-0.4c0.1,0,0.2,0,0.4,0c0.6,0,1,0.2,1.2,0.5c0.3,0.4,0.3,0.9,0,1.7C46.6,40.2,46,42.7,44,42.7 M45.4,38.5
		c-0.2,0-0.3,0-0.3,0l0,0c0,0-1.8,0.1-4.8,0.4c-0.9,0.1-1.3,0.3-1.4,0.5c0,0.2,0.2,0.5,0.8,0.8c1.4,0.7,3.7,1.8,3.7,1.8
		c0.3,0.1,0.5,0.2,0.8,0.2c1.5,0,2-2.2,2-2.2c0.2-0.6,0.2-1,0-1.2C46,38.5,45.6,38.5,45.4,38.5"/>
	<path class="st0" d="M33.7,28.1c-0.9,0-1.6-0.7-1.6-1.6c0-0.9,0.7-1.6,1.6-1.6c0.9,0,1.6,0.7,1.6,1.6
		C35.3,27.4,34.6,28.1,33.7,28.1 M33.7,25.5c-0.6,0-1.1,0.5-1.1,1c0,0.6,0.5,1,1.1,1c0.6,0,1.1-0.5,1.1-1
		C34.8,25.9,34.3,25.5,33.7,25.5"/>
	<path class="st0" d="M34.7,41.4c-1.2,0-2.1-0.9-2.1-2.1c0-1.1,0.9-2.1,2.1-2.1c1.2,0,2.1,0.9,2.1,2.1
		C36.8,40.5,35.8,41.4,34.7,41.4 M34.7,37.9c-0.8,0-1.5,0.7-1.5,1.5c0,0.8,0.7,1.5,1.5,1.5c0.8,0,1.5-0.7,1.5-1.5
		C36.2,38.5,35.5,37.9,34.7,37.9"/>
	<path class="st0" d="M34,31.3c-2.8,0-5.1-1.8-5.1-4.1c0-2.3,2.3-4.1,5.1-4.1c2.8,0,5.1,1.8,5.1,4.1C39.1,29.5,36.8,31.3,34,31.3
		 M34,23.7c-2.5,0-4.5,1.6-4.5,3.5c0,2,2,3.5,4.5,3.5c2.5,0,4.5-1.6,4.5-3.5C38.5,25.2,36.5,23.7,34,23.7"/>
	<path class="st0" d="M34.7,61.2c-13.5,0-24.4-10.7-24.4-23.9c0-13.2,11-23.9,24.4-23.9c13.5,0,24.4,10.7,24.4,23.9
		C59.1,50.5,48.1,61.2,34.7,61.2 M34.7,15.1c-12.5,0-22.7,10-22.7,22.2c0,12.2,10.2,22.2,22.7,22.2c12.5,0,22.7-10,22.7-22.2
		C57.3,25.1,47.2,15.1,34.7,15.1"/>
	<path class="st0" d="M34.7,57.5C23.3,57.5,14,48.5,14,37.3c0-11.1,9.3-20.2,20.6-20.2c11.4,0,20.6,9.1,20.6,20.2
		C55.3,48.5,46,57.5,34.7,57.5 M34.7,17.8c-11,0-20,8.8-20,19.6c0,10.8,9,19.6,20,19.6c11,0,20-8.8,20-19.6
		C54.6,26.5,45.7,17.8,34.7,17.8"/>
	<path class="st0" d="M34.7,55.4c-10.2,0-18.5-8.1-18.5-18.1c0-10,8.3-18.1,18.5-18.1c10.2,0,18.5,8.1,18.5,18.1
		C53.1,47.3,44.9,55.4,34.7,55.4 M34.7,19.9c-9.8,0-17.8,7.8-17.8,17.4c0,9.6,8,17.5,17.8,17.5s17.8-7.8,17.8-17.5
		C52.5,27.7,44.5,19.9,34.7,19.9"/>
	<path class="st1" d="M72.4,34.8c-0.6-0.3-1.4-0.7-2.5-0.7c-2.2,0-3.7,1.6-3.7,3.7c0,1.9,1.3,3.6,3.6,3.6c1.5,0,2.3-0.6,2.9-1
		l-0.1,1.5c-0.6,0.3-1.5,0.7-3,0.7c-3.8,0-4.9-2.9-4.9-4.6c0-2.5,2.2-5.1,5.7-5.1c1,0,1.6,0.2,2.1,0.4V34.8z"/>
	<path class="st1" d="M78.3,32.9c3.2,0,4.8,2.4,4.8,4.8c0,3-2.3,4.9-5.1,4.9c-3.1,0-5.1-2.5-5.1-4.9C73,35.5,74.9,32.9,78.3,32.9
		 M78.5,41.6c2.2,0,3.2-2,3.2-3.5c0-2-1.5-4.1-3.8-4.1c-2,0-3.2,1.7-3.2,3.5C74.6,40,76.6,41.6,78.5,41.6"/>
	<path class="st1" d="M88.8,42.5h-4.8c0.2-0.6,0.4-1,0.4-3.1v-4.2c0-1.4-0.2-1.8-0.3-2.3h2.2c-0.2,0.5-0.4,0.9-0.4,2.3l-0.1,6.2
		c1.7-0.1,2.7-0.4,3.8-0.8L88.8,42.5z"/>
	<path class="st1" d="M95.4,33l-0.7,1.5C93.6,34,93,33.9,92,33.9v3.3H95l-0.8,1.3c-1.1-0.3-1.5-0.4-2.2-0.4v3.5c1.2,0,1.9,0,4-0.7
		l-0.7,1.6h-5.1c0.2-0.6,0.4-1.2,0.4-2.5v-4.7c0-0.6-0.1-1.6-0.4-2.4H95.4z"/>
	<path class="st1" d="M104.3,34.8c-0.6-0.3-1.7-0.9-3.1-0.9c-1.6,0-3.5,1.2-3.5,3.7c0,2.1,1.4,3.8,4,3.8c0.9,0,1.3-0.2,1.7-0.3v-1.1
		c0-1.5-0.3-1.9-0.7-2.3h2.4c-0.1,0.3-0.3,0.7-0.3,1.7v1.1c0,0.6,0,0.8,0.2,1.5c-0.7,0.3-1.6,0.6-3.4,0.6c-4.4,0-5.4-2.8-5.4-4.6
		c0-1.2,0.4-2.4,1.2-3.4c1-1.2,2.3-1.7,4.3-1.7c1.2,0,1.9,0.2,2.5,0.3V34.8z"/>
	<path class="st1" d="M108.3,33c-0.2,0.6-0.4,1.1-0.4,2.5v4.4c0,1.1,0.1,1.6,0.4,2.6h-2.2c0.2-0.6,0.4-1.1,0.4-2.7v-4.5
		c0-1.1-0.1-1.7-0.4-2.3H108.3z"/>
	<path class="st1" d="M114.5,32.9c3.2,0,4.8,2.4,4.8,4.8c0,3-2.3,4.9-5.1,4.9c-3.1,0-5.1-2.5-5.1-4.9
		C109.2,35.5,111.1,32.9,114.5,32.9 M114.6,41.6c2.2,0,3.2-2,3.2-3.5c0-2-1.5-4.1-3.8-4.1c-2,0-3.2,1.7-3.2,3.5
		C110.8,40,112.8,41.6,114.6,41.6"/>
	<path class="st1" d="M124.2,36.2c0-1-0.2-1.6-0.3-1.9c0.2,0,0.4,0,0.7,0c1.3,0,2.9,0.1,4,1.5c0.5,0.7,0.7,1.4,0.7,2.1
		c0,1.8-1.4,3.4-3.7,3.4H124c0.2-0.4,0.3-0.8,0.3-2.1V36.2z M125.3,39c0,0.8,0,1,0.1,1.6c2.1-0.2,2.8-1.7,2.8-2.8
		c0-1-0.5-2.5-2.8-2.8c-0.1,0.4-0.1,0.9-0.1,1.3V39z"/>
	<path class="st1" d="M133.7,34.3l-0.5,1.1c-0.8-0.3-1.2-0.4-2-0.4v2.4h2.2l-0.6,1c-0.8-0.2-1.1-0.3-1.6-0.3v2.5
		c0.9,0,1.4,0,2.9-0.5l-0.5,1.2h-3.7c0.1-0.4,0.3-0.9,0.3-1.8v-3.4c0-0.5-0.1-1.2-0.3-1.8H133.7z"/>
	<path class="st1" d="M146.2,34.8c-0.6-0.3-1.4-0.7-2.5-0.7c-2.2,0-3.7,1.6-3.7,3.7c0,1.9,1.3,3.6,3.6,3.6c1.5,0,2.3-0.6,2.9-1
		l-0.1,1.5c-0.6,0.3-1.5,0.7-3,0.7c-3.8,0-4.9-2.9-4.9-4.6c0-2.5,2.2-5.1,5.7-5.1c1,0,1.6,0.2,2.1,0.4V34.8z"/>
	<path class="st1" d="M152.1,32.9c3.2,0,4.8,2.4,4.8,4.8c0,3-2.3,4.9-5.1,4.9c-3.1,0-5.1-2.5-5.1-4.9
		C146.7,35.5,148.7,32.9,152.1,32.9 M152.2,41.6c2.2,0,3.2-2,3.2-3.5c0-2-1.5-4.1-3.8-4.1c-2,0-3.2,1.7-3.2,3.5
		C148.4,40,150.4,41.6,152.2,41.6"/>
	<path class="st1" d="M162.2,34.8c-0.4-0.3-1-0.8-1.8-0.8c-0.8,0-1.5,0.5-1.5,1.3c0,0.9,0.8,1.4,2,2.1c1.4,0.8,1.8,1.5,1.8,2.5
		c0,1.6-1.3,2.7-3.3,2.7c-0.8,0-1.2-0.1-1.7-0.3v-2c0.4,0.5,1,1.2,1.9,1.2c0.8,0,1.5-0.7,1.5-1.3c0-0.7-0.5-1.1-0.8-1.3
		c-2.1-1.3-2.9-1.8-2.9-3.2c0-1.5,1.3-2.8,2.9-2.8c0.9,0,1.5,0.3,2,0.5V34.8z"/>
	<path class="st1" d="M170.6,33l-0.7,1.5c-1.1-0.4-1.4-0.5-2.5-0.5v6.3c0,0.8,0.1,1.5,0.3,2.3h-2c0.1-0.6,0.3-1.3,0.3-2.4V34
		c-0.7,0-1.2,0-3.1,0.6l0.5-1.6H170.6z"/>
	<path class="st1" d="M177,39.9c0.7,1.5,1.2,2.1,1.5,2.6l-2.3,0c0-0.4-0.1-0.9-0.4-1.7l-0.6-1.3h-3.4l-0.5,1
		c-0.2,0.4-0.5,1.2-0.5,1.9h-2.4c0.3-0.4,0.6-0.7,1.4-2.3l3.8-7.3h0.1L177,39.9z M172.4,38.5h2.4l-1.1-2.6L172.4,38.5z"/>
	<path class="st1" d="M183.6,35c0-1.1-0.2-1.6-0.3-2l1.9,0c2.5,0,3.7,1.4,3.7,2.7c0,1.6-1.4,2.3-1.8,2.5c0.9,1.5,2.1,2.9,3.2,4.3
		h-1.3c-1.3-1.1-1.9-1.8-3.9-4.4v2.4c0,0.7,0,1,0.3,2.1h-2c0.2-0.9,0.3-1.6,0.3-2.5V35z M185,38c0.9-0.3,2.4-0.7,2.4-2.1
		c0-0.7-0.5-1.9-2.4-2V38z"/>
	<path class="st1" d="M193.1,33c-0.2,0.6-0.4,1.1-0.4,2.5v4.4c0,1.1,0.1,1.6,0.4,2.6h-2.2c0.2-0.6,0.4-1.1,0.4-2.7v-4.5
		c0-1.1-0.1-1.7-0.4-2.3H193.1z"/>
	<path class="st1" d="M201.7,34.8c-0.6-0.3-1.4-0.7-2.5-0.7c-2.2,0-3.7,1.6-3.7,3.7c0,1.9,1.3,3.6,3.6,3.6c1.5,0,2.3-0.6,2.9-1
		l-0.1,1.5c-0.6,0.3-1.5,0.7-3,0.7c-3.8,0-4.9-2.9-4.9-4.6c0-2.5,2.2-5.1,5.7-5.1c1,0,1.6,0.2,2.1,0.4V34.8z"/>
	<path class="st1" d="M210.2,39.9c0.7,1.5,1.2,2.1,1.5,2.6l-2.3,0c0-0.4-0.1-0.9-0.4-1.7l-0.6-1.3h-3.4l-0.5,1
		c-0.2,0.4-0.5,1.2-0.5,1.9h-2.4c0.3-0.4,0.6-0.7,1.4-2.3l3.8-7.3h0.1L210.2,39.9z M205.6,38.5h2.4l-1.1-2.6L205.6,38.5z"/>
	<path class="st2" d="M69.1,51.5l1.8-2c0.4-0.4,0.5-0.6,0.6-0.8h0.9c-0.1,0.1-0.4,0.4-0.4,0.5c0,0.2,0,1.2,0,1.5l0,2.7
		c0,0.2,0,0.4,0.3,0.9H71c0.1-0.2,0.2-0.5,0.2-0.7l0-3.7l-1.9,2.1c-0.1,0.1-0.1,0.1-0.2,0.2c-0.3-0.3-0.5-0.6-0.8-0.9l-1-1.1
		c-0.1-0.2-0.2-0.2-0.4-0.4l0,2.7c0,1.2,0.1,1.4,0.3,1.8H66c0.2-0.4,0.3-0.7,0.3-1.5l0-2.9c0-0.4,0-0.6-0.1-0.7
		c0-0.1-0.5-0.5-0.6-0.6h1.1c0.1,0.2,0.2,0.5,0.7,1L69.1,51.5z"/>
	<path class="st2" d="M74.1,53.5c0,0.3,0,0.5,0.2,1h-1.1c0.2-0.6,0.2-0.7,0.2-1.2v-3.3c0-0.7,0-0.8-0.2-1.3h1.1
		c-0.2,0.4-0.2,0.5-0.2,1.1L74.1,53.5z"/>
	<path class="st2" d="M78.9,52.3c0.3,0.4,0.6,0.7,0.9,1.1v-2.8c0-1.1-0.1-1.3-0.3-1.7h1c-0.1,0.4-0.2,0.6-0.2,1.5v3.2
		c0,0.3,0,0.7,0.1,1h-0.7c-0.2-0.2-0.3-0.5-0.5-0.7l-3-3.8v2.9c0,1.1,0.1,1.4,0.2,1.6h-0.9c0.1-0.5,0.2-0.8,0.2-1.2v-2.9
		c0-0.4,0-0.6,0-0.9c-0.2-0.2-0.3-0.3-0.6-0.6h1.2c0.1,0.2,0.2,0.3,0.4,0.6L78.9,52.3z"/>
	<path class="st2" d="M82.7,53.5c0,0.3,0,0.5,0.2,1h-1.1c0.2-0.6,0.2-0.7,0.2-1.2v-3.3c0-0.7,0-0.8-0.2-1.3h1.1
		c-0.2,0.4-0.2,0.5-0.2,1.1L82.7,53.5z"/>
	<path class="st2" d="M85.4,49.3c-0.5,0-1,0.5-1,1c0,0.6,0.6,0.9,1,1.1c0.7,0.3,1.3,0.6,1.3,1.5c0,1-0.9,1.6-1.9,1.6
		c-0.2,0-0.6-0.1-0.9-0.1c0-0.3,0-0.8,0-1.1c0.2,0.3,0.6,0.8,1.1,0.8c0.5,0,1-0.4,1-1c0-0.5-0.2-0.7-1.6-1.4c-0.7-0.4-0.7-1-0.7-1.2
		c0-1,0.8-1.7,1.7-1.7c0.3,0,0.6,0.1,0.8,0.2c0,0.3,0,0.9,0,0.9C86.2,49.7,85.9,49.3,85.4,49.3"/>
	<path class="st2" d="M89.7,53.3c0,0.6,0.1,0.9,0.2,1.2h-1c0.2-0.5,0.2-0.9,0.2-1.2l0-4c-0.7,0-1.3,0.1-1.8,0.4l0.3-0.8h4.1
		c-0.1,0.2-0.2,0.4-0.3,0.8c-0.4-0.2-0.6-0.2-1.5-0.3c0,0.3,0,0.7,0,0.9V53.3z"/>
	<path class="st2" d="M95.1,49.6c-0.3-0.1-0.9-0.3-1.9-0.3l0,0.5v1.7h1.1l0.8,0l-0.5,0.8c-0.6-0.2-0.7-0.2-1.4-0.3l0,1.7
		c0,0.3,0,0.3,0,0.5c1.2,0,1.8-0.1,2.6-0.5l-0.5,1h-3c0.2-0.4,0.3-0.7,0.3-1.3v-3.1c0-0.4-0.1-0.9-0.2-1.3h3.2L95.1,49.6z"/>
	<path class="st2" d="M96.8,50c0-0.6,0-0.7-0.2-1.2h1.5c0.4,0,1.1,0.4,1.3,0.6c0.2,0.2,0.4,0.6,0.4,1c0,0.8-0.5,1.1-0.9,1.4L98.4,52
		c0.5,0.7,0.9,1.2,2.1,2.5h-0.7c-0.5-0.4-0.9-0.8-1.4-1.3l-1-1.3v0.9c0,0.6,0,1.2,0.2,1.7h-1c0.2-0.5,0.2-0.6,0.2-1.7L96.8,50z
		 M97.5,51.8c0.5-0.1,1.1-0.3,1.4-0.5c0.1-0.1,0.3-0.4,0.3-0.7c0-0.4-0.2-0.8-0.6-1.1c-0.4-0.3-0.8-0.3-1-0.3c0,0.2,0,0.5,0,1.2
		L97.5,51.8z"/>
	<path class="st2" d="M102.1,53.5c0,0.3,0,0.5,0.2,1h-1.1c0.2-0.6,0.2-0.7,0.2-1.2v-3.3c0-0.7,0-0.8-0.2-1.3h1.1
		c-0.2,0.4-0.2,0.5-0.2,1.1L102.1,53.5z"/>
	<path class="st2" d="M106.2,54.6c-1.5,0-2.9-1.2-2.9-2.9c0-1.7,1.4-2.9,2.9-2.9c1.7,0,3.1,1.5,3.1,2.9c0,0.6-0.2,1.6-1,2.1
		c-0.2,0.2-0.8,0.5-1.4,0.7C106.7,54.5,106.4,54.6,106.2,54.6 M108.6,51.9c0-1.3-1.1-2.5-2.6-2.5c-1.6,0-2.1,1.2-2.1,2.2
		c0,1.7,1.4,2.4,2.6,2.4c0.6,0,0.9-0.2,1.4-0.4C108.6,52.8,108.6,52.1,108.6,51.9"/>
	<path class="st2" d="M113.2,50.1c0-0.5,0-0.7-0.2-1.3h0.9c1.9,0,3.3,1.2,3.3,2.9c0,0.8-0.3,1.5-0.9,2c-0.6,0.6-1.6,0.8-2,0.8h-1.3
		c0.2-0.6,0.2-0.6,0.2-1.2V50.1z M113.8,54.1c0.4,0,1,0,1.6-0.5c0.4-0.3,1-0.9,1-1.8c0-1.2-0.9-2.5-2.6-2.5V54.1z"/>
	<path class="st2" d="M120.9,49.6c-0.3-0.1-0.9-0.3-1.9-0.3l0,0.5v1.7h1.1l0.8,0l-0.4,0.8c-0.6-0.2-0.7-0.2-1.4-0.3l0,1.7
		c0,0.3,0,0.3,0,0.5c1.2,0,1.8-0.1,2.6-0.5l-0.5,1h-3c0.2-0.4,0.3-0.7,0.3-1.3v-3.1c0-0.4-0.1-0.9-0.2-1.3h3.2L120.9,49.6z"/>
	<path class="st2" d="M129.6,54.1c-0.4,0.1-1,0.4-1.9,0.4c-1.9,0-2.9-1.6-2.9-2.9c0-1.6,1.2-3,3.3-3c0.6,0,1.1,0.1,1.4,0.2v1
		c-0.3-0.2-0.8-0.7-1.7-0.7c-1.2,0-2.2,1-2.2,2.5c0,1.5,0.9,2.3,2.2,2.3c0.9,0,1.5-0.5,2-0.8L129.6,54.1z"/>
	<path class="st2" d="M135.1,53.2c0,0.7,0,0.9,0.2,1.3h-0.8c0-0.3,0-0.5,0-0.8c-0.6,0.5-1.3,0.9-1.9,0.9c-0.7,0-1.3-0.4-1.6-0.7
		c-0.3-0.4-0.3-0.7-0.3-0.9l0-2.8c0-0.4,0-0.8-0.3-1.2h1.1c-0.1,0.3-0.2,0.5-0.2,1.4v1.8c0,0.3,0,0.8,0.1,1.2
		c0.3,0.8,1.3,0.8,1.5,0.8c0.8,0,1.3-0.5,1.5-0.9c0.1-0.2,0.1-0.5,0.1-0.8v-1.4c0-1.2,0-1.4-0.2-2h1c-0.2,0.6-0.2,0.6-0.2,1.8V53.2z
		"/>
	<path class="st2" d="M137.5,53.1c0,0.2,0,0.6,0,1c0.9,0,1.7-0.2,2.3-0.4l-0.4,0.9h-2.7c0.1-0.2,0.2-0.6,0.2-1.5v-3
		c0-0.6-0.1-0.9-0.2-1.2h1.1c-0.2,0.4-0.2,0.9-0.2,1.4V53.1z"/>
	<path class="st2" d="M141.7,53.3c0,0.6,0.1,0.9,0.2,1.2h-1c0.2-0.5,0.2-0.9,0.2-1.2l0-4c-0.7,0-1.3,0.1-1.8,0.4l0.3-0.8h4.1
		c-0.1,0.2-0.2,0.4-0.3,0.8c-0.4-0.2-0.6-0.2-1.5-0.3c0,0.3,0,0.7,0,0.9V53.3z"/>
	<path class="st2" d="M149,53.2c0,0.7,0,0.9,0.2,1.3h-0.8c0-0.3,0-0.5,0-0.8c-0.6,0.5-1.3,0.9-1.9,0.9c-0.7,0-1.3-0.4-1.5-0.7
		c-0.3-0.4-0.3-0.7-0.3-0.9l0-2.8c0-0.4,0-0.8-0.3-1.2h1.1c-0.1,0.3-0.2,0.5-0.2,1.4v1.8c0,0.3,0,0.8,0.1,1.2
		c0.3,0.8,1.3,0.8,1.5,0.8c0.8,0,1.3-0.5,1.5-0.9c0.1-0.2,0.1-0.5,0.1-0.8v-1.4c0-1.2,0-1.4-0.2-2h1c-0.2,0.6-0.2,0.6-0.2,1.8V53.2z
		"/>
	<path class="st2" d="M150.7,50c0-0.6,0-0.7-0.2-1.2h1.5c0.4,0,1.1,0.4,1.3,0.6c0.2,0.2,0.4,0.6,0.4,1c0,0.8-0.5,1.1-0.9,1.4
		l-0.5,0.3c0.5,0.7,0.9,1.2,2.1,2.5h-0.7c-0.5-0.4-0.9-0.8-1.4-1.3l-1-1.3v0.9c0,0.6,0,1.2,0.2,1.7h-1c0.2-0.5,0.2-0.6,0.2-1.7
		L150.7,50z M151.3,51.8c0.5-0.1,1.1-0.3,1.4-0.5c0.1-0.1,0.3-0.4,0.3-0.7c0-0.4-0.2-0.8-0.6-1.1c-0.4-0.3-0.8-0.3-1-0.3
		c0,0.2,0,0.5,0,1.2L151.3,51.8z"/>
	<path class="st2" d="M159.3,52.1c0.2,0.4,0.6,1.5,0.8,1.7c0.1,0.1,0.1,0.2,0.4,0.7h-1.3c0-0.2,0-0.3,0-0.3c0-0.4-0.1-0.7-0.2-1
		l-0.3-0.8c-0.7,0-1.2,0-2.1,0l-0.3,0.6c-0.4,0.9-0.5,1.2-0.6,1.5h-1.1c0.7-0.9,0.7-1,1.6-2.6l1.6-3.2L159.3,52.1z M158.5,51.8
		l-0.8-1.8l-0.9,1.8L158.5,51.8z"/>
	<path class="st2" d="M165.3,51.7v2c0,0.4,0,0.5,0.2,0.8h-1c0.1-0.3,0.2-0.5,0.2-1v-1.8c-0.3-0.5-1-1.7-1.3-2.1
		c-0.1-0.1-0.3-0.5-0.7-0.8h1.2c0.1,0.6,0.6,1.2,1.3,2.3c0.2-0.3,0.3-0.5,0.5-0.8l0.5-0.8c0.1-0.2,0.2-0.4,0.2-0.6l0-0.1h1.2
		c-0.3,0.3-0.6,0.6-0.8,0.9L165.3,51.7z"/>
	<path class="st2" d="M171.2,49.9c0-0.6-0.1-0.8-0.2-1.1h1.1c-0.2,0.4-0.3,0.6-0.3,1.3v2.4c0,0.3,0,1.3,0,1.6c0,0.6-0.1,1-0.9,1.7
		l-0.7,0.1c0.6-0.5,1-0.9,1-2.9L171.2,49.9z"/>
	<path class="st2" d="M177.9,53.2c0,0.7,0,0.9,0.2,1.3h-0.8c0-0.3,0-0.5,0-0.8c-0.6,0.5-1.3,0.9-1.9,0.9c-0.7,0-1.3-0.4-1.5-0.7
		c-0.3-0.4-0.3-0.7-0.3-0.9l0-2.8c0-0.4,0-0.8-0.3-1.2h1.1c-0.1,0.3-0.2,0.5-0.2,1.4v1.8c0,0.3,0,0.8,0.1,1.2
		c0.3,0.8,1.3,0.8,1.5,0.8c0.8,0,1.3-0.5,1.5-0.9c0.1-0.2,0.1-0.5,0.1-0.8v-1.4c0-1.2,0-1.4-0.2-2h1c-0.2,0.6-0.2,0.6-0.2,1.8V53.2z
		"/>
	<path class="st2" d="M181.9,54.5h-0.4l-1.4-3.6c-0.5-1.2-0.8-1.8-1.2-2.2h1.2c0,0.2,0,0.4,0.1,0.9c0,0,0.8,2.2,1.5,3.7
		c0.4-0.7,0.9-2,1.2-2.6c0.2-0.5,0.5-1.3,0.5-1.7c0-0.1,0-0.2,0-0.3h1.1c-0.1,0.1-0.2,0.3-0.4,0.6c-0.1,0.1-0.6,1.3-0.7,1.5
		L181.9,54.5z"/>
	<path class="st2" d="M188.1,49.6c-0.3-0.1-0.9-0.3-1.9-0.3l0,0.5v1.7h1.1l0.8,0l-0.4,0.8c-0.6-0.2-0.7-0.2-1.4-0.3l0,1.7
		c0,0.3,0,0.3,0,0.5c1.2,0,1.8-0.1,2.6-0.5l-0.5,1h-3c0.2-0.4,0.3-0.7,0.3-1.3v-3.1c0-0.4-0.1-0.9-0.2-1.3h3.2L188.1,49.6z"/>
	<path class="st2" d="M193,52.3c0.3,0.4,0.6,0.7,0.9,1.1v-2.8c0-1.1-0.1-1.3-0.3-1.7h1c-0.1,0.4-0.2,0.6-0.2,1.5v3.2
		c0,0.3,0,0.7,0.1,1h-0.7c-0.2-0.2-0.3-0.5-0.5-0.7l-3-3.8v2.9c0,1.1,0.1,1.4,0.2,1.6h-0.9c0.1-0.5,0.2-0.8,0.2-1.2v-2.9
		c0-0.4,0-0.6,0-0.9c-0.2-0.2-0.3-0.3-0.6-0.6h1.2c0.1,0.2,0.2,0.3,0.4,0.6L193,52.3z"/>
	<path class="st2" d="M197.9,53.3c0,0.6,0.1,0.9,0.2,1.2h-1c0.2-0.5,0.2-0.9,0.2-1.2l0-4c-0.7,0-1.3,0.1-1.8,0.4l0.3-0.8h4.1
		c-0.1,0.2-0.2,0.4-0.3,0.8c-0.4-0.2-0.6-0.2-1.5-0.3c0,0.3,0,0.7,0,0.9V53.3z"/>
	<path class="st2" d="M205.2,53.2c0,0.7,0,0.9,0.2,1.3h-0.8c0-0.3,0-0.5,0-0.8c-0.6,0.5-1.3,0.9-1.9,0.9c-0.7,0-1.3-0.4-1.6-0.7
		c-0.3-0.4-0.3-0.7-0.3-0.9l0-2.8c0-0.4,0-0.8-0.3-1.2h1.1c-0.1,0.3-0.2,0.5-0.2,1.4v1.8c0,0.3,0,0.8,0.1,1.2
		c0.3,0.8,1.3,0.8,1.5,0.8c0.8,0,1.3-0.5,1.5-0.9c0.1-0.2,0.1-0.5,0.1-0.8v-1.4c0-1.2,0-1.4-0.2-2h1c-0.2,0.6-0.2,0.6-0.2,1.8V53.2z
		"/>
	<path class="st2" d="M206.9,50.1c0-0.5,0-0.7-0.2-1.3h0.9c1.9,0,3.3,1.2,3.3,2.9c0,0.8-0.3,1.5-0.9,2c-0.6,0.6-1.6,0.8-2,0.8h-1.3
		c0.2-0.6,0.2-0.6,0.2-1.2V50.1z M207.6,54.1c0.4,0,1,0,1.6-0.5c0.4-0.3,1-0.9,1-1.8c0-1.2-0.9-2.5-2.6-2.5V54.1z"/>
	<rect x="63.4" y="28.9" class="st3" width="149.2" height="0.9"/>
	<rect x="63.4" y="45.4" class="st3" width="149.2" height="0.9"/>
</g>
</svg>
