<svg id="Capa_1" data-name="Capa 1" xmlns="http://www.w3.org/2000/svg" viewBox="0 0 241 76"><defs><style>.cls-1{fill:#fff;}</style></defs><path class="cls-1" d="M33.9,53.1h0a2.49,2.49,0,0,1-1.7-1.2,2.08,2.08,0,0,1,.5-1.9v-.1c0-1.1.1-2.6.1-3.7-.7,1.2-1.8,3.2-2.5,4.6l-.1.2H27.5l.2-.5c1.2-2.7,3.1-6.8,3.1-7v-.1c-.1,0-.2.1-.5.3-.1.1-3.1,2.6-5.7,2.6a3.09,3.09,0,0,1-3-2.2c-2.1-5.1-1.2-10.2.1-12A2.24,2.24,0,0,1,23.5,31a3.69,3.69,0,0,1,2.2.9.31.31,0,0,0,.2.1c.4.2,1.4.9,2.5,1.6,1.3.8,2.6,1.7,2.9,1.8a2.9,2.9,0,0,0,1.1.3c.2,0,.3,0,.3-.1a.37.37,0,0,0,.1-.3l-.2-2.1c-1.3-.2-6.2-1.4-5.8-6.4.3-1.8,2-4.9,6.4-5.3,3.7-.3,6.3,1.3,7.3,4.4,1.3.2,2.8.5,2.9,1.2s-.8,1.1-2.8,1.6a7.31,7.31,0,0,1-4.4,4.2l.4,1.5.1.1s.2,0,.5-.3c.1,0,.1-.1.2-.2a38.51,38.51,0,0,1,5.4-4.3,5.56,5.56,0,0,1,2.6-.8,3,3,0,0,1,3.1,2.5c1.1,3,1,9.6-.7,11.8a3.7,3.7,0,0,1-3,1.6,6,6,0,0,1-2.7-.7c-.4-.2-1.4-.8-2.3-1.3a5.58,5.58,0,0,1-.8-.5,2.5,2.5,0,0,0-.8-.4c0,.1.1.1.2.3l6.5,7.7-2.5.8-4.8-5.5,1.7,4.7a3,3,0,0,1-.1,2.3,2.26,2.26,0,0,1-2,.9Zm-.7-8.5h.1l.1.1c.1.1.2.2,0,5.2v.3l-.1.1a1.79,1.79,0,0,0-.5,1.3,1.39,1.39,0,0,0,1.1.7h3.4c.7,0,1.2-.2,1.4-.6a2.25,2.25,0,0,0,.1-1.6l-1.9-5c-.3-.7-.4-1-.3-1.2a.52.52,0,0,1,.4-.2c.1,0,.3,0,.8.6l4.9,5.6,1.1-.4-5.9-6.9a1.07,1.07,0,0,1-.3-1,1.38,1.38,0,0,1,.3-.4c.1,0,.2-.1.3-.1a3.55,3.55,0,0,1,1.3.5,3.51,3.51,0,0,1,.8.5c.9.5,1.9,1.1,2.3,1.3A6,6,0,0,0,45,44a3,3,0,0,0,2.4-1.3c1.5-2,1.6-8.5.6-11.2h0a2.36,2.36,0,0,0-2.4-2,4.35,4.35,0,0,0-2.3.7A37.24,37.24,0,0,0,38,34.4l-.2.2a1.59,1.59,0,0,1-1,.5.89.89,0,0,1-.8-.6l-.6-2.2.3-.1A6.59,6.59,0,0,0,40,28.1l.1-.2h.2a7.47,7.47,0,0,0,2.5-.9,6.11,6.11,0,0,0-2.4-.6h-.1l-.1-.1A.77.77,0,0,1,40,26c-.9-2.8-3.2-4.3-6.6-4-3.7.3-5.4,2.7-5.7,4.7-.4,5,5.2,5.7,5.5,5.7h.3l.3,2.7a1,1,0,0,1-.3.8,1.14,1.14,0,0,1-.8.3,3.71,3.71,0,0,1-1.5-.4c-.3-.2-1.6-1-2.9-1.9a23.69,23.69,0,0,1-2.4-1.6.22.22,0,0,1-.2-.2,4.17,4.17,0,0,0-1.8-.8,1.31,1.31,0,0,0-1.2.7c-1.2,1.7-2,6.5,0,11.4a2.51,2.51,0,0,0,2.4,1.8c2.3,0,5.2-2.5,5.2-2.5a1.52,1.52,0,0,1,1-.5.76.76,0,0,1,.5.2,1.23,1.23,0,0,1,.1.8c-.1.2-2,4.6-2.9,6.6h1.2c2.6-5.2,2.7-5.2,3-5.2"/><path class="cls-1" d="M43.3,37.3H40.1a1.75,1.75,0,0,1-1.6-.7c-.1-.3-.1-.8.6-1.5a24.84,24.84,0,0,1,4.1-3.5,3.46,3.46,0,0,1,2-.7,1.73,1.73,0,0,1,1.7,1.6c0,.2.1.7.1,1.1a4.24,4.24,0,0,1-.3,1.9,3.6,3.6,0,0,1-3.4,1.8Zm1.9-6a2.66,2.66,0,0,0-1.6.6,26.86,26.86,0,0,0-4.1,3.5,1.35,1.35,0,0,0-.5.9,1.18,1.18,0,0,0,1,.4h3.2A2.78,2.78,0,0,0,46,35.1a3.19,3.19,0,0,0,.3-1.6h0c0-.3-.1-.8-.1-1,0-.8-.4-1.2-1-1.2"/><path class="cls-1" d="M23.8,38.5a1.41,1.41,0,0,1-1.1-.5,2.07,2.07,0,0,1-.5-1.6c0-1.9.9-2.6,1.7-2.6a1.85,1.85,0,0,1,.7.2l4.8,2.1c.7.3,1.3.9,1.2,1.5s-.8.9-2.1.9H23.8Zm0-4.1c-.6,0-1.1.8-1.1,2,0,.6.1,1,.4,1.2a.94.94,0,0,0,.7.3v0h4.6c1.1,0,1.5-.2,1.6-.4s-.3-.6-.9-.9l-4.8-2.1c-.2,0-.3-.1-.5-.1"/><path class="cls-1" d="M25.4,44.1a2.37,2.37,0,0,1-2.5-1.4,1.79,1.79,0,0,1,.1-1.6,4.27,4.27,0,0,1,2.5-1.7,17.42,17.42,0,0,1,3-.3c2.6,0,2.9.6,2.9.8a1.11,1.11,0,0,1-.5,1.2,11.21,11.21,0,0,1-4.6,2.8c0,.1-.3.2-.9.2m3.2-4.5a9.41,9.41,0,0,0-2.8.3,3.19,3.19,0,0,0-2.1,1.4,1.67,1.67,0,0,0-.1,1.2,2,2,0,0,0,2,1,3.78,3.78,0,0,0,.8-.1,11.42,11.42,0,0,0,4.3-2.7c.3-.3.5-.5.4-.6s-.8-.5-2.5-.5"/><path class="cls-1" d="M44,42.7a3.55,3.55,0,0,1-1-.2s-2.3-1.1-3.7-1.8c-.8-.4-1.2-.9-1.1-1.4s.5-.8,1.9-1c2.9-.3,4.6-.4,4.8-.4h.4a1.36,1.36,0,0,1,1.2.5c.3.4.3.9,0,1.7.1.1-.5,2.6-2.5,2.6m1.4-4.2h-.3s-1.8.1-4.8.4c-.9.1-1.3.3-1.4.5s.2.5.8.8c1.4.7,3.7,1.8,3.7,1.8a2.35,2.35,0,0,0,.8.2c1.5,0,2-2.2,2-2.2q.3-.9,0-1.2a.91.91,0,0,0-.8-.3"/><path class="cls-1" d="M33.7,28.1a1.6,1.6,0,1,1,1.6-1.6,1.58,1.58,0,0,1-1.6,1.6m0-2.6a1.1,1.1,0,0,0-1.1,1,1,1,0,0,0,1.1,1,1,1,0,1,0,0-2"/><path class="cls-1" d="M34.7,41.5a2.05,2.05,0,0,1-2.1-2.1,2.11,2.11,0,0,1,2.1-2.1,2.05,2.05,0,0,1,2.1,2.1,2.11,2.11,0,0,1-2.1,2.1m0-3.6a1.5,1.5,0,1,0,1.5,1.5,1.54,1.54,0,0,0-1.5-1.5"/><path class="cls-1" d="M34,31.3c-2.8,0-5.1-1.8-5.1-4.1s2.3-4.1,5.1-4.1,5.1,1.8,5.1,4.1-2.3,4.1-5.1,4.1m0-7.6c-2.5,0-4.5,1.6-4.5,3.5s2,3.5,4.5,3.5,4.5-1.6,4.5-3.5-2-3.5-4.5-3.5"/><path class="cls-1" d="M34.7,61.3A24.14,24.14,0,0,1,10.3,37.4c0-13.2,11-23.9,24.4-23.9A24.14,24.14,0,0,1,59.1,37.4c0,13.1-11,23.9-24.4,23.9m0-46.1C22.2,15.2,12,25.2,12,37.4S22.2,59.6,34.7,59.6s22.7-10,22.7-22.2A22.52,22.52,0,0,0,34.7,15.2"/><path class="cls-1" d="M34.7,57.6A20.42,20.42,0,0,1,14.1,37.4a20.6,20.6,0,0,1,41.2,0A20.49,20.49,0,0,1,34.7,57.6m0-39.8a19.85,19.85,0,0,0-20,19.6,20,20,0,0,0,40,0,19.91,19.91,0,0,0-20-19.6"/><path class="cls-1" d="M34.7,55.5A18.31,18.31,0,0,1,16.2,37.4,18.31,18.31,0,0,1,34.7,19.3,18.31,18.31,0,0,1,53.2,37.4,18.44,18.44,0,0,1,34.7,55.5m0-35.6A17.63,17.63,0,0,0,16.9,37.3a17.8,17.8,0,0,0,35.6,0A17.63,17.63,0,0,0,34.7,19.9"/><path class="cls-1" d="M72.4,34.8a5.31,5.31,0,0,0-2.5-.7,3.57,3.57,0,0,0-3.7,3.7,3.46,3.46,0,0,0,3.6,3.6,4.66,4.66,0,0,0,2.9-1l-.1,1.5a6.22,6.22,0,0,1-3,.7A4.55,4.55,0,0,1,64.7,38a5.41,5.41,0,0,1,5.7-5.1,5.18,5.18,0,0,1,2.1.4v1.5Z"/><path class="cls-1" d="M78.3,33a4.61,4.61,0,0,1,4.8,4.8A4.83,4.83,0,0,1,78,42.7a5,5,0,0,1-5.1-4.9A5.22,5.22,0,0,1,78.3,33m.2,8.6a3.33,3.33,0,0,0,3.2-3.5A4,4,0,0,0,77.9,34a3.29,3.29,0,0,0-3.2,3.5,3.82,3.82,0,0,0,3.8,4.1"/><path class="cls-1" d="M88.8,42.6H84a7.41,7.41,0,0,0,.4-3.1V35.3a7.69,7.69,0,0,0-.3-2.3h2.2a4.86,4.86,0,0,0-.4,2.3l-.1,6.2a12,12,0,0,0,3.8-.8Z"/><path class="cls-1" d="M95.4,33l-.7,1.5a5.54,5.54,0,0,0-2.7-.6v3.3h3.1l-.8,1.3a7.33,7.33,0,0,0-2.2-.4v3.5a10,10,0,0,0,4-.7l-.7,1.6H90.3a6.73,6.73,0,0,0,.4-2.5V35.3a7.51,7.51,0,0,0-.4-2.4h5.1Z"/><path class="cls-1" d="M104.3,34.8a6.72,6.72,0,0,0-3.1-.9,3.52,3.52,0,0,0-3.5,3.7,3.68,3.68,0,0,0,4,3.8,5.17,5.17,0,0,0,1.7-.3V40c0-1.5-.3-1.9-.7-2.3h2.4a4.18,4.18,0,0,0-.3,1.7v1.1A4.14,4.14,0,0,0,105,42a7.86,7.86,0,0,1-3.4.6c-4.4,0-5.4-2.8-5.4-4.6a5.43,5.43,0,0,1,1.2-3.4,5.05,5.05,0,0,1,4.3-1.7,12,12,0,0,1,2.5.3v1.6Z"/><path class="cls-1" d="M108.3,33a6.33,6.33,0,0,0-.4,2.5v4.4a7.46,7.46,0,0,0,.4,2.6h-2.2a6.78,6.78,0,0,0,.4-2.7V35.3a4.74,4.74,0,0,0-.4-2.3Z"/><path class="cls-1" d="M114.5,33a4.61,4.61,0,0,1,4.8,4.8,4.83,4.83,0,0,1-5.1,4.9,5,5,0,0,1-5.1-4.9,5.22,5.22,0,0,1,5.4-4.8m.1,8.6a3.33,3.33,0,0,0,3.2-3.5A4,4,0,0,0,114,34a3.29,3.29,0,0,0-3.2,3.5,3.93,3.93,0,0,0,3.8,4.1"/><path class="cls-1" d="M124.2,36.2a5.56,5.56,0,0,0-.3-1.9h.7a4.65,4.65,0,0,1,4,1.5,3.52,3.52,0,0,1,.7,2.1,3.45,3.45,0,0,1-3.7,3.4H124a4.26,4.26,0,0,0,.3-2.1v-3Zm1.1,2.8a7.59,7.59,0,0,0,.1,1.6,2.82,2.82,0,0,0,2.8-2.8c0-1-.5-2.5-2.8-2.8a5.7,5.7,0,0,0-.1,1.3Z"/><path class="cls-1" d="M133.7,34.3l-.5,1.1a4.77,4.77,0,0,0-2-.4v2.4h2.2l-.6,1a6.13,6.13,0,0,0-1.6-.3v2.5a7.25,7.25,0,0,0,2.9-.5l-.5,1.2h-3.7a5.94,5.94,0,0,0,.3-1.8V36.1a6.15,6.15,0,0,0-.3-1.8Z"/><path class="cls-1" d="M146.2,34.8a5.31,5.31,0,0,0-2.5-.7,3.57,3.57,0,0,0-3.7,3.7,3.46,3.46,0,0,0,3.6,3.6,4.66,4.66,0,0,0,2.9-1l-.1,1.5a6.22,6.22,0,0,1-3,.7,4.55,4.55,0,0,1-4.9-4.6,5.41,5.41,0,0,1,5.7-5.1,5.18,5.18,0,0,1,2.1.4v1.5Z"/><path class="cls-1" d="M152.1,33a4.61,4.61,0,0,1,4.8,4.8,4.83,4.83,0,0,1-5.1,4.9,5,5,0,0,1-5.1-4.9,5.15,5.15,0,0,1,5.4-4.8m.1,8.6a3.33,3.33,0,0,0,3.2-3.5,4,4,0,0,0-3.8-4.1,3.29,3.29,0,0,0-3.2,3.5,3.93,3.93,0,0,0,3.8,4.1"/><path class="cls-1" d="M162.2,34.9a3,3,0,0,0-1.8-.8,1.37,1.37,0,0,0-1.5,1.3c0,.9.8,1.4,2,2.1,1.4.8,1.8,1.5,1.8,2.5,0,1.6-1.3,2.7-3.3,2.7a4,4,0,0,1-1.7-.3v-2a2.56,2.56,0,0,0,1.9,1.2,1.52,1.52,0,0,0,1.5-1.3,1.57,1.57,0,0,0-.8-1.3c-2.1-1.3-2.9-1.8-2.9-3.2a2.88,2.88,0,0,1,2.9-2.8,4.85,4.85,0,0,1,2,.5v1.4Z"/><path class="cls-1" d="M170.6,33.1l-.7,1.5a5.59,5.59,0,0,0-2.5-.5v6.3a9.08,9.08,0,0,0,.3,2.3h-2a11.85,11.85,0,0,0,.3-2.4V34a8.42,8.42,0,0,0-3.1.6l.5-1.6h7.2Z"/><path class="cls-1" d="M177,40a18.24,18.24,0,0,0,1.5,2.6h-2.3a4.92,4.92,0,0,0-.4-1.7l-.6-1.3h-3.4l-.5,1a4.78,4.78,0,0,0-.5,1.9h-2.4a10.75,10.75,0,0,0,1.4-2.3l3.8-7.3h.1Zm-4.6-1.5h2.4l-1.1-2.6Z"/><path class="cls-1" d="M183.6,35a6.34,6.34,0,0,0-.3-2h1.9c2.5,0,3.7,1.4,3.7,2.7a2.87,2.87,0,0,1-1.8,2.5,43.54,43.54,0,0,0,3.2,4.3H189a23.55,23.55,0,0,1-3.9-4.4v2.4a6.14,6.14,0,0,0,.3,2.1h-2a10.68,10.68,0,0,0,.3-2.5V35Zm1.4,3c.9-.3,2.4-.7,2.4-2.1,0-.7-.5-1.9-2.4-2Z"/><path class="cls-1" d="M193.1,33a6.33,6.33,0,0,0-.4,2.5v4.4a7.46,7.46,0,0,0,.4,2.6h-2.2a6.78,6.78,0,0,0,.4-2.7V35.3a4.74,4.74,0,0,0-.4-2.3Z"/><path class="cls-1" d="M201.7,34.8a5.31,5.31,0,0,0-2.5-.7,3.57,3.57,0,0,0-3.7,3.7,3.46,3.46,0,0,0,3.6,3.6,4.66,4.66,0,0,0,2.9-1l-.1,1.5a6.22,6.22,0,0,1-3,.7A4.55,4.55,0,0,1,194,38a5.41,5.41,0,0,1,5.7-5.1,5.18,5.18,0,0,1,2.1.4v1.5Z"/><path class="cls-1" d="M210.2,40a18.24,18.24,0,0,0,1.5,2.6h-2.3a4.92,4.92,0,0,0-.4-1.7l-.6-1.3H205l-.5,1a4.78,4.78,0,0,0-.5,1.9h-2.4a10.75,10.75,0,0,0,1.4-2.3l3.8-7.3h.1Zm-4.6-1.5H208l-1.1-2.6Z"/><path class="cls-1" d="M69.1,51.6l1.8-2a2.62,2.62,0,0,0,.6-.8h.9c-.1.1-.4.4-.4.5v4.2a1.48,1.48,0,0,0,.3.9H71a1.85,1.85,0,0,0,.2-.7V50l-1.9,2.1-.2.2c-.3-.3-.5-.6-.8-.9l-1-1.1c-.1-.2-.2-.2-.4-.4v2.7a3.12,3.12,0,0,0,.3,1.8H66a2.81,2.81,0,0,0,.3-1.5V50c0-.4,0-.6-.1-.7s-.5-.5-.6-.6h1.1a3,3,0,0,0,.7,1Z"/><path class="cls-1" d="M74.1,53.5a2.17,2.17,0,0,0,.2,1H73.2a2.74,2.74,0,0,0,.2-1.2V50a2.55,2.55,0,0,0-.2-1.3h1.1a1.82,1.82,0,0,0-.2,1.1Z"/><path class="cls-1" d="M78.9,52.3c.3.4.6.7.9,1.1V50.6a2.94,2.94,0,0,0-.3-1.7h1a4.39,4.39,0,0,0-.2,1.5v3.2a3.4,3.4,0,0,0,.1,1h-.7c-.2-.2-.3-.5-.5-.7l-3-3.8V53a3.48,3.48,0,0,0,.2,1.6h-.9a6,6,0,0,0,.2-1.2V49.6l-.6-.6h1.2a6.13,6.13,0,0,0,.4.6Z"/><path class="cls-1" d="M82.7,53.5a2.17,2.17,0,0,0,.2,1H81.8a2.74,2.74,0,0,0,.2-1.2V50a2.55,2.55,0,0,0-.2-1.3h1.1a1.82,1.82,0,0,0-.2,1.1Z"/><path class="cls-1" d="M85.4,49.3a1.08,1.08,0,0,0-1,1c0,.6.6.9,1,1.1.7.3,1.3.6,1.3,1.5a1.72,1.72,0,0,1-1.9,1.6c-.2,0-.6-.1-.9-.1V53.3c.2.3.6.8,1.1.8a1,1,0,0,0,1-1c0-.5-.2-.7-1.6-1.4a1.28,1.28,0,0,1-.7-1.2,1.69,1.69,0,0,1,1.7-1.7,1.88,1.88,0,0,1,.8.2v.9a.9.9,0,0,0-.8-.6"/><path class="cls-1" d="M89.7,53.3a3.26,3.26,0,0,0,.2,1.2h-1a3,3,0,0,0,.2-1.2v-4a3.42,3.42,0,0,0-1.8.4l.3-.8h4.1a3.39,3.39,0,0,0-.3.8,3.81,3.81,0,0,0-1.5-.3v3.9Z"/><path class="cls-1" d="M95.1,49.6a5.56,5.56,0,0,0-1.9-.3v2.2h1.9l-.5.8a5.77,5.77,0,0,0-1.4-.3v2.2a5,5,0,0,0,2.6-.5l-.5,1h-3a2.5,2.5,0,0,0,.3-1.3V50.3a5.85,5.85,0,0,0-.2-1.3h3.2Z"/><path class="cls-1" d="M96.8,50a2.34,2.34,0,0,0-.2-1.2h1.5a2.62,2.62,0,0,1,1.3.6,1.53,1.53,0,0,1,.4,1,1.62,1.62,0,0,1-.9,1.4l-.5.3a22.67,22.67,0,0,0,2.1,2.5h-.7a16.61,16.61,0,0,1-1.4-1.3l-1-1.3v.9a4.68,4.68,0,0,0,.2,1.7h-1a3.46,3.46,0,0,0,.2-1.7Zm.7,1.9a4.57,4.57,0,0,0,1.4-.5,1.14,1.14,0,0,0,.3-.7,1.38,1.38,0,0,0-.6-1.1,1.56,1.56,0,0,0-1-.3v1.2Z"/><path class="cls-1" d="M102.1,53.5a2.17,2.17,0,0,0,.2,1h-1.1a2.74,2.74,0,0,0,.2-1.2V50a2.55,2.55,0,0,0-.2-1.3h1.1a1.82,1.82,0,0,0-.2,1.1Z"/><path class="cls-1" d="M106.2,54.6a2.9,2.9,0,0,1,0-5.8,3.15,3.15,0,0,1,3.1,2.9,2.49,2.49,0,0,1-1,2.1,4.47,4.47,0,0,1-1.4.7,1.7,1.7,0,0,1-.7.1m2.4-2.7a2.56,2.56,0,0,0-2.6-2.5,2,2,0,0,0-2.1,2.2,2.41,2.41,0,0,0,2.6,2.4,3.26,3.26,0,0,0,1.4-.4,2.49,2.49,0,0,0,.7-1.7"/><path class="cls-1" d="M113.2,50.1a3.18,3.18,0,0,0-.2-1.3h.9a3,3,0,0,1,3.3,2.9,2.52,2.52,0,0,1-.9,2,3.23,3.23,0,0,1-2,.8H113a2.54,2.54,0,0,0,.2-1.2Zm.6,4a2.27,2.27,0,0,0,1.6-.5,2.3,2.3,0,0,0,1-1.8,2.5,2.5,0,0,0-2.6-2.5Z"/><path class="cls-1" d="M120.9,49.6a5.56,5.56,0,0,0-1.9-.3v2.2h1.9l-.4.8a5.77,5.77,0,0,0-1.4-.3v2.2a5,5,0,0,0,2.6-.5l-.5,1h-3a2.5,2.5,0,0,0,.3-1.3V50.3a5.85,5.85,0,0,0-.2-1.3h3.2Z"/><path class="cls-1" d="M129.6,54.2a6.09,6.09,0,0,1-1.9.4,2.89,2.89,0,0,1-2.9-2.9,3,3,0,0,1,3.3-3,4.64,4.64,0,0,1,1.4.2v1a2.71,2.71,0,0,0-1.7-.7,2.3,2.3,0,0,0-2.2,2.5,2.08,2.08,0,0,0,2.2,2.3,3.67,3.67,0,0,0,2-.8Z"/><path class="cls-1" d="M135.1,53.3a2.36,2.36,0,0,0,.2,1.3h-.8v-.8a3.33,3.33,0,0,1-1.9.9A2.39,2.39,0,0,1,131,54a1.33,1.33,0,0,1-.3-.9V50.3a1.8,1.8,0,0,0-.3-1.2h1.1a3.32,3.32,0,0,0-.2,1.4V52a5.28,5.28,0,0,0,.1,1.2c.3.8,1.3.8,1.5.8a1.66,1.66,0,0,0,1.5-.9,2,2,0,0,0,.1-.8V50.9a5,5,0,0,0-.2-2h1a4,4,0,0,0-.2,1.8v2.6Z"/><path class="cls-1" d="M137.5,53.1v1a7.31,7.31,0,0,0,2.3-.4l-.4.9h-2.7a3.57,3.57,0,0,0,.2-1.5v-3a3.26,3.26,0,0,0-.2-1.2h1.1a3.18,3.18,0,0,0-.2,1.4v2.8Z"/><path class="cls-1" d="M141.7,53.3a3.26,3.26,0,0,0,.2,1.2h-1a3,3,0,0,0,.2-1.2v-4a3.42,3.42,0,0,0-1.8.4l.3-.8h4.1a3.39,3.39,0,0,0-.3.8,3.81,3.81,0,0,0-1.5-.3v3.9Z"/><path class="cls-1" d="M149,53.3a2.36,2.36,0,0,0,.2,1.3h-.8v-.8a3.33,3.33,0,0,1-1.9.9A1.94,1.94,0,0,1,145,54a1.33,1.33,0,0,1-.3-.9V50.3a1.8,1.8,0,0,0-.3-1.2h1.1a3.32,3.32,0,0,0-.2,1.4V52a5.28,5.28,0,0,0,.1,1.2c.3.8,1.3.8,1.5.8a1.66,1.66,0,0,0,1.5-.9,2,2,0,0,0,.1-.8V50.9a5,5,0,0,0-.2-2h1a4,4,0,0,0-.2,1.8v2.6Z"/><path class="cls-1" d="M150.7,50a2.34,2.34,0,0,0-.2-1.2H152a2.62,2.62,0,0,1,1.3.6,1.53,1.53,0,0,1,.4,1,1.62,1.62,0,0,1-.9,1.4l-.5.3a22.67,22.67,0,0,0,2.1,2.5h-.7a16.61,16.61,0,0,1-1.4-1.3l-1-1.3v.9a4.68,4.68,0,0,0,.2,1.7h-1a3.46,3.46,0,0,0,.2-1.7Zm.6,1.9a4.57,4.57,0,0,0,1.4-.5,1.14,1.14,0,0,0,.3-.7,1.38,1.38,0,0,0-.6-1.1,1.56,1.56,0,0,0-1-.3v1.2Z"/><path class="cls-1" d="M159.3,52.2a13.76,13.76,0,0,0,.8,1.7,7.23,7.23,0,0,1,.4.7h-1.3v-.3a3,3,0,0,0-.2-1l-.3-.8h-2.1l-.3.6a14.13,14.13,0,0,0-.6,1.5h-1.1a15.38,15.38,0,0,0,1.6-2.6l1.6-3.2Zm-.8-.3-.8-1.8-.9,1.8Z"/><path class="cls-1" d="M165.3,51.7v2a1.08,1.08,0,0,0,.2.8h-1a2.51,2.51,0,0,0,.2-1V51.7c-.3-.5-1-1.7-1.3-2.1a3.78,3.78,0,0,0-.7-.8h1.2a8.11,8.11,0,0,0,1.3,2.3c.2-.3.3-.5.5-.8l.5-.8a1.42,1.42,0,0,0,.2-.6v-.1h1.2a6.47,6.47,0,0,0-.8.9Z"/><path class="cls-1" d="M171.2,49.9a2.68,2.68,0,0,0-.2-1.1h1.1a2.27,2.27,0,0,0-.3,1.3v4a1.94,1.94,0,0,1-.9,1.7l-.7.1c.6-.5,1-.9,1-2.9Z"/><path class="cls-1" d="M177.9,53.3a2.36,2.36,0,0,0,.2,1.3h-.8v-.8a3.33,3.33,0,0,1-1.9.9,1.94,1.94,0,0,1-1.5-.7,1.33,1.33,0,0,1-.3-.9V50.3a1.8,1.8,0,0,0-.3-1.2h1.1a3.32,3.32,0,0,0-.2,1.4V52a5.28,5.28,0,0,0,.1,1.2c.3.8,1.3.8,1.5.8a1.66,1.66,0,0,0,1.5-.9,2,2,0,0,0,.1-.8V50.9a5,5,0,0,0-.2-2h1a4,4,0,0,0-.2,1.8v2.6Z"/><path class="cls-1" d="M181.9,54.6h-.4L180.1,51a6.79,6.79,0,0,0-1.2-2.2h1.2a3.87,3.87,0,0,0,.1.9s.8,2.2,1.5,3.7c.4-.7.9-2,1.2-2.6a6.4,6.4,0,0,0,.5-1.7v-.3h1.1a5.92,5.92,0,0,0-.4.6c-.1.1-.6,1.3-.7,1.5Z"/><path class="cls-1" d="M188.1,49.6a5.56,5.56,0,0,0-1.9-.3v2.2h1.9l-.4.8a5.77,5.77,0,0,0-1.4-.3v2.2a5,5,0,0,0,2.6-.5l-.5,1h-3a2.5,2.5,0,0,0,.3-1.3V50.3a5.85,5.85,0,0,0-.2-1.3h3.2Z"/><path class="cls-1" d="M193,52.3c.3.4.6.7.9,1.1V50.6a2.94,2.94,0,0,0-.3-1.7h1a4.39,4.39,0,0,0-.2,1.5v3.2a3.4,3.4,0,0,0,.1,1h-.7c-.2-.2-.3-.5-.5-.7l-3-3.8V53a3.48,3.48,0,0,0,.2,1.6h-.9a6,6,0,0,0,.2-1.2V49.6l-.6-.6h1.2a6.13,6.13,0,0,0,.4.6Z"/><path class="cls-1" d="M197.9,53.3a3.26,3.26,0,0,0,.2,1.2h-1a3,3,0,0,0,.2-1.2v-4a3.42,3.42,0,0,0-1.8.4l.3-.8h4.1a3.39,3.39,0,0,0-.3.8,3.81,3.81,0,0,0-1.5-.3v3.9Z"/><path class="cls-1" d="M205.2,53.3a2.36,2.36,0,0,0,.2,1.3h-.8v-.8a3.33,3.33,0,0,1-1.9.9,2.39,2.39,0,0,1-1.6-.7,1.33,1.33,0,0,1-.3-.9V50.3a1.8,1.8,0,0,0-.3-1.2h1.1a3.32,3.32,0,0,0-.2,1.4V52a5.28,5.28,0,0,0,.1,1.2c.3.8,1.3.8,1.5.8a1.66,1.66,0,0,0,1.5-.9,2,2,0,0,0,.1-.8V50.9a5,5,0,0,0-.2-2h1a4,4,0,0,0-.2,1.8v2.6Z"/><path class="cls-1" d="M206.9,50.1a3.18,3.18,0,0,0-.2-1.3h.9a3,3,0,0,1,3.3,2.9,2.52,2.52,0,0,1-.9,2,3.23,3.23,0,0,1-2,.8h-1.3a2.54,2.54,0,0,0,.2-1.2Zm.7,4a2.27,2.27,0,0,0,1.6-.5,2.3,2.3,0,0,0,1-1.8,2.5,2.5,0,0,0-2.6-2.5Z"/><rect class="cls-1" x="63.4" y="28.9" width="149.2" height="0.9"/><rect class="cls-1" x="63.4" y="45.4" width="149.2" height="0.9"/></svg>