<svg id="Capa_1" data-name="Capa 1" xmlns="http://www.w3.org/2000/svg" xmlns:xlink="http://www.w3.org/1999/xlink" viewBox="0 0 152.61 81.65"><defs><style>.cls-1{fill:#fff;}.cls-2{fill:url(#linear-gradient);}.cls-3{fill:url(#linear-gradient-2);}.cls-4{fill:url(#linear-gradient-3);}.cls-5{fill:url(#linear-gradient-4);}.cls-6{fill:url(#linear-gradient-5);}.cls-7{fill:url(#linear-gradient-6);}.cls-8{fill:url(#linear-gradient-7);}.cls-9{fill:url(#linear-gradient-8);}</style><linearGradient id="linear-gradient" x1="39.13" y1="9.17" x2="39.13" y2="77.77" gradientTransform="matrix(1, 0, 0, -1, 0, 83.95)" gradientUnits="userSpaceOnUse"><stop offset="0" stop-color="#0680c6"/><stop offset="1" stop-color="#001e7d"/></linearGradient><linearGradient id="linear-gradient-2" x1="-5393.19" y1="-3748.45" x2="-5393.19" y2="-3816.97" gradientTransform="matrix(-0.71, -0.71, -0.71, 0.71, -6449.17, -1098.27)" gradientUnits="userSpaceOnUse"><stop offset="0" stop-color="#cbcbcb"/><stop offset="1" stop-color="#fff"/></linearGradient><linearGradient id="linear-gradient-3" x1="-2681.4" y1="-4218.81" x2="-2681.4" y2="-4287.41" gradientTransform="matrix(0, -1, -1, 0, -4213.99, -2640.93)" gradientUnits="userSpaceOnUse"><stop offset="0" stop-color="#8b1919"/><stop offset="1" stop-color="#c6000a"/></linearGradient><linearGradient id="linear-gradient-4" x1="-431.29" y1="-2633.99" x2="-431.29" y2="-2702.51" gradientTransform="matrix(0.71, -0.71, -0.71, -0.71, -1542.66, -2151.24)" xlink:href="#linear-gradient-3"/><linearGradient id="linear-gradient-5" x1="-2681.01" y1="-4218.81" x2="-2681.01" y2="-4287.31" gradientTransform="matrix(0, -1, -1, 0, -4213.99, -2640.93)" gradientUnits="userSpaceOnUse"><stop offset="0" stop-color="#c6000a"/><stop offset="1" stop-color="#8b1919"/></linearGradient><linearGradient id="linear-gradient-6" x1="-430.88" y1="-2633.99" x2="-430.88" y2="-2702.58" gradientTransform="matrix(0.71, -0.71, -0.71, -0.71, -1542.66, -2151.24)" xlink:href="#linear-gradient-5"/><linearGradient id="linear-gradient-7" x1="39.52" y1="9.17" x2="39.52" y2="77.77" gradientTransform="matrix(1, 0, 0, -1, 0, 83.95)" gradientUnits="userSpaceOnUse"><stop offset="0" stop-color="#001e7d"/><stop offset="1" stop-color="#0680c6"/></linearGradient><linearGradient id="linear-gradient-8" x1="-5392.74" y1="-3748.45" x2="-5392.74" y2="-3816.97" gradientTransform="matrix(-0.71, -0.71, -0.71, 0.71, -6449.17, -1098.27)" gradientUnits="userSpaceOnUse"><stop offset="0" stop-color="#fff"/><stop offset="1" stop-color="#cbcbcb"/></linearGradient></defs><path class="cls-1" d="M75,59.37a1.58,1.58,0,0,1-1.6-1.6,1.69,1.69,0,0,1,1.7-1.7,2.1,2.1,0,0,1,1.1.4l.1.1v.1l-.1.2H76a1.61,1.61,0,0,0-.9-.3,1.2,1.2,0,1,0,0,2.4,1.48,1.48,0,0,0,.7-.1c.1,0,.1,0,.1-.1V58c0-.1,0-.1.1-.1h.3c.1,0,.1,0,.1.1v1.1c0,.1,0,.1-.1.1A6.88,6.88,0,0,1,75,59.37Zm5.1-1.7a1.69,1.69,0,0,1-1.7,1.7,1.52,1.52,0,0,1-1.6-1.6,1.69,1.69,0,0,1,1.7-1.7A1.52,1.52,0,0,1,80.13,57.67Zm-.5,0a1.2,1.2,0,1,0-1.2,1.2A1.16,1.16,0,0,0,79.63,57.67Zm2.2-1.6q1.2,0,1.2.9a.67.67,0,0,1-.5.7.75.75,0,0,1,.6.7c0,.7-.5.9-1.3.9h-.9c-.1,0-.1,0-.1-.1v-3c0-.1,0-.1.1-.1Zm-.6,1.3h0l.6.1c.5,0,.7-.2.7-.5s-.3-.5-.8-.5h-.5a.1.1,0,0,0-.1.1v.8Zm.6.5h-.5a.1.1,0,0,0-.1.1v.9a.1.1,0,0,0,.1.1h.5c.6,0,.8-.1.8-.5S82.33,57.87,81.83,57.87Zm2,1.4c-.1,0-.1,0-.1-.1v-3c0-.1,0-.1.1-.1h.3c.1,0,.1,0,.1.1v3c0,.1,0,.1-.1.1Zm3.1-.1c0,.1,0,.1-.1.1h-1.7c-.1,0-.1,0-.1-.1v-3c0-.1,0-.1.1-.1h1.7c.1,0,.1,0,.1.1v.2c0,.1,0,.1-.1.1h-1.3a.1.1,0,0,0-.1.1v.8a.1.1,0,0,0,.1.1h1.2c.1,0,.1,0,.1.1v.2c0,.1,0,.1-.1.1h-1.2a.1.1,0,0,0-.1.1v.9a.1.1,0,0,0,.1.1h1.3c.1,0,.1,0,.1.1Zm.8.1c-.1,0-.1,0-.1-.1v-3c0-.1,0-.1.1-.1h.9c.9,0,1.3.3,1.3,1a1,1,0,0,1-.6.9l.8,1.2v.1a.1.1,0,0,1-.1.1h-.3c-.1,0-.1,0-.2-.1l-.8-1.3v-.1h.1c.5-.1.7-.3.7-.6s-.3-.6-.8-.6h-.6a.1.1,0,0,0-.1.1v2.6c0,.1,0,.1-.1.1h-.2Zm5.4-3.2c.1,0,.1,0,.1.1v3c0,.1,0,.2-.1.2s-.1,0-.2-.1L91,57.07v2.2c0,.1,0,.1-.1.1h-.3c-.1,0-.1,0-.1-.1v-3c0-.1,0-.2.1-.2s.1,0,.2.1l1.9,2.2v-2.2c0-.1,0-.1.1-.1Zm4,1.6a1.69,1.69,0,0,1-1.7,1.7,1.52,1.52,0,0,1-1.6-1.6,1.69,1.69,0,0,1,1.7-1.7A1.52,1.52,0,0,1,97.13,57.67Zm-.5,0a1.2,1.2,0,1,0-1.2,1.2A1.1,1.1,0,0,0,96.63,57.67Zm3.5-1.6a1.5,1.5,0,0,1,1.7,1.6,1.58,1.58,0,0,1-1.8,1.6h-.9c-.1,0-.1,0-.1-.1v-3c0-.1,0-.1.1-.1Zm-.6,2.7h0l.5.1a1.2,1.2,0,1,0,0-2.4h-.5a.1.1,0,0,0-.1.1v2.2Zm5,.4c0,.1,0,.1-.1.1h-1.7c-.1,0-.1,0-.1-.1v-3c0-.1,0-.1.1-.1h1.7c.1,0,.1,0,.1.1v.2c0,.1,0,.1-.1.1h-1.3a.1.1,0,0,0-.1.1v.8a.1.1,0,0,0,.1.1h1.2c.1,0,.1,0,.1.1v.2c0,.1,0,.1-.1.1h-1.2a.1.1,0,0,0-.1.1v.9a.1.1,0,0,0,.1.1h1.3c.1,0,.1,0,.1.1Zm2.5-.3c.1,0,.1,0,.1.1v.2c0,.1,0,.1-.1.1h-1.8c-.1,0-.1,0-.1-.1v-3c0-.1,0-.1.1-.1h.3c.1,0,.1,0,.1.1v2.6a.1.1,0,0,0,.1.1Zm3-2.8q1.2,0,1.2.9a.67.67,0,0,1-.5.7.75.75,0,0,1,.6.7c0,.7-.5.9-1.3.9h-.9c-.1,0-.1,0-.1-.1v-3c0-.1,0-.1.1-.1Zm-.5,1.3h0l.6.1c.5,0,.7-.2.7-.5s-.3-.5-.8-.5h-.5a.1.1,0,0,0-.1.1v.8Zm.6.5h-.5a.1.1,0,0,0-.1.1v.9a.1.1,0,0,0,.1.1h.5c.6,0,.8-.1.8-.5S110.63,57.87,110.13,57.87Zm1.9,1.4c-.1,0-.1,0-.1-.1v-3c0-.1,0-.1.1-.1h.3c.1,0,.1,0,.1.1v3c0,.1,0,.1-.1.1Zm3.7-.8h0l.2.2v.1a.1.1,0,0,1-.1.1,1.59,1.59,0,0,1-1.2.4,1.52,1.52,0,0,1-1.6-1.6,1.69,1.69,0,0,1,1.7-1.7,2.45,2.45,0,0,1,1.2.4v.2l-.1.2-.1.1h-.1a1.61,1.61,0,0,0-.9-.3,1.2,1.2,0,0,0,0,2.4,3.09,3.09,0,0,0,1-.5Zm2.7.7c0,.1,0,.1-.1.1h-1.7c-.1,0-.1,0-.1-.1v-3c0-.1,0-.1.1-.1h1.7c.1,0,.1,0,.1.1v.2c0,.1,0,.1-.1.1H117a.1.1,0,0,0-.1.1v.8a.1.1,0,0,0,.1.1h1.2c.1,0,.1,0,.1.1v.2c0,.1,0,.1-.1.1H117a.1.1,0,0,0-.1.1v.9a.1.1,0,0,0,.1.1h1.3c.1,0,.1,0,.1.1Zm3.2-3.1c.1,0,.1,0,.1.1v3c0,.1,0,.2-.1.2s-.1,0-.2-.1l-1.9-2.2v2.2c0,.1,0,.1-.1.1h-.3c-.1,0-.1,0-.1-.1v-3c0-.1,0-.2.1-.2s.1,0,.2.1l1.9,2.2v-2.2c0-.1,0-.1.1-.1Zm2.1.4h0l-.1,2.7c0,.1,0,.1-.1.1h-.3c-.1,0-.1,0-.1-.1v-2.6a.1.1,0,0,0-.1-.1h-.9c-.1,0-.1,0-.1-.1v-.2c0-.1,0-.1.1-.1h2.3c.1,0,.1,0,.1.1v.2c0,.1,0,.1-.1.1Zm3.5,2.7c0,.1,0,.1-.1.1h-1.7c-.1,0-.1,0-.1-.1v-3c0-.1,0-.1.1-.1h1.7c.1,0,.1,0,.1.1v.2c0,.1,0,.1-.1.1h-1.3a.1.1,0,0,0-.1.1v.8a.1.1,0,0,0,.1.1H127c.1,0,.1,0,.1.1v.2c0,.1,0,.1-.1.1h-1.2a.1.1,0,0,0-.1.1v.9a.1.1,0,0,0,.1.1h1.3c.1,0,.1,0,.1.1Zm3.2-3.1c.1,0,.1,0,.1.1v3c0,.1,0,.2-.1.2s-.1,0-.2-.1l-1.9-2.2v2.2c0,.1,0,.1-.1.1h-.3c-.1,0-.1,0-.1-.1v-3c0-.1,0-.2.1-.2s.1,0,.2.1l1.9,2.2v-2.2c0-.1,0-.1.1-.1Zm.8,3.2H131c-.1,0-.1,0-.1-.1v-.1l1.4-2.9c.1-.2.1-.2.2-.2s.1,0,.2.2l1.4,2.9v.1a.1.1,0,0,1-.1.1h-.3c-.1,0-.1,0-.2-.1l-1.1-2.3-1.1,2.3C131.43,59.27,131.33,59.27,131.23,59.27Zm3.4,0c-.1,0-.1,0-.1-.1v-3c0-.1,0-.1.1-.1h.9c.9,0,1.3.3,1.3,1a1,1,0,0,1-.6.9l.8,1.2v.1a.1.1,0,0,1-.1.1h-.3c-.1,0-.1,0-.2-.1l-.8-1.3v-.1h.1c.5-.1.7-.3.7-.6s-.3-.6-.8-.6h-.4a.1.1,0,0,0-.1.1v2.6c0,.1,0,.1-.1.1h-.4Zm3,0c-.1,0-.1,0-.1-.1v-3c0-.1,0-.1.1-.1h.3c.1,0,.1,0,.1.1v3c0,.1,0,.1-.1.1Zm4.3-1.6a1.69,1.69,0,0,1-1.7,1.7,1.52,1.52,0,0,1-1.6-1.6,1.69,1.69,0,0,1,1.7-1.7A1.58,1.58,0,0,1,141.93,57.67Zm-.5,0a1.2,1.2,0,1,0-1.2,1.2A1.16,1.16,0,0,0,141.43,57.67Z"/><path class="cls-1" d="M76.53,51.77h0l.3.4v.1a.1.1,0,0,1-.1.1,2.39,2.39,0,0,1-1.4.5,2,2,0,0,1-2-2,2,2,0,0,1,2.1-2,2.39,2.39,0,0,1,1.4.5l.1.1v.1l-.2.3-.1.1h-.1a1.78,1.78,0,0,0-1-.4,1.18,1.18,0,0,0-1.2,1.3,1.24,1.24,0,0,0,1.2,1.3,1.28,1.28,0,0,0,1-.4Zm4.7-.9a2,2,0,1,1-2-2A2,2,0,0,1,81.23,50.87Zm-.8,0a1.2,1.2,0,1,0-2.4,0,1.24,1.24,0,0,0,1.2,1.3A1.18,1.18,0,0,0,80.43,50.87Zm4-1.4h0l-.3.5-.1.1h-.1a1.61,1.61,0,0,0-.9-.3c-.4,0-.6.2-.6.4s.2.4.7.5c.8.2,1.2.5,1.2,1.1s-.6,1.2-1.5,1.2a2.39,2.39,0,0,1-1.4-.5l-.1-.1v-.1l.2-.4.1-.1h.1a1.78,1.78,0,0,0,1,.4c.4,0,.7-.2.7-.4s-.2-.4-.8-.5c-.8-.2-1.2-.5-1.2-1.1a1.27,1.27,0,0,1,1.4-1.2,1.67,1.67,0,0,1,1.6.5Zm2.5.2h0l-.1,3c0,.1,0,.1-.1.1h-.6c-.1,0-.1,0-.1-.1v-2.9a.1.1,0,0,0-.1-.1H85c-.1,0-.1,0-.1-.1v-.5c0-.1,0-.1.1-.1h2.8c.1,0,.1,0,.1.1v.5c0,.1,0,.1-.1.1ZM89,52c-.1,0-.1,0-.1.1l-.3.7c0,.1-.1.1-.2.1h-.5c-.1,0-.1,0-.1-.1v-.1l1.7-3.5q.15-.3.3-.3t.3.3l1.7,3.5v.1a.1.1,0,0,1-.1.1h-.6c-.1,0-.2,0-.2-.1l-.3-.7c0-.1,0-.1-.1-.1Zm1.1-.8-.5-1-.5,1h1c0,.1.1.1,0,0Zm4.3,1.5c0,.1,0,.1-.1.1h-.5c-.1,0-.1,0-.1-.1v-3.6c0-.1,0-.1.1-.1H95c1.1,0,1.6.4,1.6,1.2a1.23,1.23,0,0,1-.7,1.1l.9,1.4v.1a.1.1,0,0,1-.1.1h-.6c-.1,0-.2,0-.3-.2l-.7-1.1a.1.1,0,0,0-.1-.1h-.5c-.1,0-.1,0-.1.1v1.1Zm0-1.9h0l.6.1c.5,0,.8-.2.8-.6s-.3-.6-.8-.6h-.5a.1.1,0,0,0-.1.1Zm3,2.1c-.1,0-.1,0-.1-.1v-3.6c0-.1,0-.1.1-.1h.5c.1,0,.1,0,.1.1v3.6c0,.1,0,.1-.1.1Zm4.5-1.1h0l.3.4v.1a.1.1,0,0,1-.1.1,2.39,2.39,0,0,1-1.4.5,2,2,0,0,1-2-2,2,2,0,0,1,2.1-2,2.39,2.39,0,0,1,1.4.5l.1.1v.1l-.2.3-.1.1h-.1a1.78,1.78,0,0,0-1-.4,1.18,1.18,0,0,0-1.2,1.3,1.24,1.24,0,0,0,1.2,1.3,1.28,1.28,0,0,0,1-.4Zm1.9.2c-.1,0-.1,0-.1.1l-.3.7c0,.1-.1.1-.2.1h-.5c-.1,0-.1,0-.1-.1v-.1l1.7-3.5q.15-.3.3-.3t.3.3l1.7,3.5v.1a.1.1,0,0,1-.1.1H106c-.1,0-.2,0-.2-.1l-.3-.7c0-.1,0-.1-.1-.1Zm1.1-.8-.5-1-.5,1h1c0,.1.1.1,0,0Z"/><path class="cls-1" d="M73.43,64.67h0c-.1-.1-.1-.1,0-.1l.7-.8c.3-.3.4-.5.4-.7a.43.43,0,0,0-.4-.4c-.2,0-.3.1-.5.2h-.2l-.1-.1v-.2a.91.91,0,0,1,.7-.3c.4,0,.7.2.7.6a1,1,0,0,1-.4.8l-.5.5h.9c.1,0,.1,0,.1.1v.2c0,.1,0,.1-.1.1h-1.3Zm3.6-1.1c0,.7-.4,1.1-.9,1.1s-.9-.4-.9-1.1.4-1.2.9-1.2A1,1,0,0,1,77,63.57Zm-.3,0c0-.5-.2-.8-.6-.8s-.6.3-.6.8.2.8.6.8S76.73,64.07,76.73,63.57Zm1,1.1h0l-.1-1.9h-.3c-.1,0-.1,0-.1-.1v-.2c0-.1,0-.1.1-.1h.6c.1,0,.1,0,.1.1v2.1c0,.1,0,.1-.1.1Zm2-1.2a.66.66,0,0,1,.4.5.71.71,0,0,1-.8.7c-.5,0-.8-.2-.8-.6s.1-.5.4-.5a.55.55,0,0,1-.3-.5c0-.4.3-.6.7-.6s.7.2.7.6C80,63.27,79.93,63.47,79.73,63.47Zm-.9.6a.46.46,0,0,0,.5.4c.3,0,.5-.1.5-.4a.46.46,0,0,0-.5-.4C79.13,63.67,78.83,63.77,78.83,64.07Zm.5-.7c.2,0,.4-.1.4-.3s-.2-.3-.4-.3-.4.1-.4.3S79.13,63.37,79.33,63.37Zm2.8.2a.3.3,0,1,1-.3-.3A.27.27,0,0,1,82.13,63.57Zm1.5,1.1h0c-.1-.1-.1-.1,0-.1l.7-.8c.3-.3.4-.5.4-.7a.43.43,0,0,0-.4-.4c-.2,0-.3.1-.5.2h-.2l-.1-.1v-.2a.91.91,0,0,1,.7-.3c.4,0,.7.2.7.6a1,1,0,0,1-.4.8l-.5.5h.9c.1,0,.1,0,.1.1v.2c0,.1,0,.1-.1.1h-1.3Zm3.6-1.1c0,.7-.4,1.1-.9,1.1s-.9-.4-.9-1.1.4-1.2.9-1.2A1,1,0,0,1,87.23,63.57Zm-.3,0c0-.5-.2-.8-.6-.8s-.6.3-.6.8.2.8.6.8S86.93,64.07,86.93,63.57Zm.6,1.1h0c-.1-.1-.1-.1,0-.1l.7-.8c.3-.3.4-.5.4-.7a.43.43,0,0,0-.4-.4c-.2,0-.3.1-.5.2h-.2l-.1-.1v-.2a.91.91,0,0,1,.7-.3c.4,0,.7.2.7.6a1,1,0,0,1-.4.8l-.5.5h.9c.1,0,.1,0,.1.1v.2c0,.1,0,.1-.1.1h-1.3Zm1.8,0h0c-.1-.1-.1-.1,0-.1l.7-.8c.3-.3.4-.5.4-.7a.43.43,0,0,0-.4-.4c-.2,0-.3.1-.5.2h-.2l-.1-.1v-.2a.91.91,0,0,1,.7-.3c.4,0,.7.2.7.6a1,1,0,0,1-.4.8l-.5.5h.9c.1,0,.1,0,.1.1v.2c0,.1,0,.1-.1.1h-1.3Z"/><path class="cls-2" d="M51.13,40.47c0,18.9-12,34.3-12,34.3s-12-15.4-12-34.3,12-34.3,12-34.3S51.13,21.57,51.13,40.47Z"/><path class="cls-3" d="M30.63,32c13.4-13.4,32.7-15.7,32.7-15.7s-2.4,19.3-15.7,32.7-32.8,15.7-32.8,15.7S17.23,45.37,30.63,32Z"/><path class="cls-4" d="M39.13,28.47c18.9,0,34.3,12,34.3,12s-15.3,12-34.3,12-34.3-12-34.3-12S20.13,28.47,39.13,28.47Z"/><path class="cls-5" d="M47.63,32c13.4,13.4,15.7,32.7,15.7,32.7S44,62.37,30.63,49s-15.8-32.7-15.8-32.7S34.23,18.57,47.63,32Z"/><path class="cls-6" d="M4.83,40.47c11.7,0,22,4.6,28.1,8a24.6,24.6,0,0,0,18,2.5,65,65,0,0,0,22.4-10.5s-15.3-12-34.3-12S4.83,40.47,4.83,40.47Z"/><path class="cls-7" d="M14.83,16.27c8.3,8.2,12.3,18.7,14.3,25.6a24.46,24.46,0,0,0,11,14.4,64.7,64.7,0,0,0,23.3,8.4s-2.5-19.3-15.8-32.7S14.83,16.27,14.83,16.27Z"/><path class="cls-8" d="M39.13,6.17c0,11.7-4.6,22-8,28.1a24.6,24.6,0,0,0-2.5,18,66.1,66.1,0,0,0,10.5,22.5s12-15.3,12-34.3S39.13,6.17,39.13,6.17Z"/><path class="cls-9" d="M14.83,64.67c8.2-8.2,18.7-12.3,25.6-14.2a24.46,24.46,0,0,0,14.4-11,64.7,64.7,0,0,0,8.4-23.3S44,18.57,30.63,32,14.83,64.67,14.83,64.67Z"/></svg>