<?xml version="1.0" encoding="utf-8"?>
<!-- Generator: Adobe Illustrator 25.2.3, SVG Export Plug-In . SVG Version: 6.00 Build 0)  -->
<svg version="1.1" id="Capa_1" xmlns="http://www.w3.org/2000/svg" xmlns:xlink="http://www.w3.org/1999/xlink" x="0px" y="0px"
	 viewBox="0 0 152.6 81.7" style="enable-background:new 0 0 152.6 81.7;" xml:space="preserve">
<style type="text/css">
	.st0{fill:#4B4B4B;}
	.st1{fill:url(#SVGID_1_);}
	.st2{fill:url(#SVGID_2_);}
	.st3{fill:url(#SVGID_3_);}
	.st4{fill:url(#SVGID_4_);}
	.st5{fill:url(#SVGID_5_);}
	.st6{fill:url(#SVGID_6_);}
	.st7{fill:url(#SVGID_7_);}
	.st8{fill:url(#SVGID_8_);}
</style>
<g>
	<path class="st0" d="M75,59.3c-0.9,0-1.6-0.7-1.6-1.6c0-1,0.8-1.7,1.7-1.7c0.4,0,0.8,0.2,1.1,0.4c0,0,0.1,0.1,0.1,0.1
		c0,0,0,0,0,0.1l-0.1,0.2c0,0,0,0-0.1,0c0,0,0,0-0.1,0c-0.3-0.2-0.6-0.3-0.9-0.3c-0.7,0-1.2,0.5-1.2,1.2c0,0.7,0.5,1.2,1.2,1.2
		c0.3,0,0.5,0,0.7-0.1c0.1,0,0.1,0,0.1-0.1v-0.8c0-0.1,0-0.1,0.1-0.1h0.3c0.1,0,0.1,0,0.1,0.1v1.1c0,0.1,0,0.1-0.1,0.1
		C75.9,59.2,75.5,59.3,75,59.3z M80.2,57.7c0,0.9-0.7,1.7-1.7,1.7c-0.9,0-1.7-0.7-1.6-1.6c0-0.9,0.7-1.7,1.7-1.7
		C79.4,56,80.2,56.7,80.2,57.7z M79.7,57.7c0-0.7-0.5-1.2-1.2-1.2c-0.7,0-1.2,0.5-1.2,1.2c0,0.7,0.5,1.2,1.2,1.2
		C79.2,58.9,79.7,58.4,79.7,57.7z M81.8,56.1c0.8,0,1.2,0.3,1.2,0.9c0,0.4-0.2,0.6-0.5,0.7c0.3,0.1,0.6,0.3,0.6,0.7
		c0,0.7-0.5,0.9-1.3,0.9h-0.9c-0.1,0-0.1,0-0.1-0.1v-3c0-0.1,0-0.1,0.1-0.1H81.8z M81.3,57.4C81.3,57.4,81.3,57.4,81.3,57.4l0.6,0.1
		c0.5,0,0.7-0.2,0.7-0.5c0-0.3-0.3-0.5-0.8-0.5h-0.5c0,0-0.1,0-0.1,0.1V57.4z M81.9,57.9h-0.5c0,0-0.1,0-0.1,0.1v0.9
		c0,0,0,0.1,0.1,0.1h0.5c0.6,0,0.8-0.1,0.8-0.5C82.6,58,82.4,57.9,81.9,57.9z M83.8,59.3c-0.1,0-0.1,0-0.1-0.1v-3
		c0-0.1,0-0.1,0.1-0.1h0.3c0.1,0,0.1,0,0.1,0.1v3c0,0.1,0,0.1-0.1,0.1H83.8z M87,59.2c0,0.1,0,0.1-0.1,0.1h-1.7
		c-0.1,0-0.1,0-0.1-0.1v-3c0-0.1,0-0.1,0.1-0.1h1.7c0.1,0,0.1,0,0.1,0.1v0.2c0,0.1,0,0.1-0.1,0.1h-1.3c0,0-0.1,0-0.1,0.1v0.8
		c0,0,0,0.1,0.1,0.1h1.2c0.1,0,0.1,0,0.1,0.1v0.2c0,0.1,0,0.1-0.1,0.1h-1.2c0,0-0.1,0-0.1,0.1v0.9c0,0,0,0.1,0.1,0.1h1.3
		c0.1,0,0.1,0,0.1,0.1V59.2z M87.8,59.3c-0.1,0-0.1,0-0.1-0.1v-3c0-0.1,0-0.1,0.1-0.1h0.9c0.9,0,1.3,0.3,1.3,1
		c0,0.4-0.2,0.7-0.6,0.9l0.8,1.2c0,0,0,0.1,0,0.1c0,0,0,0.1-0.1,0.1h-0.3c-0.1,0-0.1,0-0.2-0.1l-0.8-1.3c0,0,0,0,0-0.1
		c0,0,0,0,0.1,0c0.5-0.1,0.7-0.3,0.7-0.6c0-0.4-0.3-0.6-0.8-0.6h-0.4c0,0-0.1,0-0.1,0.1v2.6c0,0.1,0,0.1-0.1,0.1H87.8z M93.1,56.1
		c0.1,0,0.1,0,0.1,0.1v3c0,0.1,0,0.2-0.1,0.2c-0.1,0-0.1,0-0.2-0.1L91.1,57v2.2c0,0.1,0,0.1-0.1,0.1h-0.3c-0.1,0-0.1,0-0.1-0.1v-3
		c0-0.1,0-0.2,0.1-0.2c0.1,0,0.1,0,0.2,0.1l1.9,2.2v-2.2c0-0.1,0-0.1,0.1-0.1H93.1z M97.2,57.7c0,0.9-0.7,1.7-1.7,1.7
		c-0.9,0-1.7-0.7-1.6-1.6c0-0.9,0.7-1.7,1.7-1.7C96.5,56,97.2,56.7,97.2,57.7z M96.7,57.7c0-0.7-0.5-1.2-1.2-1.2
		c-0.7,0-1.2,0.5-1.2,1.2c0,0.7,0.5,1.2,1.2,1.2C96.2,58.9,96.7,58.4,96.7,57.7z M100.2,56.1c1.1,0,1.7,0.6,1.7,1.6
		c0,1-0.7,1.6-1.8,1.6h-0.9c-0.1,0-0.1,0-0.1-0.1v-3c0-0.1,0-0.1,0.1-0.1H100.2z M99.6,58.8C99.6,58.8,99.6,58.8,99.6,58.8l0.5,0.1
		c0.8,0,1.3-0.5,1.3-1.2c0-0.7-0.5-1.2-1.3-1.2h-0.5c0,0-0.1,0-0.1,0.1V58.8z M104.5,59.2c0,0.1,0,0.1-0.1,0.1h-1.7
		c-0.1,0-0.1,0-0.1-0.1v-3c0-0.1,0-0.1,0.1-0.1h1.7c0.1,0,0.1,0,0.1,0.1v0.2c0,0.1,0,0.1-0.1,0.1h-1.3c0,0-0.1,0-0.1,0.1v0.8
		c0,0,0,0.1,0.1,0.1h1.2c0.1,0,0.1,0,0.1,0.1v0.2c0,0.1,0,0.1-0.1,0.1h-1.2c0,0-0.1,0-0.1,0.1v0.9c0,0,0,0.1,0.1,0.1h1.3
		c0.1,0,0.1,0,0.1,0.1V59.2z M107.1,58.8c0.1,0,0.1,0,0.1,0.1v0.2c0,0.1,0,0.1-0.1,0.1h-1.8c-0.1,0-0.1,0-0.1-0.1v-3
		c0-0.1,0-0.1,0.1-0.1h0.3c0.1,0,0.1,0,0.1,0.1v2.6c0,0,0,0.1,0.1,0.1H107.1z M110.1,56.1c0.8,0,1.2,0.3,1.2,0.9
		c0,0.4-0.2,0.6-0.5,0.7c0.3,0.1,0.6,0.3,0.6,0.7c0,0.7-0.5,0.9-1.3,0.9h-0.9c-0.1,0-0.1,0-0.1-0.1v-3c0-0.1,0-0.1,0.1-0.1H110.1z
		 M109.5,57.4C109.5,57.4,109.5,57.4,109.5,57.4l0.6,0.1c0.5,0,0.7-0.2,0.7-0.5c0-0.3-0.3-0.5-0.8-0.5h-0.5c0,0-0.1,0-0.1,0.1V57.4z
		 M110.1,57.9h-0.5c0,0-0.1,0-0.1,0.1v0.9c0,0,0,0.1,0.1,0.1h0.5c0.6,0,0.8-0.1,0.8-0.5C110.9,58,110.6,57.9,110.1,57.9z
		 M112.1,59.3c-0.1,0-0.1,0-0.1-0.1v-3c0-0.1,0-0.1,0.1-0.1h0.3c0.1,0,0.1,0,0.1,0.1v3c0,0.1,0,0.1-0.1,0.1H112.1z M115.7,58.5
		C115.8,58.5,115.8,58.5,115.7,58.5l0.2,0.2c0,0,0,0,0,0.1c0,0,0,0.1-0.1,0.1c-0.3,0.3-0.7,0.4-1.2,0.4c-0.9,0-1.7-0.7-1.6-1.6
		c0-0.9,0.7-1.7,1.7-1.7c0.4,0,0.9,0.2,1.2,0.4c0,0,0,0,0,0.1c0,0,0,0,0,0.1l-0.1,0.2c0,0-0.1,0.1-0.1,0.1c0,0,0,0-0.1,0
		c-0.3-0.2-0.6-0.3-0.9-0.3c-0.7,0-1.2,0.5-1.2,1.2c0,0.7,0.5,1.2,1.2,1.2C115.1,58.9,115.4,58.8,115.7,58.5
		C115.7,58.5,115.7,58.5,115.7,58.5z M118.5,59.2c0,0.1,0,0.1-0.1,0.1h-1.7c-0.1,0-0.1,0-0.1-0.1v-3c0-0.1,0-0.1,0.1-0.1h1.7
		c0.1,0,0.1,0,0.1,0.1v0.2c0,0.1,0,0.1-0.1,0.1h-1.3c0,0-0.1,0-0.1,0.1v0.8c0,0,0,0.1,0.1,0.1h1.2c0.1,0,0.1,0,0.1,0.1v0.2
		c0,0.1,0,0.1-0.1,0.1h-1.2c0,0-0.1,0-0.1,0.1v0.9c0,0,0,0.1,0.1,0.1h1.3c0.1,0,0.1,0,0.1,0.1V59.2z M121.7,56.1
		c0.1,0,0.1,0,0.1,0.1v3c0,0.1,0,0.2-0.1,0.2c-0.1,0-0.1,0-0.2-0.1l-1.9-2.2v2.2c0,0.1,0,0.1-0.1,0.1h-0.3c-0.1,0-0.1,0-0.1-0.1v-3
		c0-0.1,0-0.2,0.1-0.2c0.1,0,0.1,0,0.2,0.1l1.9,2.2v-2.2c0-0.1,0-0.1,0.1-0.1H121.7z M123.8,56.5C123.8,56.5,123.8,56.5,123.8,56.5
		l-0.1,2.7c0,0.1,0,0.1-0.1,0.1h-0.3c-0.1,0-0.1,0-0.1-0.1v-2.6c0,0,0-0.1-0.1-0.1h-0.9c-0.1,0-0.1,0-0.1-0.1v-0.2
		c0-0.1,0-0.1,0.1-0.1h2.3c0.1,0,0.1,0,0.1,0.1v0.2c0,0.1,0,0.1-0.1,0.1H123.8z M127.2,59.2c0,0.1,0,0.1-0.1,0.1h-1.7
		c-0.1,0-0.1,0-0.1-0.1v-3c0-0.1,0-0.1,0.1-0.1h1.7c0.1,0,0.1,0,0.1,0.1v0.2c0,0.1,0,0.1-0.1,0.1h-1.3c0,0-0.1,0-0.1,0.1v0.8
		c0,0,0,0.1,0.1,0.1h1.2c0.1,0,0.1,0,0.1,0.1v0.2c0,0.1,0,0.1-0.1,0.1h-1.2c0,0-0.1,0-0.1,0.1v0.9c0,0,0,0.1,0.1,0.1h1.3
		c0.1,0,0.1,0,0.1,0.1V59.2z M130.4,56.1c0.1,0,0.1,0,0.1,0.1v3c0,0.1,0,0.2-0.1,0.2c-0.1,0-0.1,0-0.2-0.1l-1.9-2.2v2.2
		c0,0.1,0,0.1-0.1,0.1H128c-0.1,0-0.1,0-0.1-0.1v-3c0-0.1,0-0.2,0.1-0.2c0.1,0,0.1,0,0.2,0.1l1.9,2.2v-2.2c0-0.1,0-0.1,0.1-0.1
		H130.4z M131.3,59.3H131c-0.1,0-0.1,0-0.1-0.1c0,0,0,0,0-0.1l1.4-2.9c0.1-0.2,0.1-0.2,0.2-0.2c0.1,0,0.1,0,0.2,0.2l1.4,2.9
		c0,0,0,0.1,0,0.1c0,0,0,0.1-0.1,0.1h-0.3c-0.1,0-0.1,0-0.2-0.1l-1.1-2.3l-1.1,2.3C131.4,59.2,131.4,59.3,131.3,59.3z M134.7,59.3
		c-0.1,0-0.1,0-0.1-0.1v-3c0-0.1,0-0.1,0.1-0.1h0.9c0.9,0,1.3,0.3,1.3,1c0,0.4-0.2,0.7-0.6,0.9l0.8,1.2c0,0,0,0.1,0,0.1
		c0,0,0,0.1-0.1,0.1h-0.3c-0.1,0-0.1,0-0.2-0.1l-0.8-1.3c0,0,0,0,0-0.1c0,0,0,0,0.1,0c0.5-0.1,0.7-0.3,0.7-0.6
		c0-0.4-0.3-0.6-0.8-0.6h-0.4c0,0-0.1,0-0.1,0.1v2.6c0,0.1,0,0.1-0.1,0.1H134.7z M137.6,59.3c-0.1,0-0.1,0-0.1-0.1v-3
		c0-0.1,0-0.1,0.1-0.1h0.3c0.1,0,0.1,0,0.1,0.1v3c0,0.1,0,0.1-0.1,0.1H137.6z M141.9,57.7c0,0.9-0.7,1.7-1.7,1.7
		c-0.9,0-1.7-0.7-1.6-1.6c0-0.9,0.7-1.7,1.7-1.7C141.2,56,141.9,56.7,141.9,57.7z M141.5,57.7c0-0.7-0.5-1.2-1.2-1.2
		c-0.7,0-1.2,0.5-1.2,1.2c0,0.7,0.5,1.2,1.2,1.2C140.9,58.9,141.5,58.4,141.5,57.7z"/>
	<path class="st0" d="M76.6,51.8C76.6,51.8,76.6,51.8,76.6,51.8l0.3,0.4c0,0,0,0.1,0,0.1c0,0,0,0.1-0.1,0.1
		c-0.4,0.3-0.9,0.5-1.4,0.5c-1.1,0-2-0.9-2-2c0-1.1,0.9-2,2.1-2c0.5,0,1,0.2,1.4,0.5c0,0,0.1,0.1,0.1,0.1c0,0,0,0.1,0,0.1L76.6,50
		c0,0-0.1,0.1-0.1,0.1c0,0-0.1,0-0.1,0c-0.3-0.2-0.6-0.4-1-0.4c-0.7,0-1.2,0.5-1.2,1.3c0,0.7,0.5,1.3,1.2,1.3c0.4,0,0.7-0.1,1-0.4
		C76.5,51.8,76.5,51.8,76.6,51.8z M81.3,50.9c0,1.1-0.9,2-2,2c-1.1,0-2-0.9-2-2c0-1.1,0.9-2,2-2C80.4,48.9,81.3,49.8,81.3,50.9z
		 M80.5,50.9c0-0.8-0.5-1.3-1.2-1.3c-0.7,0-1.2,0.5-1.2,1.3c0,0.7,0.5,1.3,1.2,1.3C79.9,52.2,80.5,51.6,80.5,50.9z M84.5,49.5
		C84.5,49.5,84.5,49.5,84.5,49.5l-0.3,0.5c0,0-0.1,0.1-0.1,0.1c0,0-0.1,0-0.1,0c-0.3-0.2-0.6-0.3-0.9-0.3c-0.4,0-0.6,0.2-0.6,0.4
		c0,0.3,0.2,0.4,0.7,0.5c0.8,0.2,1.2,0.5,1.2,1.1c0,0.7-0.6,1.2-1.5,1.2c-0.5,0-1-0.2-1.4-0.5c0,0-0.1-0.1-0.1-0.1c0,0,0-0.1,0-0.1
		l0.2-0.4c0,0,0.1-0.1,0.1-0.1c0,0,0.1,0,0.1,0c0.3,0.2,0.6,0.4,1,0.4c0.4,0,0.7-0.2,0.7-0.4c0-0.3-0.2-0.4-0.8-0.5
		c-0.8-0.2-1.2-0.5-1.2-1.1c0-0.7,0.6-1.2,1.4-1.2C83.6,48.9,84.1,49.1,84.5,49.5C84.5,49.4,84.5,49.4,84.5,49.5z M86.9,49.7
		C86.9,49.7,86.8,49.7,86.9,49.7l-0.1,3c0,0.1,0,0.1-0.1,0.1h-0.5c-0.1,0-0.1,0-0.1-0.1v-2.9c0,0,0-0.1-0.1-0.1H85
		c-0.1,0-0.1,0-0.1-0.1v-0.5c0-0.1,0-0.1,0.1-0.1h2.8c0.1,0,0.1,0,0.1,0.1v0.5c0,0.1,0,0.1-0.1,0.1H86.9z M89,51.9
		c-0.1,0-0.1,0-0.1,0.1l-0.3,0.7c0,0.1-0.1,0.1-0.2,0.1h-0.5c-0.1,0-0.1,0-0.1-0.1c0,0,0,0,0-0.1l1.7-3.5c0.1-0.2,0.2-0.3,0.3-0.3
		c0.1,0,0.2,0.1,0.3,0.3l1.7,3.5c0,0,0,0.1,0,0.1c0,0,0,0.1-0.1,0.1h-0.5c-0.1,0-0.2,0-0.2-0.1L90.6,52c0-0.1,0-0.1-0.1-0.1H89z
		 M90.2,51.2l-0.5-1l-0.5,1c0,0,0,0,0,0c0,0,0,0,0.1,0L90.2,51.2C90.2,51.3,90.2,51.3,90.2,51.2C90.2,51.2,90.2,51.2,90.2,51.2z
		 M94.5,52.7c0,0.1,0,0.1-0.1,0.1h-0.5c-0.1,0-0.1,0-0.1-0.1v-3.6c0-0.1,0-0.1,0.1-0.1h1.2c1.1,0,1.6,0.4,1.6,1.2
		c0,0.5-0.3,0.9-0.7,1.1l0.9,1.4c0,0,0,0.1,0,0.1c0,0,0,0.1-0.1,0.1h-0.6c-0.1,0-0.2,0-0.3-0.2l-0.7-1.1c0-0.1-0.1-0.1-0.1-0.1h-0.5
		c-0.1,0-0.1,0-0.1,0.1V52.7z M94.5,50.7C94.5,50.8,94.5,50.8,94.5,50.7l0.6,0.1c0.5,0,0.8-0.2,0.8-0.6c0-0.4-0.3-0.6-0.8-0.6h-0.5
		c0,0-0.1,0-0.1,0.1V50.7z M97.5,52.8c-0.1,0-0.1,0-0.1-0.1v-3.6c0-0.1,0-0.1,0.1-0.1H98c0.1,0,0.1,0,0.1,0.1v3.6
		c0,0.1,0,0.1-0.1,0.1H97.5z M102,51.8C102,51.8,102,51.8,102,51.8l0.3,0.4c0,0,0,0.1,0,0.1c0,0,0,0.1-0.1,0.1
		c-0.4,0.3-0.9,0.5-1.4,0.5c-1.1,0-2-0.9-2-2c0-1.1,0.9-2,2.1-2c0.5,0,1,0.2,1.4,0.5c0,0,0.1,0.1,0.1,0.1c0,0,0,0.1,0,0.1l-0.2,0.3
		c0,0-0.1,0.1-0.1,0.1c0,0-0.1,0-0.1,0c-0.3-0.2-0.6-0.4-1-0.4c-0.7,0-1.2,0.5-1.2,1.3c0,0.7,0.5,1.3,1.2,1.3c0.4,0,0.7-0.1,1-0.4
		C101.9,51.8,102,51.8,102,51.8z M103.8,51.9c-0.1,0-0.1,0-0.1,0.1l-0.3,0.7c0,0.1-0.1,0.1-0.2,0.1h-0.5c-0.1,0-0.1,0-0.1-0.1
		c0,0,0,0,0-0.1l1.7-3.5c0.1-0.2,0.2-0.3,0.3-0.3c0.1,0,0.2,0.1,0.3,0.3l1.7,3.5c0,0,0,0.1,0,0.1c0,0,0,0.1-0.1,0.1h-0.5
		c-0.1,0-0.2,0-0.2-0.1l-0.3-0.7c0-0.1,0-0.1-0.1-0.1H103.8z M105,51.2l-0.5-1l-0.5,1c0,0,0,0,0,0c0,0,0,0,0.1,0L105,51.2
		C105,51.3,105,51.3,105,51.2C105,51.2,105,51.2,105,51.2z"/>
	<path class="st0" d="M73.5,64.7C73.4,64.7,73.4,64.7,73.5,64.7c-0.1-0.1-0.1-0.1,0-0.1l0.7-0.8c0.3-0.3,0.4-0.5,0.4-0.7
		c0-0.2-0.2-0.4-0.4-0.4c-0.2,0-0.3,0.1-0.5,0.2c0,0,0,0-0.1,0c0,0,0,0-0.1,0l-0.1-0.1c0,0,0,0,0-0.1c0,0,0,0,0-0.1
		c0.2-0.2,0.4-0.3,0.7-0.3c0.4,0,0.7,0.2,0.7,0.6c0,0.3-0.1,0.5-0.4,0.8L74,64.4h0.9c0.1,0,0.1,0,0.1,0.1v0.2c0,0.1,0,0.1-0.1,0.1
		H73.5z M77.1,63.6c0,0.7-0.4,1.1-0.9,1.1c-0.5,0-0.9-0.4-0.9-1.1c0-0.7,0.4-1.2,0.9-1.2C76.7,62.4,77.1,62.9,77.1,63.6z M76.8,63.6
		c0-0.5-0.2-0.8-0.6-0.8c-0.4,0-0.6,0.3-0.6,0.8c0,0.5,0.2,0.8,0.6,0.8C76.5,64.4,76.8,64.1,76.8,63.6z M77.8,64.7
		C77.7,64.7,77.7,64.7,77.8,64.7l-0.1-1.9c0,0,0,0,0,0h-0.3c-0.1,0-0.1,0-0.1-0.1v-0.2c0-0.1,0-0.1,0.1-0.1H78c0.1,0,0.1,0,0.1,0.1
		v2.1c0,0.1,0,0.1-0.1,0.1H77.8z M79.8,63.5c0.2,0.1,0.4,0.3,0.4,0.5c0,0.4-0.3,0.7-0.8,0.7c-0.5,0-0.8-0.2-0.8-0.6
		c0-0.3,0.1-0.5,0.4-0.5c-0.2-0.1-0.3-0.3-0.3-0.5c0-0.4,0.3-0.6,0.7-0.6c0.4,0,0.7,0.2,0.7,0.6C80.1,63.3,80,63.4,79.8,63.5z
		 M78.9,64c0,0.2,0.2,0.4,0.5,0.4c0.3,0,0.5-0.1,0.5-0.4c0-0.2-0.2-0.4-0.5-0.4C79.1,63.7,78.9,63.8,78.9,64z M79.4,63.4
		c0.2,0,0.4-0.1,0.4-0.3c0-0.2-0.2-0.3-0.4-0.3c-0.2,0-0.4,0.1-0.4,0.3S79.1,63.4,79.4,63.4z M82.1,63.6c0,0.1-0.1,0.3-0.3,0.3
		c-0.1,0-0.3-0.1-0.3-0.3s0.1-0.3,0.3-0.3C82,63.3,82.1,63.4,82.1,63.6z M83.7,64.7C83.6,64.7,83.6,64.7,83.7,64.7
		c-0.1-0.1-0.1-0.1,0-0.1l0.7-0.8c0.3-0.3,0.4-0.5,0.4-0.7c0-0.2-0.2-0.4-0.4-0.4c-0.2,0-0.3,0.1-0.5,0.2c0,0,0,0-0.1,0
		c0,0,0,0-0.1,0l-0.1-0.1c0,0,0,0,0-0.1c0,0,0,0,0-0.1c0.2-0.2,0.4-0.3,0.7-0.3c0.4,0,0.7,0.2,0.7,0.6c0,0.3-0.1,0.5-0.4,0.8
		l-0.5,0.5h0.9c0.1,0,0.1,0,0.1,0.1v0.2c0,0.1,0,0.1-0.1,0.1H83.7z M87.3,63.6c0,0.7-0.4,1.1-0.9,1.1c-0.5,0-0.9-0.4-0.9-1.1
		c0-0.7,0.4-1.2,0.9-1.2C86.9,62.4,87.3,62.9,87.3,63.6z M87,63.6c0-0.5-0.2-0.8-0.6-0.8c-0.4,0-0.6,0.3-0.6,0.8
		c0,0.5,0.2,0.8,0.6,0.8C86.7,64.4,87,64.1,87,63.6z M87.6,64.7C87.5,64.7,87.5,64.7,87.6,64.7c-0.1-0.1-0.1-0.1,0-0.1l0.7-0.8
		c0.3-0.3,0.4-0.5,0.4-0.7c0-0.2-0.2-0.4-0.4-0.4c-0.2,0-0.3,0.1-0.5,0.2c0,0,0,0-0.1,0c0,0,0,0-0.1,0l-0.1-0.1c0,0,0,0,0-0.1
		c0,0,0,0,0-0.1c0.2-0.2,0.4-0.3,0.7-0.3c0.4,0,0.7,0.2,0.7,0.6c0,0.3-0.1,0.5-0.4,0.8l-0.5,0.5H89c0.1,0,0.1,0,0.1,0.1v0.2
		c0,0.1,0,0.1-0.1,0.1H87.6z M89.4,64.7C89.3,64.7,89.3,64.7,89.4,64.7c-0.1-0.1-0.1-0.1,0-0.1l0.7-0.8c0.3-0.3,0.4-0.5,0.4-0.7
		c0-0.2-0.2-0.4-0.4-0.4c-0.2,0-0.3,0.1-0.5,0.2c0,0,0,0-0.1,0c0,0,0,0-0.1,0l-0.1-0.1c0,0,0,0,0-0.1c0,0,0,0,0-0.1
		c0.2-0.2,0.4-0.3,0.7-0.3c0.4,0,0.7,0.2,0.7,0.6c0,0.3-0.1,0.5-0.4,0.8l-0.5,0.5h0.9c0.1,0,0.1,0,0.1,0.1v0.2c0,0.1,0,0.1-0.1,0.1
		H89.4z"/>
	<g>
		<linearGradient id="SVGID_1_" gradientUnits="userSpaceOnUse" x1="39.1333" y1="74.7409" x2="39.1333" y2="6.2069">
			<stop  offset="0" style="stop-color:#0680C6"/>
			<stop  offset="1" style="stop-color:#001E7D"/>
		</linearGradient>
		<path class="st1" d="M51.1,40.5c0,18.9-12,34.3-12,34.3s-12-15.3-12-34.3s12-34.3,12-34.3S51.1,21.5,51.1,40.5z"/>
		
			<linearGradient id="SVGID_2_" gradientUnits="userSpaceOnUse" x1="-5849.7065" y1="4280.6675" x2="-5849.7065" y2="4349.2017" gradientTransform="matrix(-0.7071 -0.7071 0.7071 -0.7071 -7148.353 -1044.7737)">
			<stop  offset="0" style="stop-color:#CBCBCB"/>
			<stop  offset="1" style="stop-color:#FFFFFF"/>
		</linearGradient>
		<path class="st2" d="M30.7,32C44,18.6,63.4,16.2,63.4,16.2S61,35.6,47.6,49S14.9,64.7,14.9,64.7S17.3,45.4,30.7,32z"/>
		
			<linearGradient id="SVGID_3_" gradientUnits="userSpaceOnUse" x1="-2872.9446" y1="4753.5078" x2="-2872.9446" y2="4822.0425" gradientTransform="matrix(0 -1 1 0 -4748.6421 -2832.4707)">
			<stop  offset="0" style="stop-color:#8B1919"/>
			<stop  offset="1" style="stop-color:#C6000A"/>
		</linearGradient>
		<path class="st3" d="M39.1,28.5c18.9,0,34.3,12,34.3,12s-15.3,12-34.3,12s-34.3-12-34.3-12S20.2,28.5,39.1,28.5z"/>
		
			<linearGradient id="SVGID_4_" gradientUnits="userSpaceOnUse" x1="-433.7074" y1="2982.9685" x2="-433.7074" y2="3051.5027" gradientTransform="matrix(0.7071 -0.7071 0.7071 0.7071 -1787.697 -2399.7112)">
			<stop  offset="0" style="stop-color:#8B1919"/>
			<stop  offset="1" style="stop-color:#C6000A"/>
		</linearGradient>
		<path class="st4" d="M47.6,32C61,45.4,63.4,64.7,63.4,64.7S44,62.3,30.7,49S14.9,16.2,14.9,16.2S34.2,18.6,47.6,32z"/>
		
			<linearGradient id="SVGID_5_" gradientUnits="userSpaceOnUse" x1="-2872.5574" y1="4753.5078" x2="-2872.5574" y2="4822.0425" gradientTransform="matrix(0 -1 1 0 -4748.6421 -2832.4707)">
			<stop  offset="0" style="stop-color:#C6000A"/>
			<stop  offset="1" style="stop-color:#8B1919"/>
		</linearGradient>
		<path class="st5" d="M4.9,40.5c11.7,0,22,4.6,28.1,8c5.5,3.1,11.9,4,18,2.5c13.1-3.2,22.4-10.5,22.4-10.5s-15.3-12-34.3-12
			S4.9,40.5,4.9,40.5z"/>
		
			<linearGradient id="SVGID_6_" gradientUnits="userSpaceOnUse" x1="-433.32" y1="2982.9685" x2="-433.32" y2="3051.5027" gradientTransform="matrix(0.7071 -0.7071 0.7071 0.7071 -1787.697 -2399.7112)">
			<stop  offset="0" style="stop-color:#C6000A"/>
			<stop  offset="1" style="stop-color:#8B1919"/>
		</linearGradient>
		<path class="st6" d="M14.9,16.2c8.2,8.2,12.3,18.7,14.2,25.6c1.7,6,5.6,11.2,11,14.4c11.5,7,23.3,8.4,23.3,8.4S61,45.4,47.6,32
			S14.9,16.2,14.9,16.2z"/>
		<linearGradient id="SVGID_7_" gradientUnits="userSpaceOnUse" x1="39.5207" y1="74.7409" x2="39.5207" y2="6.2069">
			<stop  offset="0" style="stop-color:#001E7D"/>
			<stop  offset="1" style="stop-color:#0680C6"/>
		</linearGradient>
		<path class="st7" d="M39.1,6.2c0,11.7-4.6,22-8,28.1c-3.1,5.5-4,11.9-2.5,18c3.2,13.1,10.5,22.4,10.5,22.4s12-15.3,12-34.3
			S39.1,6.2,39.1,6.2z"/>
		
			<linearGradient id="SVGID_8_" gradientUnits="userSpaceOnUse" x1="-5849.3188" y1="4280.6675" x2="-5849.3188" y2="4349.2017" gradientTransform="matrix(-0.7071 -0.7071 0.7071 -0.7071 -7148.353 -1044.7737)">
			<stop  offset="0" style="stop-color:#FFFFFF"/>
			<stop  offset="1" style="stop-color:#CBCBCB"/>
		</linearGradient>
		<path class="st8" d="M14.9,64.7c8.2-8.2,18.7-12.3,25.6-14.2c6-1.7,11.2-5.6,14.4-11c7-11.5,8.4-23.3,8.4-23.3S44,18.6,30.7,32
			S14.9,64.7,14.9,64.7z"/>
	</g>
</g>
</svg>
