<svg id="Capa_1" data-name="Capa 1" xmlns="http://www.w3.org/2000/svg" xmlns:xlink="http://www.w3.org/1999/xlink" viewBox="0 0 125.58 79.4"><defs><style>.cls-1{fill:#fff;}.cls-10,.cls-17,.cls-18,.cls-2,.cls-4,.cls-6,.cls-8{isolation:isolate;}.cls-17,.cls-2{opacity:0.48;}.cls-2{fill:url(#linear-gradient);}.cls-3{fill:url(#linear-gradient-2);}.cls-4{opacity:0.35;fill:url(#linear-gradient-3);}.cls-5{fill:url(#linear-gradient-4);}.cls-6{opacity:0.15;fill:url(#linear-gradient-5);}.cls-7{fill:url(#linear-gradient-6);}.cls-8{opacity:0.2;fill:url(#linear-gradient-7);}.cls-9{fill:url(#linear-gradient-8);}.cls-10{opacity:0.4;fill:url(#linear-gradient-9);}.cls-11{fill:url(#linear-gradient-10);}.cls-12{fill:url(#linear-gradient-11);}.cls-13{fill:url(#linear-gradient-12);}.cls-14{fill:url(#linear-gradient-13);}.cls-15{fill:none;}.cls-16{fill:url(#linear-gradient-14);}.cls-17{fill:url(#linear-gradient-15);}.cls-18{opacity:0.8;fill:url(#linear-gradient-16);}</style><linearGradient id="linear-gradient" x1="25.34" y1="54.11" x2="36.43" y2="65.2" gradientTransform="matrix(1, 0, 0, -1, 0, 79.44)" gradientUnits="userSpaceOnUse"><stop offset="0" stop-color="#122127"/><stop offset="0.25" stop-color="#122136"/><stop offset="0.28" stop-color="#12223a"/><stop offset="0.76" stop-color="#19387a"/><stop offset="0.99" stop-color="#1c4193"/></linearGradient><linearGradient id="linear-gradient-2" x1="14.42" y1="7.26" x2="33.43" y2="40.18" gradientTransform="matrix(1, 0, 0, -1, 0, 79.44)" gradientUnits="userSpaceOnUse"><stop offset="0.04" stop-color="#83c4e4"/><stop offset="0.13" stop-color="#7dbfe1"/><stop offset="0.23" stop-color="#6db2d7"/><stop offset="0.35" stop-color="#539dc7"/><stop offset="0.41" stop-color="#418ebc"/><stop offset="0.5" stop-color="#2e83b6"/><stop offset="0.64" stop-color="#096eab"/><stop offset="0.85" stop-color="#094988"/></linearGradient><linearGradient id="linear-gradient-3" x1="10.98" y1="24.85" x2="31.28" y2="24.85" gradientTransform="matrix(1, 0, 0, -1, 0, 79.44)" gradientUnits="userSpaceOnUse"><stop offset="0" stop-color="#096eab"/><stop offset="0.54" stop-color="#83c4e4"/><stop offset="0.68" stop-color="#73b7da"/><stop offset="0.95" stop-color="#4994c1"/><stop offset="1" stop-color="#418ebc"/></linearGradient><linearGradient id="linear-gradient-4" x1="29.89" y1="6.22" x2="35.71" y2="39.22" gradientTransform="matrix(1, 0, 0, -1, 0, 79.44)" gradientUnits="userSpaceOnUse"><stop offset="0" stop-color="#9dd1ec"/><stop offset="0.32" stop-color="#83c4e4"/><stop offset="0.35" stop-color="#7bbee0"/><stop offset="0.52" stop-color="#3e93c4"/><stop offset="0.65" stop-color="#1878b2"/><stop offset="0.72" stop-color="#096eab"/><stop offset="1" stop-color="#095895"/></linearGradient><linearGradient id="linear-gradient-5" x1="25.42" y1="11.22" x2="37.38" y2="31.93" gradientTransform="matrix(1, 0, 0, -1, 0, 79.44)" gradientUnits="userSpaceOnUse"><stop offset="0" stop-color="#83c4e4"/><stop offset="0.26" stop-color="#7fc1e2"/><stop offset="0.5" stop-color="#75b8db"/><stop offset="0.73" stop-color="#62a9d0"/><stop offset="0.95" stop-color="#4994c1"/><stop offset="1" stop-color="#418ebc"/></linearGradient><linearGradient id="linear-gradient-6" x1="40.78" y1="18.39" x2="39.08" y2="37.78" gradientTransform="matrix(1, 0, 0, -1, 0, 79.44)" gradientUnits="userSpaceOnUse"><stop offset="0" stop-color="#9dd1ec"/><stop offset="0.28" stop-color="#83c4e4"/><stop offset="0.33" stop-color="#75b9dc"/><stop offset="0.49" stop-color="#509ac5"/><stop offset="0.58" stop-color="#418ebc"/><stop offset="0.73" stop-color="#2373ae"/><stop offset="0.85" stop-color="#095ba1"/></linearGradient><linearGradient id="linear-gradient-7" x1="39.15" y1="22.49" x2="41.28" y2="34.53" gradientTransform="matrix(1, 0, 0, -1, 0, 79.44)" gradientUnits="userSpaceOnUse"><stop offset="0" stop-color="#9dd1ec"/><stop offset="0.45" stop-color="#83c4e4"/><stop offset="0.54" stop-color="#75b9dc"/><stop offset="0.84" stop-color="#509ac5"/><stop offset="1" stop-color="#418ebc"/></linearGradient><linearGradient id="linear-gradient-8" x1="40.09" y1="31.58" x2="47.42" y2="44.28" gradientTransform="matrix(1, 0, 0, -1, 0, 79.44)" gradientUnits="userSpaceOnUse"><stop offset="0.02" stop-color="#418ebc"/><stop offset="0.55" stop-color="#81c2e3"/><stop offset="0.57" stop-color="#83c4e4"/><stop offset="1" stop-color="#9dd1ec"/></linearGradient><linearGradient id="linear-gradient-9" x1="41.85" y1="41.12" x2="46.13" y2="33.69" gradientTransform="matrix(1, 0, 0, -1, 0, 79.44)" gradientUnits="userSpaceOnUse"><stop offset="0.01" stop-color="#83c4e4"/><stop offset="0.91" stop-color="#9ad0eb"/><stop offset="1" stop-color="#9dd1ec"/></linearGradient><linearGradient id="linear-gradient-10" x1="13.29" y1="45.06" x2="20.9" y2="52.67" gradientTransform="matrix(1, 0, 0, -1, 0, 79.44)" gradientUnits="userSpaceOnUse"><stop offset="0" stop-color="#e3a245"/><stop offset="1" stop-color="#efdc7f"/></linearGradient><linearGradient id="linear-gradient-11" x1="6.65" y1="48.22" x2="32.52" y2="48.22" gradientTransform="matrix(1, 0, 0, -1, 0, 79.44)" gradientUnits="userSpaceOnUse"><stop offset="0.2" stop-color="#d21034"/><stop offset="0.42" stop-color="#c21435"/><stop offset="0.56" stop-color="#b51735"/><stop offset="0.71" stop-color="#941434"/><stop offset="0.85" stop-color="#781133"/><stop offset="0.94" stop-color="#6e1033"/></linearGradient><linearGradient id="linear-gradient-12" x1="6.05" y1="48.47" x2="25.81" y2="48.47" gradientTransform="matrix(1, 0, 0, -1, 0, 79.44)" gradientUnits="userSpaceOnUse"><stop offset="0" stop-color="#e41c34"/><stop offset="0.11" stop-color="#da1b34"/><stop offset="0.44" stop-color="#bf1835"/><stop offset="0.63" stop-color="#b51735"/><stop offset="0.75" stop-color="#941434"/><stop offset="0.87" stop-color="#781133"/><stop offset="0.94" stop-color="#6e1033"/></linearGradient><linearGradient id="linear-gradient-13" x1="6.65" y1="48.22" x2="32.35" y2="48.22" gradientTransform="matrix(1, 0, 0, -1, 0, 79.44)" gradientUnits="userSpaceOnUse"><stop offset="0" stop-color="#e41c34"/><stop offset="0.05" stop-color="#da1b34"/><stop offset="0.2" stop-color="#bf1835"/><stop offset="0.28" stop-color="#b51735"/><stop offset="0.54" stop-color="#941434"/><stop offset="0.79" stop-color="#781133"/><stop offset="0.94" stop-color="#6e1033"/></linearGradient><linearGradient id="linear-gradient-14" x1="10.71" y1="6.24" x2="45.26" y2="66.09" gradientTransform="matrix(1, 0, 0, -1, 0, 79.44)" gradientUnits="userSpaceOnUse"><stop offset="0" stop-color="#223a77"/><stop offset="0.2" stop-color="#1f3d81"/><stop offset="0.45" stop-color="#1a4293"/><stop offset="0.93" stop-color="#223a77"/></linearGradient><linearGradient id="linear-gradient-15" x1="24.73" y1="40.42" x2="24.73" y2="77.03" gradientTransform="matrix(1, 0, 0, -1, 0, 79.44)" gradientUnits="userSpaceOnUse"><stop offset="0.28" stop-color="#122136"/><stop offset="0.31" stop-color="#12223a"/><stop offset="0.77" stop-color="#19387a"/><stop offset="0.99" stop-color="#1c4193"/></linearGradient><linearGradient id="linear-gradient-16" x1="34.84" y1="40.67" x2="22.52" y2="74.52" gradientTransform="matrix(1, 0, 0, -1, 0, 79.44)" gradientUnits="userSpaceOnUse"><stop offset="0" stop-color="#232a54" stop-opacity="0"/><stop offset="0.41" stop-color="#1f264f" stop-opacity="0.6"/><stop offset="0.69" stop-color="#192048"/></linearGradient></defs><path class="cls-1" d="M61.25,38.62v1.5h-4.6v-1.2l2.1-1.9c.4-.4.5-.6.5-.8s-.2-.5-.6-.5a.89.89,0,0,0-.8.5l-1.5-.7a2.54,2.54,0,0,1,2.5-1.3c1.4,0,2.3.7,2.3,1.8a2,2,0,0,1-1,1.8l-.8.7h1.9Z"/><path class="cls-1" d="M62.45,37.32c0-1.9,1.1-3,2.6-3s2.6,1.1,2.6,3-1.1,3-2.6,3S62.45,39.22,62.45,37.32Zm3.3,0c0-1.1-.3-1.5-.7-1.5s-.7.3-.7,1.5.3,1.5.7,1.5S65.75,38.42,65.75,37.32Z"/><path class="cls-1" d="M69,37.32c0-1.9,1.1-3,2.6-3s2.6,1.1,2.6,3-1.1,3-2.6,3S69,39.22,69,37.32Zm3.2,0c0-1.1-.3-1.5-.7-1.5s-.7.3-.7,1.5.3,1.5.7,1.5S72.15,38.42,72.15,37.32Z"/><path class="cls-1" d="M82.85,39.12h-2.2l-.4,1h-2l2.5-5.7h1.9l2.5,5.7h-2Zm-.5-1.4-.6-1.4-.6,1.4Z"/><path class="cls-1" d="M92.05,34.42v5.7h-1.6l-2.2-2.6v2.6h-1.9v-5.7H88l2.2,2.6v-2.6Zm-3.8-.5h-.9c0-.9.4-1.4,1.1-1.4s.9.5,1.2.5a.37.37,0,0,0,.4-.4H91c0,.8-.4,1.4-1.1,1.4s-.9-.5-1.2-.5S88.35,33.72,88.25,33.92Z"/><path class="cls-1" d="M93.55,37.32a3.06,3.06,0,0,1,3.2-3,3,3,0,0,1,3.2,3,3.21,3.21,0,0,1-6.4,0Zm4.5,0a1.3,1.3,0,1,0-1.3,1.4A1.29,1.29,0,0,0,98.05,37.32Z"/><path class="cls-1" d="M101.15,39.72l.6-1.4a4.14,4.14,0,0,0,1.9.5c.5,0,.7-.1.7-.3,0-.7-3.2-.1-3.2-2.3,0-1.1.9-1.9,2.7-1.9a5.09,5.09,0,0,1,2.2.5l-.6,1.4a3.43,3.43,0,0,0-1.6-.4c-.6,0-.7.2-.7.4,0,.7,3.2.1,3.2,2.2,0,1-.9,1.9-2.7,1.9A6.13,6.13,0,0,1,101.15,39.72Z"/><path class="cls-1" d="M56.45,42h.7v3.7h-.7Z"/><path class="cls-1" d="M61.65,42v3.7h-.6l-2-2.5v2.5h-.7V42H59l2,2.5V42Z"/><path class="cls-1" d="M63,42h1.6a1.81,1.81,0,1,1,0,3.6H63Zm1.6,3.1a1.29,1.29,0,0,0,1.4-1.3,1.24,1.24,0,0,0-1.4-1.3h-.9V45h.9Z"/><path class="cls-1" d="M70.35,45.12v.6h-2.8V42h2.7v.6h-2v1h1.8v.6h-1.8v1h2.1Z"/><path class="cls-1" d="M74.45,43.32c0,.8-.6,1.3-1.6,1.3h-.8v1.1h-.7V42h1.5C73.85,42,74.45,42.52,74.45,43.32Zm-.7,0c0-.5-.3-.7-.9-.7h-.8v1.5h.8C73.45,44.12,73.75,43.82,73.75,43.32Z"/><path class="cls-1" d="M78.15,45.12v.6h-2.8V42h2.7v.6h-2v1h1.8v.6h-1.8v1h2.1Z"/><path class="cls-1" d="M82.45,42v3.7h-.6l-2-2.5v2.5h-.7V42h.6l2,2.5V42Z"/><path class="cls-1" d="M83.75,42h1.6a1.81,1.81,0,1,1,0,3.6h-1.6Zm1.6,3.1a1.29,1.29,0,0,0,1.4-1.3,1.24,1.24,0,0,0-1.4-1.3h-.9V45h.9Z"/><path class="cls-1" d="M91.15,45.12v.6h-2.8V42h2.7v.6h-2v1h1.8v.6h-1.8v1h2.1Z"/><path class="cls-1" d="M95.45,42v3.7h-.6l-2-2.5v2.5h-.7V42h.6l2,2.5V42Z"/><path class="cls-1" d="M96.45,43.92a1.87,1.87,0,0,1,2-1.9,2,2,0,0,1,1.5.6l-.4.4a1.28,1.28,0,0,0-1-.4,1.21,1.21,0,0,0-1.3,1.3,1.26,1.26,0,0,0,1.3,1.3,1.28,1.28,0,0,0,1-.4l.4.4a1.89,1.89,0,0,1-1.5.6A1.87,1.87,0,0,1,96.45,43.92Z"/><path class="cls-1" d="M100.85,42h.7v3.7h-.7Z"/><path class="cls-1" d="M105.15,44.92h-1.8l-.4.9h-.7l1.7-3.7h.7l1.7,3.7h-.7Zm-.2-.6-.7-1.6-.7,1.6Z"/><path class="cls-1" d="M59.65,49.12a2.29,2.29,0,0,1,2.4-2.3,2.2,2.2,0,0,1,1.9.9l-.9.8a1.38,1.38,0,0,0-.9-.5,1.11,1.11,0,0,0,0,2.2,1.05,1.05,0,0,0,.9-.5l.9.8a2.2,2.2,0,0,1-1.9.9A2.23,2.23,0,0,1,59.65,49.12Z"/><path class="cls-1" d="M64.45,49.12a2.4,2.4,0,1,1,2.4,2.3A2.29,2.29,0,0,1,64.45,49.12Zm3.4,0a1,1,0,0,0-1-1.1,1,1,0,0,0-1,1.1,1,1,0,1,0,2,0Z"/><path class="cls-1" d="M69.85,50.92l.5-1.1a3.71,3.71,0,0,0,1.4.4c.4,0,.6-.1.6-.2,0-.5-2.4-.1-2.4-1.7,0-.8.7-1.5,2-1.5a2.73,2.73,0,0,1,1.6.4l-.4,1.1A2.66,2.66,0,0,0,72,48q-.6,0-.6.3c0,.5,2.4.1,2.4,1.7,0,.8-.7,1.5-2,1.5A5.31,5.31,0,0,1,69.85,50.92Z"/><path class="cls-1" d="M75.45,48.12h-1.3V47h4v1.1h-1.3v3.2h-1.5v-3.2Z"/><path class="cls-1" d="M81.55,50.52H80l-.3.8h-1.5l1.9-4.3h1.4l1.9,4.3h-1.5Zm-.4-1-.4-1.1-.4,1.1Z"/><path class="cls-1" d="M88,50.22h-.4v1.1h-1.5V47h2.1c1.2,0,2,.6,2,1.6a1.6,1.6,0,0,1-.8,1.4l.9,1.3h-1.6Zm.1-2.1h-.5v1h.5c.4,0,.6-.2.6-.5S88.45,48.12,88.05,48.12Z"/><path class="cls-1" d="M91,47h1.5v4.3H91Z"/><path class="cls-1" d="M93.25,49.12a2.29,2.29,0,0,1,2.4-2.3,2.2,2.2,0,0,1,1.9.9l-.9.8a1.38,1.38,0,0,0-.9-.5,1.11,1.11,0,0,0,0,2.2,1.05,1.05,0,0,0,.9-.5l.9.8a2.2,2.2,0,0,1-1.9.9A2.29,2.29,0,0,1,93.25,49.12Z"/><path class="cls-1" d="M101.25,50.52h-1.6l-.3.8h-1.5l1.9-4.3h1.4l1.9,4.3h-1.5Zm-.4-1-.4-1.1-.4,1.1Z"/><path class="cls-1" d="M69.75,53.42v3.5h-.6V54h-.7v-.5h1.3Z"/><path class="cls-1" d="M73.85,55.92a1.27,1.27,0,0,1-1.4,1.1c-.8,0-1.4-.4-1.4-1.1a.76.76,0,0,1,.6-.8.75.75,0,0,1-.4-.7c0-.6.5-1,1.3-1s1.3.4,1.3,1a.84.84,0,0,1-.4.7A1.2,1.2,0,0,1,73.85,55.92Zm-.7,0c0-.3-.3-.6-.8-.6s-.8.2-.8.6.3.6.8.6S73.15,56.22,73.15,55.92Zm-1.4-1.6c0,.3.2.5.7.5s.7-.2.7-.5-.3-.5-.7-.5S71.75,54,71.75,54.32Z"/><path class="cls-1" d="M77.25,56.32v.5h-2.6v-.4l1.4-1.3c.3-.3.4-.5.4-.7s-.2-.5-.6-.5a.91.91,0,0,0-.8.4l-.5-.3a1.61,1.61,0,0,1,1.3-.6c.8,0,1.2.4,1.2,1,0,.3-.1.6-.6,1.1l-.9.9h1.7Z"/><path class="cls-1" d="M79.35,53.42v3.5h-.6V54h-.7v-.5h1.3Z"/><path class="cls-1" d="M80.65,55.42a.46.46,0,0,1,.4-.5.54.54,0,0,1,.5.5.47.47,0,0,1-.5.5A.46.46,0,0,1,80.65,55.42Z"/><path class="cls-1" d="M85,56.32v.5h-2.6v-.4l1.4-1.3c.3-.3.4-.5.4-.7s-.2-.5-.6-.5a.91.91,0,0,0-.8.4l-.5-.3a1.61,1.61,0,0,1,1.3-.6c.8,0,1.2.4,1.2,1,0,.3-.1.6-.6,1.1l-.9.9H85Z"/><path class="cls-1" d="M85.85,55.12c0-1.1.6-1.8,1.5-1.8s1.5.6,1.5,1.8-.6,1.8-1.5,1.8S85.85,56.32,85.85,55.12Zm2.3,0c0-.8-.3-1.2-.8-1.2s-.8.4-.8,1.2.3,1.2.8,1.2S88.15,56,88.15,55.12Z"/><path class="cls-1" d="M92.15,56.32v.5h-2.6v-.4l1.4-1.3c.3-.3.4-.5.4-.7s-.2-.5-.6-.5a.91.91,0,0,0-.8.4l-.5-.3a1.61,1.61,0,0,1,1.3-.6c.8,0,1.2.4,1.2,1,0,.3-.1.6-.6,1.1l-.9.9h1.7Z"/><path class="cls-1" d="M94.25,53.42v3.5h-.6V54h-.8v-.5h1.4Z"/><path class="cls-2" d="M26.35,4.72s9.9,16.5,9.2,30C35.55,34.72,38.45,22.92,26.35,4.72Z"/><path class="cls-3" d="M34.25,39.92l-.1-.2-.1-.1h0a6.18,6.18,0,0,0-2.7-.5,7.6,7.6,0,0,0-2.6.6,13.12,13.12,0,0,0-4.2,3.1,40,40,0,0,0-3.2,4,39.07,39.07,0,0,0-2.6,4.4,98.3,98.3,0,0,0-4.3,9.3c-1.2,3-2.3,6-3.2,9.1a4.2,4.2,0,0,1-.2.5h0a35.44,35.44,0,0,0,9.9-3.5l.6-.3.6-.3a10.54,10.54,0,0,0,1.1-.7c.7-.5,1.4-1,2.1-1.6.3-.3.7-.6,1-.9a9,9,0,0,1,1-.9l.9-1a7,7,0,0,0,.8-1,26.43,26.43,0,0,0,4.7-9.5,31.78,31.78,0,0,0,1-5.2c.1-.9.1-1.8.2-2.7A14.47,14.47,0,0,0,34.25,39.92Z"/><path class="cls-4" d="M11,70.22S31,56.32,31.25,39C31.25,38.92,21.75,36.62,11,70.22Z"/><path class="cls-5" d="M40.15,55.52a24.84,24.84,0,0,0-3-8.8,32.82,32.82,0,0,0-2.7-3.8,12.88,12.88,0,0,0-1.6-1.7,13.72,13.72,0,0,0-1.8-1.6l-.2-.2-.3.1a6.61,6.61,0,0,0-2,1.4,6.25,6.25,0,0,0-1.3,2c0,.1-.1.2-.1.4a12.21,12.21,0,0,0-.6,4.2,22.15,22.15,0,0,0,.5,4.5c.3,1.5.7,3,1.1,4.4a76.68,76.68,0,0,0,3.2,8.4c.6,1.4,1.3,2.7,1.9,4.1s1.4,2.7,2.1,4h0a30.35,30.35,0,0,0,4-8.3c.1-.2.1-.4.2-.6l.1-.6c.1-.4.2-.8.3-1.1a18.1,18.1,0,0,0,.3-2.3A22.73,22.73,0,0,0,40.15,55.52Z"/><path class="cls-6" d="M28.15,42.22l-1,1.1a12.21,12.21,0,0,0-.6,4.2,22.15,22.15,0,0,0,.5,4.5c.3,1.5.7,3,1.1,4.4a76.68,76.68,0,0,0,3.2,8.4c.6,1.4,1.3,2.7,1.9,4.1s1.4,2.7,2.1,4h0A38.26,38.26,0,0,0,28.15,42.22Z"/><path class="cls-7" d="M50.55,58.92h0a23.14,23.14,0,0,0-2.3-6.7c-.1-.3-.3-.5-.4-.8s-.3-.5-.5-.8a7.55,7.55,0,0,0-1.1-1.4,15.39,15.39,0,0,0-2.6-2.5,17.31,17.31,0,0,0-6.4-3.1,21.36,21.36,0,0,0-3.5-.6,10.87,10.87,0,0,0-1.8-.1,10.87,10.87,0,0,0-1.8.1h-.3l-.1.2v.1a5.82,5.82,0,0,0-.3,1.9,5.26,5.26,0,0,0,.4,1.8,9,9,0,0,0,2.1,2.9,30.13,30.13,0,0,0,2.8,2.2c1,.7,2,1.2,3,1.8a50.39,50.39,0,0,0,6.3,2.8c1.1.4,2.2.8,3.3,1.1a12.13,12.13,0,0,0,3.2,1.1Z"/><path class="cls-8" d="M29.45,45.32a5.26,5.26,0,0,0,.4,1.8A9,9,0,0,0,32,50a30.13,30.13,0,0,0,2.8,2.2c1,.7,2,1.2,3,1.8a50.39,50.39,0,0,0,6.3,2.8c1.1.4,2.2.8,3.3,1.1s2.2.7,3.3,1h0a60.92,60.92,0,0,0-20.8-15.7v.1A4.77,4.77,0,0,0,29.45,45.32Z"/><path class="cls-9" d="M54.25,40.12a17.53,17.53,0,0,0-5.1-2.6c-.2-.1-.5-.1-.7-.2s-.5-.1-.7-.2a6.75,6.75,0,0,0-1.4-.2,14.05,14.05,0,0,0-2.9,0,13.89,13.89,0,0,0-5.5,1.9c-.8.5-1.6,1.1-2.4,1.7a10,10,0,0,0-1.1,1,11,11,0,0,0-1,1.1l-.2.3.2.3h0a2.51,2.51,0,0,0,.4.7c.2.2.3.4.5.6a2.65,2.65,0,0,0,.6.5l.3.2c.1.1.2.1.4.2a7.71,7.71,0,0,0,2.9.5,12.65,12.65,0,0,0,2.8-.3,26.81,26.81,0,0,0,2.7-.7c1.8-.6,3.5-1.3,5.2-2l5-2.8Z"/><path class="cls-10" d="M33.45,43.12a2.51,2.51,0,0,0,.4.7c.2.2.3.4.5.6a2.65,2.65,0,0,0,.6.5l.3.2c.1.1.2.1.4.2a7.71,7.71,0,0,0,2.9.5,12.65,12.65,0,0,0,2.8-.3,26.81,26.81,0,0,0,2.7-.7c1.8-.6,3.5-1.3,5.2-2a45.92,45.92,0,0,0,4.9-2.6h0C54.25,40.12,44.75,38.12,33.45,43.12Z"/><path class="cls-11" d="M25.75,40.52a4.44,4.44,0,0,1,1.1-.8,6.38,6.38,0,0,1,1.4-.8,17.88,17.88,0,0,1-1.3-1.4c-.5-.6-.9-1.2-1.4-1.8l-.6-.9-.6-1-.5-1-.5-1a19,19,0,0,1-1.4-4,98,98,0,0,0-15.3-6.3C9.85,35.52,19.25,39.52,25.75,40.52Z"/><path class="cls-12" d="M6.65,21.52s29.5,9,25.5,19.3C32.15,40.82,11.65,43.52,6.65,21.52Z"/><path class="cls-13" d="M25.75,40.52a17.29,17.29,0,0,1-7-1.8,20.16,20.16,0,0,1-3.2-1.8,20.94,20.94,0,0,1-2.8-2.4,32.53,32.53,0,0,1-2.3-2.9,20.16,20.16,0,0,1-1.8-3.2c-.5-1.1-.9-2.3-1.3-3.4a15.06,15.06,0,0,1-.6-3.6A19.57,19.57,0,0,0,8,24.82c.5,1.1,1,2.2,1.5,3.2s1.2,2,1.9,3,1.4,1.8,2.2,2.7a28.48,28.48,0,0,0,2.6,2.3,29,29,0,0,0,2.9,1.9A30.06,30.06,0,0,0,25.75,40.52Z"/><path class="cls-14" d="M6.65,21.52a59.57,59.57,0,0,1,8.2,2.5,55.12,55.12,0,0,1,7.8,3.6,25,25,0,0,1,6.8,5.3,11,11,0,0,1,2.3,3.7,7.07,7.07,0,0,1,.3,4.3,8.29,8.29,0,0,0-.7-4.1,12,12,0,0,0-2.5-3.4,26.92,26.92,0,0,0-3.2-2.7,31.72,31.72,0,0,0-3.6-2.3c-1.2-.7-2.5-1.4-3.7-2l-3.9-1.8C12,23.52,9.35,22.42,6.65,21.52Z"/><path class="cls-15" d="M26.45,4.42s1.1,2.1,2.5,5.2A41.33,41.33,0,0,0,26.45,4.42Z"/><path class="cls-16" d="M48.85,27.62c-3.3-.5-4.7-3.1-7.8-2s-3.4,4.8-4.9,5.8a.1.1,0,0,0-.1.1H36A36.44,36.44,0,0,0,34.05,20a58,58,0,0,0-7.7-15.5h0a26.45,26.45,0,0,0-2.6,3.9,23.93,23.93,0,0,0-1.8,4.4,38.37,38.37,0,0,0-1.1,4.6,25.72,25.72,0,0,0-.2,4.8,35.45,35.45,0,0,0,.7,4.7l.3,1.1.4,1.1c.1.4.3.7.4,1.1s.3.7.5,1.1a24.2,24.2,0,0,0,4.2,6.2,14.75,14.75,0,0,0-2.6,3h0c-.7,1-1.4,2-2.1,3.2h0c-7.4,11.5-11.8,26.5-11.8,26.5a47.88,47.88,0,0,0,5-1.3,52.11,52.11,0,0,1,5.2-17.7c4-1.1,9.1-2.6,12.1-4.2a12.32,12.32,0,0,0,6.8-8.1v-.1c.6-1.5,5.5-7.4,7.1-9.2s13.1.5,13.1.5C60.25,28.72,52.25,28.12,48.85,27.62Z"/><path class="cls-1" d="M16.25,67A52.64,52.64,0,0,1,21,51c.1-.2.1-.1.2-.2,4.1-1.2,8.3-2.2,12.2-4.1a12.75,12.75,0,0,0,4.9-4c1.4-1.7,1.6-4,3-5.7-1.4,1.7-1.5,4-2.8,5.8-2.5,3.7-6.9,5.3-10.9,6.7a63.21,63.21,0,0,1-6.2,1.8l.2-.2A50.53,50.53,0,0,0,16.25,67Z"/><path class="cls-17" d="M26.45,4.42a26.67,26.67,0,0,0-2,4.2A32.55,32.55,0,0,0,23,13a23.63,23.63,0,0,0-.8,4.5,23.41,23.41,0,0,0-.1,4.6,34.69,34.69,0,0,0,.6,4.5,24.91,24.91,0,0,0,1.4,4.4,42.51,42.51,0,0,0,4.6,8,29.53,29.53,0,0,1-5.5-7.6c-.2-.4-.3-.7-.5-1.1a4.87,4.87,0,0,1-.4-1.1l-.4-1.1-.3-1.1a18.42,18.42,0,0,1-.7-4.7,25.72,25.72,0,0,1,.2-4.8,23.73,23.73,0,0,1,1.1-4.6A33.83,33.83,0,0,1,24,8.52,16.63,16.63,0,0,1,26.45,4.42Z"/><path class="cls-18" d="M26.45,4.42s13.2,22.7,2.5,34.9l6.4-2.3a33.13,33.13,0,0,0-1.3-17.1A59.85,59.85,0,0,0,26.45,4.42Z"/></svg>