<?xml version="1.0" encoding="utf-8"?>
<!-- Generator: Adobe Illustrator 25.2.3, SVG Export Plug-In . SVG Version: 6.00 Build 0)  -->
<svg version="1.1" id="Capa_1" xmlns="http://www.w3.org/2000/svg" xmlns:xlink="http://www.w3.org/1999/xlink" x="0px" y="0px"
	 viewBox="0 0 111 78.3" style="enable-background:new 0 0 111 78.3;" xml:space="preserve">
<style type="text/css">
	.st0{fill:#E24438;}
	.st1{fill:#F6B536;}
	.st2{fill:#59BDE6;}
	.st3{fill:#0093BE;}
	.st4{fill:#EB813E;}
	.st5{fill:#D80025;}
	.st6{fill:#ADC62E;}
	.st7{fill:#009D35;}
	.st8{fill:#0068AF;}
</style>
<g>
	<g>
		<g>
			<g>
				<g>
					<g>
						<path class="st0" d="M69.9,14.4c1.5,2,2.5,4.3,2.9,6.7c0.5-0.2,1-0.3,1.5-0.4c-0.5-2.9-1.7-5.7-3.7-7.9c-3,0.2-5.8,1.2-8.2,3
							c0.3,0.4,0.5,0.9,0.7,1.4C65.1,15.6,67.5,14.7,69.9,14.4z"/>
						<path class="st1" d="M83,31.3c2.5,0.3,4.8,1.3,6.8,2.9C89.5,36.7,88.5,39,87,41c0.5,0.2,0.9,0.5,1.4,0.7
							c1.7-2.4,2.8-5.2,3-8.2c-2.2-2-5-3.3-7.9-3.7c-0.1,0.3-0.2,0.7-0.3,1C83.1,31,83,31.1,83,31.3z"/>
						<path class="st2" d="M94.3,48.2c-1.3-2.7-3.4-4.9-5.9-6.5c-0.3,0.4-0.6,0.8-1,1.2c2.1,1.3,3.9,3.1,5.1,5.3
							c-1.2,2.2-3,4-5.1,5.2c0.3,0.4,0.7,0.8,1,1.2C90.9,53.1,93,50.9,94.3,48.2z"/>
						<path class="st1" d="M41.9,14.4c2.5,0.3,4.8,1.2,6.8,2.7c0.2-0.5,0.5-0.9,0.7-1.4c-2.4-1.7-5.2-2.8-8.2-3
							c-2,2.2-3.3,5-3.7,7.9c0.5,0.1,1,0.3,1.5,0.4C39.4,18.7,40.4,16.4,41.9,14.4z"/>
						<path class="st3" d="M54.7,22.4c0.1,0.3,0.2,0.5,0.3,0.8c0,0.1,0.1,0.2,0.1,0.3c0,0.1,0.1,0.2,0.1,0.2c0,0,0,0,0,0
							c0,0,0,0,0,0c0.3,0,0.6,0,0.8,0c0.2,0,0.5,0,0.7,0c0,0,0,0,0,0c0,0,0,0,0,0c0-0.1,0.1-0.2,0.1-0.3c0-0.1,0-0.1,0.1-0.2
							c0.1-0.3,0.2-0.5,0.3-0.8c0.9-2.2,2.3-4.1,4-5.6c-1.3-2.1-3.1-3.9-5.2-5.1c-2.2,1.2-4,3-5.3,5.1
							C52.4,18.3,53.7,20.2,54.7,22.4z"/>
						<path class="st4" d="M39,21.2c2.1,0.7,4.1,2,5.9,3.7c0.3,0.3,0.6,0.7,0.9,1c-0.1,0-0.2,0.1-0.3,0.1c0.6-0.3,1.1-0.5,1.7-0.7
							c0,0,0,0,0,0c0,0,0,0,0,0c0-0.1,0-0.2,0-0.3c0-0.1,0-0.2,0-0.3c0-0.3,0-0.6,0-0.8c0-0.7,0.1-1.5,0.2-2.2
							c0.2-1.6,0.7-3.1,1.4-4.5c-2-1.5-4.3-2.4-6.8-2.7C40.4,16.4,39.4,18.7,39,21.2z"/>
						<path class="st5" d="M64.7,23.9L64.7,23.9C64.7,23.9,64.7,23.9,64.7,23.9c0,0.3,0,0.6,0,0.8c0,0.1,0,0.2,0,0.3
							c0,0.1,0,0.2,0,0.2c0,0,0,0,0,0c0,0,0,0,0,0c0.5,0.2,1,0.4,1.4,0.6c0,0,0,0,0,0c0,0,0,0,0,0c0,0,0.1-0.1,0.1-0.1
							c0.3-0.3,0.5-0.6,0.8-0.9h0h0c0.1-0.1,0.1-0.1,0.2-0.2c1.2-1.2,2.5-2.1,4-2.8c0.6-0.3,1.1-0.5,1.7-0.7
							c-0.3-2.5-1.3-4.8-2.9-6.7c-2.5,0.3-4.8,1.2-6.8,2.7C64.1,19.2,64.7,21.5,64.7,23.9L64.7,23.9z"/>
						<path class="st6" d="M83,21.1c-2.8-1-5.9-1.1-8.7-0.4c0,0.3,0.1,0.6,0.1,0.9c0,0.1,0,0.2,0,0.3c0,0.1,0,0.2,0,0.3c0,0,0,0,0,0
							v0c0,0,0,0,0,0l0,0c0,0,0,0,0,0c0.2-0.1,0.4-0.1,0.7-0.1c0.1,0,0.2,0,0.2-0.1c0.2,0,0.5-0.1,0.7-0.1c0.1,0,0.1,0,0.2,0
							c0.3,0,0.5-0.1,0.8-0.1c0.1,0,0.1,0,0.2,0c0.3,0,0.5,0,0.8,0c0,0,0.1,0,0.1,0c0.3,0,0.5,0,0.8,0c0.1,0,0.1,0,0.2,0
							c0.2,0,0.5,0.1,0.7,0.1c0.1,0,0.1,0,0.2,0c0.2,0,0.5,0.1,0.7,0.1c0.1,0,0.1,0,0.2,0c0.3,0.1,0.6,0.1,0.9,0.2
							c0.7,2.4,0.7,4.9,0.1,7.3h0c0.5,0,1,0.1,1.5,0.2C84.1,26.9,84,23.9,83,21.1z"/>
						<path class="st4" d="M79.3,37.2c-0.3,0.3-0.6,0.6-0.9,0.8c0,0-0.1,0.1-0.1,0.1c0,0,0,0,0,0c0,0,0,0,0,0c0.2,0.5,0.4,1,0.6,1.5
							c0,0,0,0,0,0c0,0,0,0,0,0c0.1,0,0.2,0,0.2,0c0.1,0,0.2,0,0.3,0c0.3,0,0.6,0,0.8,0c2.4,0,4.7,0.6,6.7,1.5
							c1.5-2,2.4-4.3,2.7-6.8c-2-1.5-4.3-2.5-6.8-2.9c-0.5,1.6-1.3,3.1-2.4,4.4C80.2,36.2,79.8,36.7,79.3,37.2z"/>
						<path class="st3" d="M81.8,46.9c-0.3,0.1-0.5,0.2-0.8,0.3c-0.1,0-0.2,0.1-0.2,0.1c-0.1,0-0.1,0-0.2,0.1c0,0,0,0,0,0
							c0,0,0,0,0,0c0,0.3,0,0.6,0,0.9c0,0.2,0,0.5,0,0.7c0.4,0.1,0.9,0.3,1.3,0.5c2.2,0.9,4.1,2.3,5.6,4c2.1-1.3,3.9-3.1,5.1-5.2
							c-1.2-2.2-3-4-5.1-5.3C85.9,44.6,84,46,81.8,46.9z"/>
						<path class="st2" d="M55.9,9.9c-2.7,1.3-4.9,3.4-6.5,5.9c0,0,0,0,0,0c0.4,0.3,0.8,0.6,1.2,1l0,0c1.3-2.1,3.1-3.9,5.3-5.1
							c2.2,1.2,4,3,5.2,5.1c0.4-0.3,0.8-0.7,1.2-1C60.8,13.3,58.6,11.2,55.9,9.9z"/>
						<path class="st7" d="M81.8,22.3c-0.3-0.1-0.6-0.2-0.9-0.2c-0.1,0-0.1,0-0.2,0c-0.2,0-0.5-0.1-0.7-0.1c-0.1,0-0.1,0-0.2,0
							c-0.2,0-0.5-0.1-0.7-0.1c-0.1,0-0.1,0-0.2,0c-0.3,0-0.5,0-0.8,0c0,0-0.1,0-0.1,0c-0.3,0-0.5,0-0.8,0c-0.1,0-0.1,0-0.2,0
							c-0.3,0-0.5,0-0.8,0.1c-0.1,0-0.1,0-0.2,0c-0.2,0-0.5,0.1-0.7,0.1c-0.1,0-0.1,0-0.2,0.1c-0.2,0-0.5,0.1-0.7,0.1c0,0,0,0,0,0
							l0,0c0,0,0,0,0,0v0h0v0v0c0,0.1,0,0.2,0,0.3c0,0.1,0,0.2,0,0.4c0,0.2,0,0.4,0,0.7c0,0.1,0,0.2,0,0.3c0,0.3,0,0.6-0.1,0.9
							c0,0.1,0,0.2,0,0.3c0,0.2-0.1,0.5-0.1,0.7c0,0.1,0,0.3-0.1,0.4c0,0.2-0.1,0.4-0.1,0.6c0,0.1-0.1,0.3-0.1,0.4
							c-0.1,0.2-0.1,0.4-0.2,0.6c0,0.1-0.1,0.2-0.1,0.3c0,0,0,0,0,0c-0.1,0.3-0.2,0.6-0.4,0.9c-0.2,0.4-0.3,0.8-0.5,1.1
							c0,0,0,0.1-0.1,0.1c0,0-0.1-0.1-0.1-0.1c0,0,0.1,0.1,0.1,0.1c0,0,0,0,0,0h0c0.4,0.4,0.8,0.7,1.1,1.1c0,0,0,0,0,0c0,0,0,0,0,0
							c0,0,0.1,0,0.1-0.1c0.4-0.2,0.7-0.4,1.1-0.5c2.2-0.9,4.5-1.3,6.8-1.2C82.5,27.3,82.5,24.7,81.8,22.3z"/>
						<path class="st5" d="M55.1,23.7c0-0.1-0.1-0.2-0.1-0.2c0-0.1-0.1-0.2-0.1-0.3c-0.1-0.3-0.2-0.5-0.3-0.8
							c-0.9-2.2-2.3-4.1-4-5.6l0,0c-0.4-0.3-0.8-0.7-1.2-1c-0.3,0.4-0.5,0.9-0.7,1.4l0,0c-0.7,1.4-1.2,2.9-1.4,4.5
							c-0.1,0.7-0.2,1.4-0.2,2.2c0,0.3,0,0.6,0,0.8c0,0.1,0,0.2,0,0.3c0,0.1,0,0.2,0,0.3c0,0,0,0,0,0c0,0,0,0,0,0c0,0,0.1,0,0.1,0
							c0.2-0.1,0.3-0.1,0.5-0.2c0.2-0.1,0.4-0.1,0.6-0.2c0.1,0,0.2-0.1,0.3-0.1c0,0,0.1,0,0.1,0c0.2-0.1,0.4-0.1,0.6-0.2
							c0.2,0,0.3-0.1,0.5-0.1c0.2-0.1,0.4-0.1,0.7-0.2c0.1,0,0.3-0.1,0.4-0.1c0.3-0.1,0.7-0.1,1.1-0.2c0.1,0,0.3,0,0.4-0.1
							c0.2,0,0.5-0.1,0.7-0.1c0.1,0,0.2,0,0.3,0c0.1,0,0.1,0,0.2,0c0.2,0,0.5,0,0.7-0.1c0.2,0,0.3,0,0.5,0
							C55,23.7,55.1,23.7,55.1,23.7C55.1,23.7,55.1,23.7,55.1,23.7C55.1,23.7,55.1,23.7,55.1,23.7z"/>
						<path class="st3" d="M44.9,24.9c-1.7-1.7-3.7-2.9-5.9-3.7c-0.5-0.2-1-0.3-1.5-0.4c0,0,0,0,0,0c0,0.1,0,0.2,0,0.4
							c0,0.2,0,0.4-0.1,0.5c0,0.2,0,0.3,0,0.5c0,0.2,0,0.4,0,0.5c0,0.2,0,0.4,0,0.5c0,0.2,0,0.3,0,0.5c0,0.2,0,0.4,0,0.6
							c0,0.2,0,0.3,0,0.5c0,0.2,0.1,0.4,0.1,0.6c0,0.2,0,0.3,0.1,0.5c0,0.2,0.1,0.4,0.1,0.6c0,0.1,0.1,0.3,0.1,0.4
							c0.1,0.2,0.1,0.5,0.2,0.7c0,0.1,0.1,0.2,0.1,0.3c0.1,0.4,0.2,0.7,0.4,1.1c0,0,0,0,0,0c0.2,0.4,0.3,0.8,0.5,1.1
							c0,0,0,0.1,0,0.1c0,0,0,0,0,0c0,0,0,0,0,0c0,0,0.1-0.1,0.1-0.1c0.1-0.1,0.3-0.2,0.4-0.4c0.1-0.1,0.3-0.2,0.4-0.4
							c0.1-0.1,0.2-0.1,0.2-0.2c0.1-0.1,0.1-0.1,0.2-0.2c0.2-0.1,0.3-0.2,0.5-0.4c0.1-0.1,0.3-0.2,0.4-0.3c0.2-0.1,0.4-0.3,0.6-0.4
							c0.1-0.1,0.2-0.2,0.3-0.2c0.3-0.2,0.6-0.4,0.9-0.6c0.1-0.1,0.2-0.1,0.3-0.2c0.2-0.1,0.4-0.2,0.6-0.4c0.1-0.1,0.3-0.1,0.4-0.2
							c0.2-0.1,0.4-0.2,0.6-0.3c0.1-0.1,0.3-0.1,0.4-0.2c0.1,0,0.2-0.1,0.3-0.1C45.5,25.5,45.2,25.2,44.9,24.9z"/>
						<path class="st6" d="M63.1,17.1c-0.2-0.5-0.5-0.9-0.7-1.4c-0.4,0.3-0.8,0.6-1.2,1c-1.7,1.5-3.1,3.4-4,5.6
							c-0.1,0.3-0.2,0.5-0.3,0.8c0,0.1-0.1,0.1-0.1,0.2c0,0.1-0.1,0.2-0.1,0.3c0,0,0,0,0,0c0,0,0,0,0,0c0.1,0,0.2,0,0.3,0
							c0.2,0,0.3,0,0.5,0c0.2,0,0.5,0,0.7,0.1c0,0,0.1,0,0.1,0c0.1,0,0.2,0,0.3,0c0.3,0,0.5,0.1,0.8,0.1c0.1,0,0.2,0,0.3,0
							c0.4,0.1,0.7,0.1,1.1,0.2c0.1,0,0.3,0.1,0.4,0.1c0.2,0,0.5,0.1,0.7,0.2c0.2,0,0.3,0.1,0.5,0.1c0.2,0.1,0.4,0.1,0.6,0.2
							c0,0,0.1,0,0.1,0c0.1,0,0.3,0.1,0.4,0.1c0.2,0.1,0.4,0.1,0.6,0.2c0.1,0,0.3,0.1,0.4,0.1c0,0,0,0,0.1,0c0,0,0,0,0,0
							c0,0,0,0,0,0c0-0.1,0-0.2,0-0.2c0-0.1,0-0.2,0-0.3c0-0.3,0-0.6,0-0.8c0,0,0,0,0,0v0C64.7,21.5,64.1,19.2,63.1,17.1z"/>
						<path class="st4" d="M74.5,22.5c0-0.1,0-0.2,0-0.3c-0.1,0-0.1,0,0,0h0c0,0,0,0,0,0c0-0.1,0-0.2,0-0.3c0,0,0,0,0,0
							c0-0.1,0-0.2,0-0.3c0,0,0,0,0,0c0-0.3-0.1-0.6-0.1-0.9c0,0,0,0,0,0c0,0,0,0,0,0c-0.5,0.1-1,0.3-1.5,0.4
							c-0.1,0-0.1,0.1-0.2,0.1c-0.2,0.1-0.4,0.2-0.6,0.2c-0.1,0-0.2,0.1-0.3,0.2c-0.2,0.1-0.3,0.1-0.5,0.2c0,0,0,0-0.1,0
							c0,0-0.1,0.1-0.1,0.1c-0.3,0.1-0.5,0.3-0.8,0.4c-0.1,0-0.1,0.1-0.2,0.1c-0.7,0.4-1.3,0.8-1.9,1.3c0,0,0,0,0,0
							c-0.4,0.3-0.7,0.6-1.1,1c0,0,0,0,0,0h0h0c0,0,0,0,0,0c-0.3,0.3-0.6,0.6-0.8,0.9c0,0,0,0,0,0c0,0-0.1,0.1-0.1,0.1c0,0,0,0,0,0
							c0,0,0,0,0,0c0.1,0,0.2,0.1,0.3,0.2c0.1,0.1,0.3,0.1,0.4,0.2c0.2,0.1,0.4,0.2,0.6,0.3c0,0,0,0,0.1,0h0l0,0
							c0.1,0.1,0.2,0.1,0.3,0.2c0.2,0.1,0.5,0.3,0.7,0.4c0.1,0.1,0.3,0.2,0.4,0.2c0.2,0.2,0.5,0.3,0.7,0.5c0.1,0.1,0.3,0.2,0.4,0.3
							c0.2,0.1,0.3,0.2,0.5,0.3c0.1,0.1,0.3,0.2,0.4,0.3c0.1,0.1,0.3,0.2,0.4,0.3c0.1,0,0.1,0.1,0.2,0.1c0.1,0.1,0.2,0.2,0.3,0.2
							c0.1,0.1,0.3,0.2,0.4,0.4c0.1,0.1,0.3,0.2,0.4,0.4c0,0,0.1,0.1,0.1,0.1c0,0,0-0.1,0.1-0.1c0.2-0.4,0.4-0.7,0.5-1.1
							c0.1-0.3,0.2-0.6,0.4-0.9c0-0.1,0.1-0.2,0.1-0.3c0.1-0.2,0.1-0.4,0.2-0.6c0-0.1,0.1-0.3,0.1-0.4c0-0.2,0.1-0.4,0.1-0.6
							c0-0.1,0.1-0.3,0.1-0.4c0-0.2,0.1-0.5,0.1-0.7c0-0.1,0-0.2,0-0.3c0-0.3,0.1-0.6,0.1-0.9c0-0.1,0-0.2,0-0.3c0-0.2,0-0.4,0-0.7
							C74.5,22.8,74.5,22.7,74.5,22.5z M67.5,26.5L67.5,26.5C67.5,26.6,67.4,26.5,67.5,26.5C67.5,26.5,67.5,26.5,67.5,26.5z"/>
						<path class="st2" d="M81.9,29.7L81.9,29.7c-2.3-0.1-4.6,0.2-6.8,1.2c-0.4,0.2-0.8,0.3-1.1,0.5c0,0-0.1,0-0.1,0.1c0,0,0,0,0,0
							c0,0,0,0,0,0c0.1,0.1,0.1,0.1,0.2,0.2c0.1,0.1,0.2,0.2,0.3,0.4c0.1,0.2,0.3,0.3,0.4,0.5c0.1,0.1,0.1,0.1,0.2,0.2
							c0.1,0.1,0.1,0.1,0.2,0.2c0.1,0.2,0.3,0.3,0.4,0.5c0.1,0.1,0.2,0.2,0.3,0.4c0.2,0.2,0.3,0.4,0.5,0.7c0.1,0.1,0.2,0.3,0.3,0.4
							c0.2,0.2,0.3,0.5,0.5,0.7c0.1,0.1,0.2,0.3,0.2,0.4c0.1,0.2,0.2,0.4,0.3,0.6c0,0.1,0.1,0.2,0.1,0.2c0,0.1,0.1,0.1,0.1,0.2
							c0.1,0.2,0.2,0.4,0.3,0.6c0.1,0.1,0.1,0.3,0.2,0.4c0,0.1,0.1,0.2,0.1,0.2c0,0,0,0,0,0c0,0,0,0,0,0c0,0,0.1-0.1,0.1-0.1
							c0.3-0.3,0.6-0.5,0.9-0.8c0.2-0.2,0.4-0.4,0.6-0.7c-0.2,0.2-0.4,0.4-0.6,0.7c0.5-0.5,0.9-0.9,1.3-1.4c1.1-1.4,1.9-2.9,2.4-4.4
							c0.1-0.2,0.1-0.3,0.2-0.5c0.1-0.3,0.2-0.7,0.3-1C82.9,29.7,82.4,29.7,81.9,29.7z"/>
						<path class="st5" d="M87,41c-2-1-4.3-1.5-6.7-1.5c-0.3,0-0.6,0-0.8,0c-0.1,0-0.2,0-0.3,0c-0.1,0-0.2,0-0.2,0c0,0,0,0,0,0
							c0,0,0,0,0,0c0,0,0,0.1,0,0.1c0.1,0.2,0.1,0.3,0.2,0.5c0.1,0.2,0.1,0.4,0.2,0.5c0,0.1,0.1,0.2,0.1,0.3c0,0.1,0,0.1,0.1,0.2
							c0.1,0.2,0.1,0.4,0.2,0.6c0,0.2,0.1,0.3,0.1,0.5c0.1,0.2,0.1,0.4,0.1,0.6c0.1,0.3,0.1,0.5,0.2,0.8c0,0.2,0.1,0.5,0.1,0.7
							c0,0.2,0.1,0.4,0.1,0.5c0,0.2,0.1,0.4,0.1,0.6c0,0.1,0,0.2,0,0.3c0,0.1,0,0.2,0,0.3c0,0.2,0,0.4,0,0.6c0,0.2,0,0.4,0,0.6
							c0,0.1,0,0.1,0,0.2c0,0,0,0,0,0c0,0,0,0,0,0c0.1,0,0.1,0,0.2-0.1c0.1,0,0.2-0.1,0.2-0.1c0.3-0.1,0.5-0.2,0.8-0.3
							c2.2-0.9,4.1-2.3,5.6-4c0.3-0.4,0.7-0.8,1-1.2C88,41.5,87.5,41.2,87,41z"/>
						<path class="st6" d="M88.4,54.6c-0.3-0.4-0.6-0.8-1-1.2c-1.5-1.7-3.4-3.1-5.6-4c-0.4-0.2-0.9-0.3-1.3-0.5c0,0,0,0,0,0
							c-0.1,2.1-0.4,4.3-1,6.4c-0.2,0.5-0.3,1-0.5,1.5c0,0,0,0,0,0c0,0,0,0,0,0c0.4,0,0.9,0.1,1.3,0.1c1.9,0,3.8-0.4,5.5-1
							c0,0,0,0,0,0c0.3-0.1,0.7-0.3,1-0.4c0,0,0.1,0,0.1,0c0.3-0.1,0.6-0.3,0.8-0.4c0.1,0,0.1-0.1,0.2-0.1
							C88,54.9,88.2,54.8,88.4,54.6C88.4,54.6,88.4,54.6,88.4,54.6z"/>
					</g>
					<g>
						<path class="st8" d="M12.6,60.4l0.8-0.8c0.3,0.2,0.5,0.4,0.9,0.4c0.5,0,0.9-0.3,0.9-1.2v-10h1.4v10c0,1.6-0.9,2.4-2.2,2.4
							C13.5,61.3,13,60.9,12.6,60.4 M14.9,45.5c0-0.6,0.5-1,1-1c0.5,0,1,0.4,1,1c0,0.6-0.5,1-1,1C15.4,46.5,14.9,46.1,14.9,45.5"/>
						<path class="st8" d="M17.8,53.8v-5h1.4v4.8c0,1.4,0.7,2.2,2,2.2c1.5,0,2.5-1,2.5-2.6v-4.5h1.4v8.1h-1.4l0-1.6
							c-0.5,1.1-1.6,1.8-2.9,1.8C19.1,57.1,17.8,55.9,17.8,53.8"/>
						<path class="st8" d="M25.5,48.8H27l2.2,4.7c0.3,0.5,0.5,1.4,0.5,1.4s0.2-0.8,0.4-1.4l2.1-4.7h1.4l-3.9,8.3h-0.3L25.5,48.8z"/>
						<path class="st8" d="M37.5,55.9c1.2,0,2-0.5,2.6-1.1l0.8,0.8c-0.7,0.8-1.8,1.4-3.4,1.4c-2.7,0-4.4-1.8-4.4-4.2
							c0-2.4,1.8-4.2,4.2-4.2c2.6,0,4.2,2,4.1,4.7h-6.9C34.7,54.9,35.7,55.9,37.5,55.9 M40,52.3c-0.1-1.4-1-2.5-2.7-2.5
							c-1.5,0-2.6,1-2.8,2.5H40z"/>
						<path class="st8" d="M42.1,48.8h1.4l0,1.7c0.5-1.2,1.6-1.8,2.9-1.8c1.8,0,3,1.2,3,3.3v4.9h-1.4v-4.8c0-1.4-0.7-2.2-2-2.2
							c-1.5,0-2.5,1-2.5,2.6v4.5h-1.4V48.8z"/>
						<path class="st8" d="M51,54.5V50h-1.3v-1.2H51v-1.6h1.3v1.6h2.3V50h-2.3v4.5c0,1.1,0.4,1.4,1,1.4c0.5,0,0.8-0.2,1.1-0.5
							l0.7,0.9c-0.4,0.4-1,0.8-2,0.8C52,57.1,51,56.4,51,54.5"/>
						<path class="st8" d="M55.5,53.8v-5h1.4v4.8c0,1.4,0.7,2.2,2,2.2c1.5,0,2.5-1,2.5-2.6v-4.5h1.4v8.1h-1.4l0-1.6
							c-0.5,1.1-1.6,1.8-2.9,1.8C56.7,57.1,55.5,55.9,55.5,53.8"/>
						<path class="st8" d="M63.6,52.8c0-2.4,1.7-4.2,3.9-4.2c1.5,0,2.5,0.8,3.1,1.8v-7.7H72v14.1h-1.4l0-1.7
							c-0.5,1.1-1.7,1.9-3.1,1.9C65.3,57.1,63.6,55.3,63.6,52.8 M70.7,52.8c0-1.7-1.2-3-2.9-3c-1.7,0-2.8,1.3-2.8,3
							c0,1.8,1.1,3,2.8,3C69.5,55.9,70.7,54.6,70.7,52.8"/>
						<path class="st8" d="M19.1,42.4c0-2.4,1.8-4.2,4.2-4.2c1.4,0,2.4,0.5,3.2,1.4l-1,0.8c-0.5-0.6-1.2-1-2.2-1
							c-1.7,0-2.8,1.3-2.8,3c0,1.7,1.1,3,2.8,3c1.1,0,1.8-0.5,2.3-1.1l0.9,0.8c-0.8,0.9-1.8,1.4-3.3,1.4
							C20.9,46.6,19.1,44.8,19.1,42.4"/>
						<path class="st8" d="M27.5,43.4v-5h1.4v4.8c0,1.4,0.7,2.2,2,2.2c1.5,0,2.5-1,2.5-2.6v-4.5h1.4v8.1h-1.4l0-1.6
							c-0.5,1.1-1.6,1.8-2.9,1.8C28.7,46.7,27.5,45.4,27.5,43.4"/>
						<rect x="36.6" y="34.1" class="st8" width="1.4" height="12.4"/>
						<path class="st8" d="M40.2,44v-4.5H39v-1.2h1.3v-4.2h1.3v4.2h2.3v1.2h-2.3v4.5c0,1.1,0.4,1.4,1,1.4c0.5,0,0.8-0.2,1.1-0.5
							l0.7,0.9c-0.4,0.4-1,0.8-2,0.8C41.1,46.7,40.2,46,40.2,44"/>
						<path class="st8" d="M45.1,43.4v-5h1.4v4.8c0,1.4,0.7,2.2,2,2.2c1.5,0,2.5-1,2.5-2.6v-4.5h1.4v8.1h-1.4l0-1.6
							c-0.5,1.1-1.6,1.8-2.9,1.8C46.3,46.7,45.1,45.4,45.1,43.4"/>
						<path class="st8" d="M54,38.4h1.4l0,1.6c0.5-1.2,1.4-1.7,2.4-1.7c0.6,0,1,0.1,1.4,0.4l-0.5,1.2c-0.3-0.2-0.6-0.3-1.1-0.3
							c-1.2,0-2.1,0.8-2.1,2.7v4.3H54V38.4z"/>
						<path class="st8" d="M64.6,41.5c0-1.6-0.7-2.2-1.9-2.2c-1.1,0-1.9,0.5-2.4,1.2l-0.8-0.8c0.7-1,1.8-1.6,3.3-1.6
							c1.8,0,3.2,1.1,3.2,3.3v5h-1.4l0.1-1.2c-0.5,0.8-1.4,1.4-2.7,1.4c-1.7,0-3-0.8-3-2.5c0-1.7,1.4-2.4,3.1-2.4h2.5V41.5z
							 M62.2,42.8c-1,0-1.8,0.4-1.8,1.3c0,0.9,0.7,1.4,2,1.4c1.3,0,2.3-0.7,2.3-1.7v-1H62.2z"/>
						<path class="st8" d="M43.6,33.2L43.6,33.2l1.5,1.8l1.4-1.8h0v3.1h-0.3v-2c0-0.1,0-0.4,0-0.4s-0.1,0.2-0.2,0.3l-0.9,1.2H45
							l-0.9-1.2c-0.1-0.1-0.2-0.3-0.2-0.3s0,0.2,0,0.4v2h-0.3V33.2z"/>
						<rect x="47.2" y="33.3" class="st8" width="0.3" height="3.1"/>
						<path class="st8" d="M48.7,34.2c-0.1-0.1-0.2-0.3-0.2-0.3s0,0.2,0,0.3v2.1h-0.3v-3.1h0.1l1.8,2.2c0.1,0.1,0.2,0.3,0.2,0.3
							s0-0.2,0-0.3v-2.1h0.3v3.1h-0.1L48.7,34.2z"/>
						<rect x="51.2" y="33.3" class="st8" width="0.3" height="3.1"/>
						<path class="st8" d="M51.9,35.7l0.3-0.1c0.1,0.3,0.4,0.5,0.8,0.5c0.4,0,0.6-0.2,0.6-0.5c0-0.3-0.2-0.5-0.6-0.6l-0.2-0.1
							c-0.4-0.2-0.7-0.4-0.7-0.8c0-0.4,0.3-0.7,0.8-0.7c0.4,0,0.7,0.2,0.8,0.5l-0.3,0.2c-0.1-0.2-0.3-0.3-0.6-0.3
							c-0.3,0-0.5,0.2-0.5,0.4c0,0.3,0.1,0.4,0.5,0.5l0.2,0.1c0.5,0.2,0.8,0.5,0.8,0.9c0,0.5-0.4,0.8-0.9,0.8
							C52.4,36.3,52.1,36,51.9,35.7"/>
						<polygon class="st8" points="55,33.5 54.1,33.5 54.1,33.3 56.3,33.3 56.3,33.5 55.3,33.5 55.3,36.3 55,36.3 						"/>
						<polygon class="st8" points="56.7,33.3 58.5,33.3 58.5,33.5 57,33.5 57,35 58.4,35 58.4,35.3 57,35.3 57,36 58.6,36 
							58.6,36.3 56.7,36.3 						"/>
						<path class="st8" d="M61.1,36.3h-0.4l-0.6-0.8c-0.1,0-0.2,0-0.3,0h-0.4v0.8h-0.3v-3.1h0.7c0.8,0,1.3,0.5,1.3,1.1
							c0,0.5-0.2,0.8-0.6,1L61.1,36.3z M59.8,35.2c0.7,0,0.9-0.4,0.9-0.8c0-0.5-0.3-0.8-0.9-0.8h-0.3v1.7H59.8z"/>
						<rect x="61.6" y="33.3" class="st8" width="0.3" height="3.1"/>
						<path class="st8" d="M62.4,34.8c0-0.9,0.7-1.6,1.6-1.6c0.9,0,1.6,0.6,1.6,1.6s-0.7,1.6-1.6,1.6C63.1,36.3,62.4,35.7,62.4,34.8
							 M65.2,34.8c0-0.7-0.5-1.3-1.2-1.3c-0.7,0-1.2,0.5-1.2,1.3c0,0.7,0.5,1.3,1.2,1.3C64.7,36.1,65.2,35.5,65.2,34.8"/>
						<path class="st8" d="M66.9,33.3h0.7c1,0,1.7,0.6,1.7,1.5c0,0.9-0.6,1.5-1.7,1.5h-0.7V33.3z M67.7,36c0.9,0,1.3-0.5,1.3-1.2
							c0-0.7-0.4-1.2-1.3-1.2h-0.4V36H67.7z"/>
						<polygon class="st8" points="69.8,33.3 71.7,33.3 71.7,33.5 70.1,33.5 70.1,35 71.5,35 71.5,35.3 70.1,35.3 70.1,36 71.7,36 
							71.7,36.3 69.8,36.3 						"/>
						<path class="st8" d="M69.2,40.6l-1.2-2.1h0.4l0.8,1.5c0.1,0.1,0.1,0.3,0.1,0.3s0.1-0.2,0.1-0.3l0.8-1.5h0.3l-1.1,2.1v1h-0.3
							V40.6z"/>
					</g>
				</g>
			</g>
		</g>
	</g>
</g>
</svg>
