<svg id="Capa_1" data-name="Capa 1" xmlns="http://www.w3.org/2000/svg" viewBox="0 0 111 78.3"><defs><style>.cls-1{fill:#e24438;}.cls-2{fill:#f6b536;}.cls-3{fill:#59bde6;}.cls-4{fill:#0093be;}.cls-5{fill:#eb813e;}.cls-6{fill:#d80025;}.cls-7{fill:#adc62e;}.cls-8{fill:#009d35;}.cls-9{fill:#fff;}</style></defs><path class="cls-1" d="M69.9,14.4a15.42,15.42,0,0,1,2.9,6.7,8.33,8.33,0,0,1,1.5-.4,15.63,15.63,0,0,0-3.7-7.9,15.19,15.19,0,0,0-8.2,3,6.11,6.11,0,0,1,.7,1.4A13.21,13.21,0,0,1,69.9,14.4Z"/><path class="cls-2" d="M83,31.3a13.35,13.35,0,0,1,6.8,2.9A14,14,0,0,1,87.1,41c.5.2.9.5,1.4.7a16,16,0,0,0,3-8.2,14.86,14.86,0,0,0-7.9-3.7c-.1.3-.2.7-.3,1A.55.55,0,0,0,83,31.3Z"/><path class="cls-3" d="M94.3,48.2a16.08,16.08,0,0,0-5.9-6.5,10.59,10.59,0,0,1-1,1.2,14.41,14.41,0,0,1,5.1,5.3,13.42,13.42,0,0,1-5.1,5.2c.3.4.7.8,1,1.2A16.54,16.54,0,0,0,94.3,48.2Z"/><path class="cls-2" d="M41.9,14.4a14,14,0,0,1,6.8,2.7c.2-.5.5-.9.7-1.4a16,16,0,0,0-8.2-3,14.86,14.86,0,0,0-3.7,7.9c.5.1,1,.3,1.5.4A14.43,14.43,0,0,1,41.9,14.4Z"/><path class="cls-4" d="M54.6,22.4c.1.3.2.5.3.8,0,.1.1.2.1.3a.35.35,0,0,0,.1.2h1.5c0-.1.1-.2.1-.3s0-.1.1-.2c.1-.3.2-.5.3-.8a15.12,15.12,0,0,1,4-5.6,14.93,14.93,0,0,0-5.2-5.1,14.41,14.41,0,0,0-5.3,5.1A14.35,14.35,0,0,1,54.6,22.4Z"/><path class="cls-5" d="M39,21.2a16.24,16.24,0,0,1,5.9,3.7c.3.3.6.7.9,1-.1,0-.2.1-.3.1a12.2,12.2,0,0,1,1.7-.7h0V23.9a16.35,16.35,0,0,1,.2-2.2,13.89,13.89,0,0,1,1.4-4.5A14,14,0,0,0,42,14.5,12.82,12.82,0,0,0,39,21.2Z"/><path class="cls-6" d="M64.6,23.9h0v1.3h0c.5.2,1,.4,1.4.6h0l.1-.1c.3-.3.5-.6.8-.9h0l.2-.2a13.77,13.77,0,0,1,4-2.8,12.2,12.2,0,0,1,1.7-.7,12.68,12.68,0,0,0-2.9-6.7,14,14,0,0,0-6.8,2.7,15.1,15.1,0,0,1,1.5,6.8Z"/><path class="cls-7" d="M83,21.1a15.21,15.21,0,0,0-8.7-.4c0,.3.1.6.1.9v.6h0a1.48,1.48,0,0,1,.7-.1c.1,0,.2,0,.2-.1.2,0,.5-.1.7-.1h.2c.3,0,.5-.1.8-.1h2.1c.2,0,.5.1.7.1H80c.2,0,.5.1.7.1h.2c.3.1.6.1.9.2a13.91,13.91,0,0,1,.1,7.3h0a7.72,7.72,0,0,1,1.5.2A14.87,14.87,0,0,0,83,21.1Z"/><path class="cls-5" d="M79.3,37.1a6.47,6.47,0,0,1-.9.8l-.1.1h0l.6,1.5h1.3A16.45,16.45,0,0,1,86.9,41a14,14,0,0,0,2.7-6.8,15.31,15.31,0,0,0-6.8-2.9,12.62,12.62,0,0,1-2.4,4.4A3.6,3.6,0,0,1,79.3,37.1Z"/><path class="cls-4" d="M81.7,46.9c-.3.1-.5.2-.8.3a.35.35,0,0,0-.2.1c-.1,0-.1,0-.2.1h0V49a6.94,6.94,0,0,1,1.3.5,15.12,15.12,0,0,1,5.6,4,14.93,14.93,0,0,0,5.1-5.2A14.41,14.41,0,0,0,87.4,43,15.63,15.63,0,0,1,81.7,46.9Z"/><path class="cls-3" d="M55.9,9.9a16.08,16.08,0,0,0-6.5,5.9h0a10.59,10.59,0,0,1,1.2,1h0a14.41,14.41,0,0,1,5.3-5.1,13.42,13.42,0,0,1,5.2,5.1c.4-.3.8-.7,1.2-1A14.61,14.61,0,0,0,55.9,9.9Z"/><path class="cls-8" d="M81.8,22.3a2.92,2.92,0,0,0-.9-.2h-.2c-.2,0-.5-.1-.7-.1h-.2c-.2,0-.5-.1-.7-.1H77a2.2,2.2,0,0,0-.8.1H76c-.2,0-.5.1-.7.1s-.1,0-.2.1-.5.1-.7.1h0V24a2.77,2.77,0,0,1-.1.9v.3c0,.2-.1.5-.1.7a.6.6,0,0,1-.1.4c0,.2-.1.4-.1.6s-.1.3-.1.4-.1.4-.2.6-.1.2-.1.3h0a3.55,3.55,0,0,1-.4.9,11.73,11.73,0,0,1-.5,1.1.1.1,0,0,1-.1.1l-.1-.1.1.1h0a11.41,11.41,0,0,1,1.1,1.1h0a.1.1,0,0,0,.1-.1,5.36,5.36,0,0,1,1.1-.5,16,16,0,0,1,6.8-1.2A12.13,12.13,0,0,0,81.8,22.3Z"/><path class="cls-6" d="M55.1,23.7a.35.35,0,0,0-.1-.2c0-.1-.1-.2-.1-.3-.1-.3-.2-.5-.3-.8a15.12,15.12,0,0,0-4-5.6h0c-.4-.3-.8-.7-1.2-1a6.11,6.11,0,0,0-.7,1.4h0a13.89,13.89,0,0,0-1.4,4.5,15,15,0,0,0-.2,2.2v1.4h.1c.2-.1.3-.1.5-.2s.4-.1.6-.2.2-.1.3-.1h.1c.2-.1.4-.1.6-.2s.3-.1.5-.1a6.37,6.37,0,0,1,.7-.2c.1,0,.3-.1.4-.1.3-.1.7-.1,1.1-.2a.6.6,0,0,0,.4-.1c.2,0,.5-.1.7-.1h.5a1.7,1.7,0,0,0,.7-.1h.8Z"/><path class="cls-4" d="M44.9,24.8A15.92,15.92,0,0,0,39,21.1a8.33,8.33,0,0,0-1.5-.4h0v.4a.75.75,0,0,1-.1.5v3.1c0,.2.1.4.1.6a.9.9,0,0,0,.1.5c0,.2.1.4.1.6s.1.3.1.4.1.5.2.7.1.2.1.3a4.87,4.87,0,0,0,.4,1.1h0A11.73,11.73,0,0,0,39,30v.1h0l.1-.1c.1-.1.3-.2.4-.4s.3-.2.4-.4.2-.1.2-.2l.2-.2a1.76,1.76,0,0,0,.5-.4c.1-.1.3-.2.4-.3s.4-.3.6-.4.2-.2.3-.2l.9-.6c.1-.1.2-.1.3-.2a2.09,2.09,0,0,0,.6-.4c.1-.1.3-.1.4-.2l.6-.3c.1-.1.3-.1.4-.2s.2-.1.3-.1C45.5,25.5,45.2,25.2,44.9,24.8Z"/><path class="cls-7" d="M63.1,17.1c-.2-.5-.5-.9-.7-1.4a10.59,10.59,0,0,0-1.2,1,15.12,15.12,0,0,0-4,5.6c-.1.3-.2.5-.3.8,0,.1-.1.1-.1.2s-.1.2-.1.3h.8a1.7,1.7,0,0,1,.7.1h.4c.3,0,.5.1.8.1h.3c.4.1.7.1,1.1.2.1,0,.3.1.4.1a1.85,1.85,0,0,1,.7.2c.2,0,.3.1.5.1s.4.1.6.2h.1c.1,0,.3.1.4.1s.4.1.6.2.3.1.4.1h.1V23.7h0A14.85,14.85,0,0,0,63.1,17.1Z"/><path class="cls-5" d="M74.5,22.5v-.3h0v-.3h0v-.3h0c0-.3-.1-.6-.1-.9h0c-.5.1-1,.3-1.5.4-.1,0-.1.1-.2.1a1.42,1.42,0,0,1-.6.2c-.1,0-.2.1-.3.2s-.3.1-.5.2h-.1l-.1.1c-.3.1-.5.3-.8.4-.1,0-.1.1-.2.1a12.74,12.74,0,0,0-1.9,1.3h0a10,10,0,0,0-1.1,1h0a6.47,6.47,0,0,0-.8.9h0l-.1.1h0c.1,0,.2.1.3.2s.3.1.4.2l.6.3h.1c.1.1.2.1.3.2s.5.3.7.4a.76.76,0,0,0,.4.2c.2.2.5.3.7.5s.3.2.4.3.3.2.5.3.3.2.4.3.3.2.4.3.1.1.2.1.2.2.3.2.3.2.4.4.3.2.4.4l.1.1a.1.1,0,0,1,.1-.1,5.36,5.36,0,0,0,.5-1.1,3.55,3.55,0,0,1,.4-.9c0-.1.1-.2.1-.3s.1-.4.2-.6.1-.3.1-.4.1-.4.1-.6.1-.3.1-.4.1-.5.1-.7v-.3c0-.3.1-.6.1-.9v-1C74.5,22.8,74.5,22.6,74.5,22.5Zm-7.1,4Z"/><path class="cls-3" d="M81.9,29.6h0a14.65,14.65,0,0,0-6.8,1.2,11.73,11.73,0,0,0-1.1.5.1.1,0,0,0-.1.1h0l.2.2a1.38,1.38,0,0,1,.3.4c.1.2.3.3.4.5l.2.2.2.2c.1.2.3.3.4.5a1.38,1.38,0,0,1,.3.4,4.23,4.23,0,0,1,.5.7c.1.1.2.3.3.4s.3.5.5.7a.76.76,0,0,1,.2.4l.3.6a.35.35,0,0,0,.1.2c0,.1.1.1.1.2l.3.6c.1.1.1.3.2.4a.35.35,0,0,0,.1.2h0l.1-.1c.3-.3.6-.5.9-.8a4.35,4.35,0,0,0,.6-.7,4.35,4.35,0,0,0-.6.7,16.61,16.61,0,0,0,1.3-1.4,14.67,14.67,0,0,0,2.4-4.4c.1-.2.1-.3.2-.5s.2-.7.3-1A8.57,8.57,0,0,0,81.9,29.6Z"/><path class="cls-6" d="M87,41a15,15,0,0,0-6.7-1.5H79v.1c.1.2.1.3.2.5s.1.4.2.5.1.2.1.3,0,.1.1.2.1.4.2.6.1.3.1.5a1.27,1.27,0,0,1,.1.6c.1.3.1.5.2.8s.1.5.1.7a4.33,4.33,0,0,0,.1.5c0,.2.1.4.1.6v2h0c.1,0,.1,0,.2-.1a.35.35,0,0,0,.2-.1c.3-.1.5-.2.8-.3a15.12,15.12,0,0,0,5.6-4c.3-.4.7-.8,1-1.2A5.39,5.39,0,0,0,87,41Z"/><path class="cls-7" d="M88.4,54.6a10.59,10.59,0,0,0-1-1.2,15.12,15.12,0,0,0-5.6-4c-.4-.2-.9-.3-1.3-.5h0a28.4,28.4,0,0,1-1,6.4c-.2.5-.3,1-.5,1.5h0c.4,0,.9.1,1.3.1a16.75,16.75,0,0,0,5.5-1h0c.3-.1.7-.3,1-.4h.1a5.94,5.94,0,0,0,.8-.4c.1,0,.1-.1.2-.1a1,1,0,0,1,.5-.4Z"/><path class="cls-9" d="M12.6,60.4l.8-.8a1.49,1.49,0,0,0,.9.4c.5,0,.9-.3.9-1.2v-10h1.4v10a2.11,2.11,0,0,1-2.2,2.4,2.2,2.2,0,0,1-1.8-.8m2.3-14.9a1,1,0,1,1,1,1,1.07,1.07,0,0,1-1-1"/><path class="cls-9" d="M17.8,53.7v-5h1.4v4.8c0,1.4.7,2.2,2,2.2a2.39,2.39,0,0,0,2.5-2.6V48.6h1.4v8.1H23.7V55.1a3.12,3.12,0,0,1-2.9,1.8c-1.7.2-3-1.1-3-3.2"/><path class="cls-9" d="M25.5,48.8H27l2.2,4.7a5.93,5.93,0,0,1,.5,1.4s.2-.8.4-1.4l2.1-4.7h1.4l-3.9,8.3h-.3Z"/><path class="cls-9" d="M37.5,55.9a3.5,3.5,0,0,0,2.6-1.1l.8.8A4.32,4.32,0,0,1,37.5,57a4.2,4.2,0,1,1-.2-8.4c2.6,0,4.2,2,4.1,4.7H34.5a2.75,2.75,0,0,0,3,2.6M40,52.2a2.53,2.53,0,0,0-2.7-2.5,2.74,2.74,0,0,0-2.8,2.5Z"/><path class="cls-9" d="M42.1,48.8h1.4v1.7a3,3,0,0,1,2.9-1.8c1.8,0,3,1.2,3,3.3v4.9H48V52.1c0-1.4-.7-2.2-2-2.2a2.39,2.39,0,0,0-2.5,2.6V57H42.1Z"/><path class="cls-9" d="M51,54.4V49.9H49.7V48.7H51V47.1h1.3v1.6h2.3v1.2H52.3v4.5c0,1.1.4,1.4,1,1.4a1.43,1.43,0,0,0,1.1-.5l.7.9a2.67,2.67,0,0,1-2,.8c-1.1.1-2.1-.7-2.1-2.6"/><path class="cls-9" d="M55.5,53.7v-5h1.4v4.8c0,1.4.7,2.2,2,2.2a2.39,2.39,0,0,0,2.5-2.6V48.6h1.4v8.1H61.4V55.1a3.12,3.12,0,0,1-2.9,1.8c-1.8.2-3-1.1-3-3.2"/><path class="cls-9" d="M63.6,52.8a4,4,0,0,1,3.9-4.2,3.49,3.49,0,0,1,3.1,1.8V42.7H72V56.8H70.6V55.1A3.39,3.39,0,0,1,67.5,57a4,4,0,0,1-3.9-4.2m7,0a2.86,2.86,0,0,0-2.9-3,2.79,2.79,0,0,0-2.8,3,2.85,2.85,0,1,0,5.7,0"/><path class="cls-9" d="M19.1,42.4a4.1,4.1,0,0,1,4.2-4.2,4,4,0,0,1,3.2,1.4l-1,.8a2.72,2.72,0,0,0-2.2-1,2.79,2.79,0,0,0-2.8,3,2.79,2.79,0,0,0,2.8,3,2.84,2.84,0,0,0,2.3-1.1l.9.8a4.08,4.08,0,0,1-3.3,1.4,3.94,3.94,0,0,1-4.1-4.1"/><path class="cls-9" d="M27.4,43.3v-5h1.4v4.8c0,1.4.7,2.2,2,2.2a2.39,2.39,0,0,0,2.5-2.6V38.3h1.4v8.1H33.3V44.8a3.12,3.12,0,0,1-2.9,1.8,3,3,0,0,1-3-3.3"/><rect class="cls-9" x="36.5" y="34" width="1.4" height="12.4"/><path class="cls-9" d="M40.2,44V39.5H38.9V38.3h1.3V34.1h1.3v4.2h2.3v1.2H41.5V44c0,1.1.4,1.4,1,1.4a1.43,1.43,0,0,0,1.1-.5l.7.9a2.67,2.67,0,0,1-2,.8c-1.2,0-2.1-.7-2.1-2.6"/><path class="cls-9" d="M45,43.3v-5h1.4v4.8c0,1.4.7,2.2,2,2.2a2.39,2.39,0,0,0,2.5-2.6V38.3h1.4v8.1H50.9V44.8A3.12,3.12,0,0,1,48,46.6a3,3,0,0,1-3-3.3"/><path class="cls-9" d="M54,38.3h1.4v1.6a2.5,2.5,0,0,1,2.4-1.7,2.12,2.12,0,0,1,1.4.4l-.5,1.2a1.8,1.8,0,0,0-1.1-.3c-1.2,0-2.1.8-2.1,2.7v4.3H54Z"/><path class="cls-9" d="M64.6,41.5c0-1.6-.7-2.2-1.9-2.2a2.84,2.84,0,0,0-2.4,1.2l-.8-.8a3.81,3.81,0,0,1,3.3-1.6A3,3,0,0,1,66,41.4v5H64.6l.1-1.2A3,3,0,0,1,62,46.6c-1.7,0-3-.8-3-2.5s1.4-2.4,3.1-2.4h2.5v-.2Zm-2.5,1.2c-1,0-1.8.4-1.8,1.3s.7,1.4,2,1.4,2.3-.7,2.3-1.7v-1Z"/><path class="cls-9" d="M43.6,33.2h0L45.1,35l1.4-1.8h0v3.1h-.3V33.9a1.44,1.44,0,0,1-.2.3l-.9,1.2H45l-.9-1.2a1.44,1.44,0,0,1-.2-.3v2.4h-.3Z"/><rect class="cls-9" x="47.2" y="33.2" width="0.3" height="3.1"/><path class="cls-9" d="M48.6,34.1a1.44,1.44,0,0,1-.2-.3v2.5h-.3V33.2h.1L50,35.3a1.44,1.44,0,0,1,.2.3V33.2h.3v3.1h-.1Z"/><rect class="cls-9" x="51.2" y="33.2" width="0.3" height="3.1"/><path class="cls-9" d="M51.9,35.7l.3-.1a.79.79,0,0,0,.8.5c.4,0,.6-.2.6-.5s-.2-.5-.6-.6l-.2-.1c-.4-.2-.7-.4-.7-.8a.71.71,0,0,1,.8-.7.79.79,0,0,1,.8.5l-.3.2a.6.6,0,0,0-.6-.3.46.46,0,0,0-.5.4c0,.3.1.4.5.5l.2.1c.5.2.8.5.8.9a.82.82,0,0,1-.9.8,2.09,2.09,0,0,1-1-.8"/><polygon class="cls-9" points="55 33.5 54.1 33.5 54.1 33.2 56.3 33.2 56.3 33.5 55.3 33.5 55.3 36.3 55 36.3 55 33.5"/><polygon class="cls-9" points="56.7 33.2 58.5 33.2 58.5 33.5 57 33.5 57 34.9 58.3 34.9 58.3 35.2 57 35.2 57 36 58.6 36 58.6 36.3 56.7 36.3 56.7 33.2"/><path class="cls-9" d="M61.1,36.3h-.4l-.6-.8h-.7v.8h-.3V33.2h.7a1.17,1.17,0,0,1,1.3,1.1,1,1,0,0,1-.6,1Zm-1.4-1.1c.7,0,.9-.4.9-.8s-.3-.8-.9-.8h-.3v1.7h.3Z"/><rect class="cls-9" x="61.6" y="33.2" width="0.3" height="3.1"/><path class="cls-9" d="M62.4,34.7A1.58,1.58,0,0,1,64,33.1a1.52,1.52,0,0,1,1.6,1.6A1.58,1.58,0,0,1,64,36.3a1.52,1.52,0,0,1-1.6-1.6m2.8,0A1.24,1.24,0,0,0,64,33.4a1.18,1.18,0,0,0-1.2,1.3A1.24,1.24,0,0,0,64,36a1.18,1.18,0,0,0,1.2-1.3"/><path class="cls-9" d="M66.9,33.2h.7a1.53,1.53,0,0,1,1.7,1.5c0,.9-.6,1.5-1.7,1.5h-.7Zm.7,2.8a1.2,1.2,0,1,0,0-2.4h-.4v2.5h.4Z"/><polygon class="cls-9" points="69.8 33.2 71.6 33.2 71.6 33.5 70.1 33.5 70.1 34.9 71.5 34.9 71.5 35.2 70.1 35.2 70.1 36 71.7 36 71.7 36.3 69.8 36.3 69.8 33.2"/><path class="cls-9" d="M69.2,40.6,68,38.5h.4l.8,1.5a.49.49,0,0,1,.1.3,1,1,0,0,0,.1-.3l.8-1.5h.3l-1.1,2.1v1h-.3v-1Z"/></svg>