<?xml version="1.0" encoding="utf-8"?>
<!-- Generator: Adobe Illustrator 25.2.3, SVG Export Plug-In . SVG Version: 6.00 Build 0)  -->
<svg version="1.1" id="Capa_1" xmlns="http://www.w3.org/2000/svg" xmlns:xlink="http://www.w3.org/1999/xlink" x="0px" y="0px"
	 viewBox="0 0 125.6 79.4" style="enable-background:new 0 0 125.6 79.4;" xml:space="preserve">
<style type="text/css">
	.st0{fill:#223A77;}
	.st1{opacity:0.48;fill:url(#SVGID_1_);}
	.st2{fill:url(#SVGID_2_);}
	.st3{opacity:0.35;fill:url(#SVGID_3_);}
	.st4{fill:none;}
	.st5{fill:url(#SVGID_4_);}
	.st6{fill:url(#SVGID_5_);}
	.st7{opacity:0.15;fill:url(#SVGID_6_);}
	.st8{fill:url(#SVGID_7_);}
	.st9{opacity:0.2;fill:url(#SVGID_8_);}
	.st10{fill:url(#SVGID_9_);}
	.st11{fill:url(#SVGID_10_);}
	.st12{fill:url(#SVGID_11_);}
	.st13{opacity:0.4;fill:url(#SVGID_12_);}
	.st14{fill:url(#SVGID_13_);}
	.st15{fill:url(#SVGID_14_);}
	.st16{fill:url(#SVGID_15_);}
	.st17{fill:url(#SVGID_16_);}
	.st18{fill:none;stroke:url(#SVGID_17_);stroke-width:0.3083;stroke-miterlimit:10;}
	.st19{fill:url(#SVGID_18_);}
	.st20{fill:#FFFFFF;}
	.st21{opacity:0.48;fill:url(#SVGID_19_);}
	.st22{opacity:0.8;fill:url(#SVGID_20_);}
</style>
<g>
	<g>
		<g>
			<path class="st0" d="M61.2,38.7v1.5h-4.6V39l2.1-1.9c0.4-0.4,0.5-0.6,0.5-0.8c0-0.3-0.2-0.5-0.6-0.5c-0.3,0-0.7,0.2-0.8,0.5
				l-1.5-0.7c0.4-0.8,1.2-1.3,2.5-1.3c1.4,0,2.3,0.7,2.3,1.8c0,0.6-0.1,1.1-1,1.8l-0.8,0.7H61.2z"/>
			<path class="st0" d="M62.5,37.3c0-1.9,1.1-3,2.6-3c1.5,0,2.6,1.1,2.6,3c0,1.9-1.1,3-2.6,3C63.5,40.3,62.5,39.2,62.5,37.3z
				 M65.7,37.3c0-1.1-0.3-1.5-0.7-1.5s-0.7,0.3-0.7,1.5c0,1.1,0.3,1.5,0.7,1.5S65.7,38.4,65.7,37.3z"/>
			<path class="st0" d="M68.9,37.3c0-1.9,1.1-3,2.6-3c1.5,0,2.6,1.1,2.6,3c0,1.9-1.1,3-2.6,3C70,40.3,68.9,39.2,68.9,37.3z
				 M72.2,37.3c0-1.1-0.3-1.5-0.7-1.5s-0.7,0.3-0.7,1.5c0,1.1,0.3,1.5,0.7,1.5S72.2,38.4,72.2,37.3z"/>
			<path class="st0" d="M82.9,39.2h-2.2l-0.4,1h-2l2.5-5.7h1.9l2.5,5.7h-2L82.9,39.2z M82.3,37.8l-0.6-1.4l-0.6,1.4H82.3z"/>
			<path class="st0" d="M92,34.4v5.7h-1.6l-2.2-2.6v2.6h-1.9v-5.7H88l2.2,2.6v-2.6H92z M88.3,34h-0.9c0-0.9,0.4-1.4,1.1-1.4
				c0.6,0,0.9,0.5,1.2,0.5c0.2,0,0.4-0.1,0.4-0.4H91c0,0.8-0.4,1.4-1.1,1.4c-0.6,0-0.9-0.5-1.2-0.5C88.4,33.6,88.3,33.7,88.3,34z"/>
			<path class="st0" d="M93.6,37.3c0-1.7,1.4-3,3.2-3c1.9,0,3.2,1.3,3.2,3s-1.4,3-3.2,3C94.9,40.3,93.6,39,93.6,37.3z M98.1,37.3
				c0-0.9-0.6-1.4-1.3-1.4c-0.7,0-1.3,0.5-1.3,1.4c0,0.9,0.6,1.4,1.3,1.4C97.5,38.7,98.1,38.2,98.1,37.3z"/>
			<path class="st0" d="M101.2,39.7l0.6-1.4c0.5,0.3,1.3,0.5,1.9,0.5c0.5,0,0.7-0.1,0.7-0.3c0-0.7-3.2-0.1-3.2-2.3
				c0-1.1,0.9-1.9,2.7-1.9c0.8,0,1.6,0.2,2.2,0.5l-0.6,1.4c-0.6-0.3-1.1-0.4-1.6-0.4c-0.6,0-0.7,0.2-0.7,0.4c0,0.7,3.2,0.1,3.2,2.2
				c0,1-0.9,1.9-2.7,1.9C102.7,40.3,101.8,40.1,101.2,39.7z"/>
		</g>
		<g>
			<path class="st0" d="M56.4,42.1h0.7v3.7h-0.7V42.1z"/>
			<path class="st0" d="M61.7,42.1v3.7h-0.6l-2-2.5v2.5h-0.7v-3.7h0.6l2,2.5v-2.5H61.7z"/>
			<path class="st0" d="M62.9,42.1h1.6c1.2,0,2,0.7,2,1.8s-0.8,1.8-2,1.8h-1.6V42.1z M64.5,45.2c0.8,0,1.4-0.5,1.4-1.3
				s-0.5-1.3-1.4-1.3h-0.9v2.5H64.5z"/>
			<path class="st0" d="M70.3,45.2v0.6h-2.8v-3.7h2.7v0.6h-2v1H70v0.6h-1.8v1H70.3z"/>
			<path class="st0" d="M74.4,43.4c0,0.8-0.6,1.3-1.6,1.3H72v1.1h-0.7v-3.7h1.5C73.8,42.1,74.4,42.6,74.4,43.4z M73.8,43.4
				c0-0.5-0.3-0.7-0.9-0.7H72v1.5h0.8C73.4,44.1,73.8,43.8,73.8,43.4z"/>
			<path class="st0" d="M78.2,45.2v0.6h-2.8v-3.7h2.7v0.6h-2v1h1.8v0.6h-1.8v1H78.2z"/>
			<path class="st0" d="M82.5,42.1v3.7h-0.6l-2-2.5v2.5h-0.7v-3.7h0.6l2,2.5v-2.5H82.5z"/>
			<path class="st0" d="M83.7,42.1h1.6c1.2,0,2,0.7,2,1.8s-0.8,1.8-2,1.8h-1.6V42.1z M85.3,45.2c0.8,0,1.4-0.5,1.4-1.3
				s-0.5-1.3-1.4-1.3h-0.9v2.5H85.3z"/>
			<path class="st0" d="M91.1,45.2v0.6h-2.8v-3.7h2.7v0.6h-2v1h1.8v0.6h-1.8v1H91.1z"/>
			<path class="st0" d="M95.5,42.1v3.7h-0.6l-2-2.5v2.5h-0.7v-3.7h0.6l2,2.5v-2.5H95.5z"/>
			<path class="st0" d="M96.4,43.9c0-1.1,0.8-1.9,2-1.9c0.6,0,1.1,0.2,1.5,0.6L99.4,43c-0.3-0.3-0.6-0.4-1-0.4
				c-0.8,0-1.3,0.5-1.3,1.3s0.6,1.3,1.3,1.3c0.4,0,0.7-0.1,1-0.4l0.4,0.4c-0.3,0.4-0.9,0.6-1.5,0.6C97.3,45.8,96.4,45,96.4,43.9z"/>
			<path class="st0" d="M100.8,42.1h0.7v3.7h-0.7V42.1z"/>
			<path class="st0" d="M105.2,44.9h-1.8l-0.4,0.9h-0.7l1.7-3.7h0.7l1.7,3.7h-0.7L105.2,44.9z M104.9,44.4l-0.7-1.6l-0.7,1.6H104.9z
				"/>
		</g>
		<g>
			<path class="st0" d="M59.6,49.2c0-1.3,1-2.3,2.4-2.3c0.8,0,1.5,0.3,1.9,0.9L63,48.6c-0.3-0.3-0.6-0.5-0.9-0.5c-0.6,0-1,0.4-1,1.1
				c0,0.7,0.4,1.1,1,1.1c0.4,0,0.7-0.2,0.9-0.5l0.9,0.8c-0.4,0.6-1.1,0.9-1.9,0.9C60.6,51.4,59.6,50.5,59.6,49.2z"/>
			<path class="st0" d="M64.4,49.2c0-1.3,1-2.3,2.4-2.3c1.4,0,2.4,1,2.4,2.3s-1,2.3-2.4,2.3C65.5,51.4,64.4,50.5,64.4,49.2z
				 M67.8,49.2c0-0.7-0.4-1.1-1-1.1c-0.5,0-1,0.4-1,1.1s0.4,1.1,1,1.1C67.4,50.3,67.8,49.8,67.8,49.2z"/>
			<path class="st0" d="M69.9,51l0.5-1.1c0.4,0.2,1,0.4,1.4,0.4c0.4,0,0.6-0.1,0.6-0.2c0-0.5-2.4-0.1-2.4-1.7c0-0.8,0.7-1.5,2-1.5
				c0.6,0,1.2,0.1,1.6,0.4l-0.4,1.1C72.7,48.1,72.3,48,72,48c-0.4,0-0.6,0.1-0.6,0.3c0,0.5,2.4,0.1,2.4,1.7c0,0.8-0.7,1.5-2,1.5
				C71,51.4,70.3,51.3,69.9,51z"/>
			<path class="st0" d="M75.4,48.1h-1.3V47h4v1.1h-1.3v3.2h-1.5V48.1z"/>
			<path class="st0" d="M81.6,50.6h-1.6l-0.3,0.8h-1.5L80,47h1.4l1.9,4.3h-1.5L81.6,50.6z M81.2,49.5l-0.4-1.1l-0.4,1.1H81.2z"/>
			<path class="st0" d="M87.9,50.2h-0.4v1.1h-1.5V47h2.1c1.2,0,2,0.6,2,1.6c0,0.6-0.3,1.1-0.8,1.4l0.9,1.3h-1.6L87.9,50.2z
				 M88.1,48.1h-0.5v1h0.5c0.4,0,0.6-0.2,0.6-0.5S88.5,48.1,88.1,48.1z"/>
			<path class="st0" d="M91,47h1.5v4.3H91V47z"/>
			<path class="st0" d="M93.3,49.2c0-1.3,1-2.3,2.4-2.3c0.8,0,1.5,0.3,1.9,0.9l-0.9,0.8c-0.3-0.3-0.6-0.5-0.9-0.5
				c-0.6,0-1,0.4-1,1.1c0,0.7,0.4,1.1,1,1.1c0.4,0,0.7-0.2,0.9-0.5l0.9,0.8c-0.4,0.6-1.1,0.9-1.9,0.9C94.3,51.4,93.3,50.5,93.3,49.2
				z"/>
			<path class="st0" d="M101.3,50.6h-1.6l-0.3,0.8h-1.5l1.9-4.3h1.4l1.9,4.3h-1.5L101.3,50.6z M100.9,49.5l-0.4-1.1l-0.4,1.1H100.9z
				"/>
		</g>
		<g>
			<path class="st0" d="M69.8,53.4v3.5h-0.6V54h-0.7v-0.5H69.8z"/>
			<path class="st0" d="M73.8,55.9c0,0.6-0.6,1.1-1.4,1.1S71,56.6,71,55.9c0-0.4,0.2-0.7,0.6-0.8c-0.3-0.2-0.4-0.4-0.4-0.7
				c0-0.6,0.5-1,1.3-1c0.8,0,1.3,0.4,1.3,1c0,0.3-0.2,0.6-0.4,0.7C73.6,55.2,73.8,55.5,73.8,55.9z M73.2,55.9c0-0.3-0.3-0.6-0.8-0.6
				c-0.5,0-0.8,0.2-0.8,0.6c0,0.4,0.3,0.6,0.8,0.6C72.9,56.5,73.2,56.3,73.2,55.9z M71.7,54.4c0,0.3,0.2,0.5,0.7,0.5
				c0.4,0,0.7-0.2,0.7-0.5c0-0.3-0.3-0.5-0.7-0.5S71.7,54.1,71.7,54.4z"/>
			<path class="st0" d="M77.3,56.4v0.5h-2.6v-0.4l1.4-1.3c0.3-0.3,0.4-0.5,0.4-0.7c0-0.3-0.2-0.5-0.6-0.5c-0.3,0-0.6,0.1-0.8,0.4
				L74.6,54c0.3-0.4,0.8-0.6,1.3-0.6c0.8,0,1.2,0.4,1.2,1c0,0.3-0.1,0.6-0.6,1.1l-0.9,0.9H77.3z"/>
			<path class="st0" d="M79.3,53.4v3.5h-0.6V54H78v-0.5H79.3z"/>
			<path class="st0" d="M80.6,55.4c0-0.3,0.2-0.5,0.4-0.5c0.2,0,0.5,0.2,0.5,0.5c0,0.3-0.2,0.5-0.5,0.5
				C80.8,55.9,80.6,55.7,80.6,55.4z"/>
			<path class="st0" d="M85,56.4v0.5h-2.6v-0.4l1.4-1.3c0.3-0.3,0.4-0.5,0.4-0.7c0-0.3-0.2-0.5-0.6-0.5c-0.3,0-0.6,0.1-0.8,0.4
				L82.3,54c0.3-0.4,0.8-0.6,1.3-0.6c0.8,0,1.2,0.4,1.2,1c0,0.3-0.1,0.6-0.6,1.1l-0.9,0.9H85z"/>
			<path class="st0" d="M85.8,55.2c0-1.1,0.6-1.8,1.5-1.8c0.8,0,1.5,0.6,1.5,1.8c0,1.1-0.6,1.8-1.5,1.8C86.5,57,85.8,56.3,85.8,55.2
				z M88.1,55.2c0-0.8-0.3-1.2-0.8-1.2c-0.5,0-0.8,0.4-0.8,1.2c0,0.8,0.3,1.2,0.8,1.2C87.8,56.4,88.1,56,88.1,55.2z"/>
			<path class="st0" d="M92.2,56.4v0.5h-2.6v-0.4l1.4-1.3c0.3-0.3,0.4-0.5,0.4-0.7c0-0.3-0.2-0.5-0.6-0.5c-0.3,0-0.6,0.1-0.8,0.4
				L89.5,54c0.3-0.4,0.8-0.6,1.3-0.6c0.8,0,1.2,0.4,1.2,1c0,0.3-0.1,0.6-0.6,1.1l-0.9,0.9H92.2z"/>
			<path class="st0" d="M94.3,53.4v3.5h-0.6V54h-0.7v-0.5H94.3z"/>
		</g>
	</g>
	<linearGradient id="SVGID_1_" gradientUnits="userSpaceOnUse" x1="25.3347" y1="25.3438" x2="36.4199" y2="14.2586">
		<stop  offset="0" style="stop-color:#122127"/>
		<stop  offset="0.2458" style="stop-color:#122136"/>
		<stop  offset="0.2752" style="stop-color:#12223A"/>
		<stop  offset="0.7618" style="stop-color:#19387A"/>
		<stop  offset="0.9916" style="stop-color:#1C4193"/>
	</linearGradient>
	<path class="st1" d="M26.3,4.7c0,0,9.9,16.5,9.2,30C35.6,34.7,38.4,22.9,26.3,4.7z"/>
	<g>
		<g>
			<linearGradient id="SVGID_2_" gradientUnits="userSpaceOnUse" x1="14.3487" y1="72.1633" x2="33.3553" y2="39.2429">
				<stop  offset="4.469274e-02" style="stop-color:#83C4E4"/>
				<stop  offset="0.126" style="stop-color:#7DBFE1"/>
				<stop  offset="0.2311" style="stop-color:#6DB2D7"/>
				<stop  offset="0.3486" style="stop-color:#539DC7"/>
				<stop  offset="0.4134" style="stop-color:#418EBC"/>
				<stop  offset="0.501" style="stop-color:#2E83B6"/>
				<stop  offset="0.6369" style="stop-color:#096EAB"/>
				<stop  offset="0.8547" style="stop-color:#094988"/>
			</linearGradient>
			<path class="st2" d="M34.3,40l-0.1-0.2L34,39.6l0,0c-0.8-0.4-1.8-0.5-2.7-0.5c-0.9,0-1.8,0.3-2.6,0.6c-1.7,0.7-3,1.9-4.2,3.1
				c-1.2,1.3-2.2,2.6-3.2,4c-1,1.4-1.8,2.9-2.6,4.4c-1.6,3-3,6.1-4.3,9.3c-1.2,3-2.3,6-3.2,9.1C11,70,11,70.2,11,70.2c0,0,0,0,0,0
				c0,0,0,0,0,0v0c0,0,0,0,0,0c0,0,0,0,0,0c3.4-0.7,6.8-1.8,9.9-3.5c0.2-0.1,0.4-0.2,0.6-0.3l0.6-0.3c0.4-0.2,0.8-0.5,1.1-0.7
				c0.7-0.5,1.4-1,2.1-1.6c0.3-0.3,0.7-0.6,1-0.9c0.3-0.3,0.6-0.6,1-0.9l0.9-1c0.3-0.3,0.6-0.7,0.8-1c2.2-2.8,3.8-6.1,4.7-9.5
				c0.5-1.7,0.8-3.5,1-5.2c0.1-0.9,0.1-1.8,0.2-2.7C34.7,41.7,34.8,40.8,34.3,40z"/>
			<linearGradient id="SVGID_3_" gradientUnits="userSpaceOnUse" x1="10.982" y1="54.5847" x2="31.2981" y2="54.5847">
				<stop  offset="0" style="stop-color:#096EAB"/>
				<stop  offset="0.5447" style="stop-color:#83C4E4"/>
				<stop  offset="0.6836" style="stop-color:#73B7DA"/>
				<stop  offset="0.9547" style="stop-color:#4994C1"/>
				<stop  offset="1" style="stop-color:#418EBC"/>
			</linearGradient>
			<path class="st3" d="M11,70.2c0,0,20-13.9,20.3-31.2C31.3,39,21.7,36.7,11,70.2z"/>
		</g>
		<g>
			<polygon class="st4" points="35.4,73 35.4,73 35.4,73 35.4,73 			"/>
			<linearGradient id="SVGID_4_" gradientUnits="userSpaceOnUse" x1="35.3525" y1="72.9914" x2="35.353" y2="72.9885">
				<stop  offset="0" style="stop-color:#418EBC"/>
				<stop  offset="1" style="stop-color:#83C4E4"/>
			</linearGradient>
			<polygon class="st5" points="35.4,73 35.4,73 35.4,73 35.4,73 35.4,73 35.4,73 			"/>
			<linearGradient id="SVGID_5_" gradientUnits="userSpaceOnUse" x1="29.8817" y1="73.2455" x2="35.701" y2="40.2425">
				<stop  offset="0" style="stop-color:#9DD1EC"/>
				<stop  offset="0.324" style="stop-color:#83C4E4"/>
				<stop  offset="0.3455" style="stop-color:#7BBEE0"/>
				<stop  offset="0.52" style="stop-color:#3E93C4"/>
				<stop  offset="0.648" style="stop-color:#1878B2"/>
				<stop  offset="0.7151" style="stop-color:#096EAB"/>
				<stop  offset="1" style="stop-color:#095895"/>
			</linearGradient>
			<path class="st6" d="M40.2,55.5c-0.4-3.1-1.5-6.1-3-8.8c-0.8-1.3-1.7-2.6-2.7-3.8c-0.5-0.6-1-1.2-1.6-1.7
				c-0.6-0.6-1.1-1.1-1.8-1.6l-0.2-0.2l-0.3,0.1c-0.7,0.3-1.4,0.8-2,1.4c-0.6,0.6-1,1.3-1.3,2c0,0.1-0.1,0.2-0.1,0.4
				c-0.5,1.4-0.6,2.8-0.6,4.2c0,1.5,0.2,3.1,0.5,4.5c0.3,1.5,0.7,3,1.1,4.4c0.9,2.9,2,5.7,3.2,8.4c0.6,1.4,1.3,2.7,1.9,4.1
				c0.7,1.3,1.4,2.7,2.1,4l0,0c1.7-2.5,3.1-5.3,4-8.3c0.1-0.2,0.1-0.4,0.2-0.6l0.1-0.6c0.1-0.4,0.2-0.8,0.3-1.1
				c0.1-0.8,0.3-1.5,0.3-2.3C40.4,58.6,40.4,57.1,40.2,55.5z"/>
			<linearGradient id="SVGID_6_" gradientUnits="userSpaceOnUse" x1="25.4295" y1="68.2505" x2="37.3881" y2="47.5376">
				<stop  offset="0" style="stop-color:#83C4E4"/>
				<stop  offset="0.2635" style="stop-color:#7FC1E2"/>
				<stop  offset="0.5002" style="stop-color:#75B8DB"/>
				<stop  offset="0.7267" style="stop-color:#62A9D0"/>
				<stop  offset="0.9456" style="stop-color:#4994C1"/>
				<stop  offset="1" style="stop-color:#418EBC"/>
			</linearGradient>
			<path class="st7" d="M28.2,42.2l-1,1.1c-0.5,1.4-0.6,2.8-0.6,4.2c0,1.5,0.2,3.1,0.5,4.5c0.3,1.5,0.7,3,1.1,4.4
				c0.9,2.9,2,5.7,3.2,8.4c0.6,1.4,1.3,2.7,1.9,4.1c0.7,1.3,1.4,2.7,2.1,4l0,0C35.4,73,39.4,56.7,28.2,42.2z"/>
		</g>
		<g>
			<linearGradient id="SVGID_7_" gradientUnits="userSpaceOnUse" x1="40.771" y1="61.0791" x2="39.0749" y2="41.6933">
				<stop  offset="0" style="stop-color:#9DD1EC"/>
				<stop  offset="0.2793" style="stop-color:#83C4E4"/>
				<stop  offset="0.3315" style="stop-color:#75B9DC"/>
				<stop  offset="0.495" style="stop-color:#509AC5"/>
				<stop  offset="0.581" style="stop-color:#418EBC"/>
				<stop  offset="0.7311" style="stop-color:#2373AE"/>
				<stop  offset="0.8492" style="stop-color:#095BA1"/>
			</linearGradient>
			<path class="st8" d="M50.6,59L50.6,59C50.6,59,50.6,59,50.6,59c-0.4-2.3-1.2-4.6-2.3-6.7c-0.1-0.3-0.3-0.5-0.4-0.8
				c-0.2-0.3-0.3-0.5-0.5-0.8c-0.3-0.5-0.7-1-1.1-1.4c-0.8-0.9-1.6-1.8-2.6-2.5c-1.9-1.5-4.1-2.5-6.4-3.1c-1.2-0.3-2.3-0.5-3.5-0.6
				C33.2,43,32.6,43,32,43c-0.6,0-1.2,0-1.8,0.1l-0.3,0l-0.1,0.2l0,0.1c-0.2,0.6-0.3,1.2-0.3,1.9c0,0.6,0.2,1.3,0.4,1.8
				c0.5,1.2,1.3,2.1,2.1,2.9c0.9,0.8,1.8,1.5,2.8,2.2c1,0.7,2,1.2,3,1.8c2,1.1,4.2,2,6.3,2.8c1.1,0.4,2.2,0.8,3.3,1.1
				C48.3,58.4,49.4,58.7,50.6,59L50.6,59L50.6,59C50.6,59,50.6,59,50.6,59L50.6,59z"/>
			<linearGradient id="SVGID_8_" gradientUnits="userSpaceOnUse" x1="39.0924" y1="56.9682" x2="41.2154" y2="44.9277">
				<stop  offset="0" style="stop-color:#9DD1EC"/>
				<stop  offset="0.4469" style="stop-color:#83C4E4"/>
				<stop  offset="0.5426" style="stop-color:#75B9DC"/>
				<stop  offset="0.8423" style="stop-color:#509AC5"/>
				<stop  offset="1" style="stop-color:#418EBC"/>
			</linearGradient>
			<path class="st9" d="M29.4,45.3c0,0.6,0.2,1.3,0.4,1.8c0.5,1.2,1.3,2.1,2.1,2.9c0.9,0.8,1.8,1.5,2.8,2.2c1,0.7,2,1.2,3,1.8
				c2,1.1,4.2,2,6.3,2.8c1.1,0.4,2.2,0.8,3.3,1.1c1.1,0.4,2.2,0.7,3.3,1l0,0h0c0,0-7.3-9.4-20.8-15.7l0,0.1
				C29.5,44,29.4,44.7,29.4,45.3z"/>
		</g>
		<g>
			<polygon class="st4" points="54.3,40.1 54.3,40.1 54.3,40.1 			"/>
			<linearGradient id="SVGID_9_" gradientUnits="userSpaceOnUse" x1="54.2615" y1="40.1248" x2="54.2614" y2="40.1249">
				<stop  offset="0" style="stop-color:#83C4E4"/>
				<stop  offset="0.6927" style="stop-color:#418EBC"/>
				<stop  offset="0.8923" style="stop-color:#1977B0"/>
				<stop  offset="1" style="stop-color:#096EAB"/>
			</linearGradient>
			<polygon class="st10" points="54.3,40.1 54.3,40.1 54.3,40.1 			"/>
			<linearGradient id="SVGID_10_" gradientUnits="userSpaceOnUse" x1="54.2615" y1="40.1248" x2="54.2615" y2="40.1248">
				<stop  offset="0" style="stop-color:#83C4E4"/>
				<stop  offset="0.6927" style="stop-color:#418EBC"/>
				<stop  offset="0.8923" style="stop-color:#1977B0"/>
				<stop  offset="1" style="stop-color:#096EAB"/>
			</linearGradient>
			<polygon class="st11" points="54.3,40.1 54.3,40.1 54.3,40.1 			"/>
			<linearGradient id="SVGID_11_" gradientUnits="userSpaceOnUse" x1="40.0851" y1="47.8819" x2="47.417" y2="35.1827">
				<stop  offset="2.234637e-02" style="stop-color:#418EBC"/>
				<stop  offset="0.5543" style="stop-color:#81C2E3"/>
				<stop  offset="0.5698" style="stop-color:#83C4E4"/>
				<stop  offset="1" style="stop-color:#9DD1EC"/>
			</linearGradient>
			<path class="st12" d="M54.3,40.1c-1.5-1.1-3.2-2-5.1-2.6c-0.2-0.1-0.5-0.1-0.7-0.2c-0.2-0.1-0.5-0.1-0.7-0.2
				c-0.5-0.1-0.9-0.2-1.4-0.2c-1-0.1-1.9-0.1-2.9,0c-1.9,0.2-3.8,0.9-5.5,1.9c-0.8,0.5-1.6,1.1-2.4,1.7c-0.4,0.3-0.7,0.6-1.1,1
				c-0.3,0.3-0.7,0.7-1,1.1l-0.2,0.3l0.2,0.3c0,0,0,0,0,0c0.1,0.2,0.2,0.5,0.4,0.7c0.2,0.2,0.3,0.4,0.5,0.6c0.2,0.2,0.4,0.4,0.6,0.5
				l0.3,0.2c0.1,0.1,0.2,0.1,0.4,0.2c1,0.4,2,0.5,2.9,0.5c1,0,1.9-0.1,2.8-0.3c0.9-0.2,1.8-0.4,2.7-0.7c1.8-0.6,3.5-1.3,5.2-2
				C51,41.9,52.7,41.1,54.3,40.1C54.3,40.1,54.3,40.1,54.3,40.1C54.3,40.1,54.3,40.1,54.3,40.1C54.3,40.1,54.3,40.1,54.3,40.1z"/>
			<linearGradient id="SVGID_12_" gradientUnits="userSpaceOnUse" x1="41.9112" y1="38.312" x2="46.1994" y2="45.7393">
				<stop  offset="5.586592e-03" style="stop-color:#83C4E4"/>
				<stop  offset="0.9137" style="stop-color:#9AD0EB"/>
				<stop  offset="1" style="stop-color:#9DD1EC"/>
			</linearGradient>
			<path class="st13" d="M33.4,43.2c0.1,0.2,0.2,0.5,0.4,0.7c0.2,0.2,0.3,0.4,0.5,0.6c0.2,0.2,0.4,0.4,0.6,0.5l0.3,0.2
				c0.1,0.1,0.2,0.1,0.4,0.2c1,0.4,2,0.5,2.9,0.5c1,0,1.9-0.1,2.8-0.3c0.9-0.2,1.8-0.4,2.7-0.7c1.8-0.6,3.5-1.3,5.2-2
				c1.7-0.8,3.3-1.6,4.9-2.6v0C54.3,40.1,44.7,38.1,33.4,43.2z"/>
		</g>
		<g>
			<g>
				<linearGradient id="SVGID_13_" gradientUnits="userSpaceOnUse" x1="13.2534" y1="34.3638" x2="20.8639" y2="26.7533">
					<stop  offset="0" style="stop-color:#E3A245"/>
					<stop  offset="1" style="stop-color:#EFDC7F"/>
				</linearGradient>
				<path class="st14" d="M25.7,40.6c0.3-0.3,0.7-0.6,1.1-0.8c0.4-0.3,0.9-0.6,1.4-0.8c-0.4-0.4-0.9-0.9-1.3-1.4
					c-0.5-0.6-0.9-1.2-1.4-1.8l-0.6-0.9l-0.6-1l-0.5-1l-0.5-1c-0.6-1.3-1.1-2.6-1.4-4C14.8,24,6.7,21.5,6.7,21.5
					C9.8,35.5,19.2,39.5,25.7,40.6z"/>
				<linearGradient id="SVGID_14_" gradientUnits="userSpaceOnUse" x1="6.6629" y1="31.215" x2="32.5536" y2="31.215">
					<stop  offset="0.2011" style="stop-color:#D21034"/>
					<stop  offset="0.4244" style="stop-color:#C21435"/>
					<stop  offset="0.5615" style="stop-color:#B51735"/>
					<stop  offset="0.7077" style="stop-color:#941434"/>
					<stop  offset="0.8534" style="stop-color:#781133"/>
					<stop  offset="0.9385" style="stop-color:#6E1033"/>
				</linearGradient>
				<path class="st15" d="M6.7,21.5c0,0,29.5,9,25.5,19.3C32.2,40.8,11.7,43.6,6.7,21.5z"/>
				<linearGradient id="SVGID_15_" gradientUnits="userSpaceOnUse" x1="6.0528" y1="31.0403" x2="25.8094" y2="31.0403">
					<stop  offset="0" style="stop-color:#E41C34"/>
					<stop  offset="0.1054" style="stop-color:#DA1B34"/>
					<stop  offset="0.4382" style="stop-color:#BF1835"/>
					<stop  offset="0.6341" style="stop-color:#B51735"/>
					<stop  offset="0.7521" style="stop-color:#941434"/>
					<stop  offset="0.8698" style="stop-color:#781133"/>
					<stop  offset="0.9385" style="stop-color:#6E1033"/>
				</linearGradient>
				<path class="st16" d="M25.7,40.6c-2.4-0.1-4.8-0.7-7-1.8c-1.1-0.5-2.2-1.1-3.2-1.8c-1-0.7-1.9-1.5-2.8-2.4
					c-0.8-0.9-1.6-1.9-2.3-2.9c-0.7-1-1.3-2.1-1.8-3.2c-0.5-1.1-0.9-2.3-1.3-3.4c-0.3-1.2-0.6-2.4-0.6-3.6c0.3,1.2,0.7,2.3,1.2,3.4
					c0.5,1.1,1,2.2,1.5,3.2c0.6,1,1.2,2,1.9,3c0.7,0.9,1.4,1.8,2.2,2.7c0.8,0.8,1.7,1.6,2.6,2.3c0.9,0.7,1.9,1.3,2.9,1.9
					C21.2,39.1,23.4,39.9,25.7,40.6z"/>
				<linearGradient id="SVGID_16_" gradientUnits="userSpaceOnUse" x1="6.6628" y1="31.1586" x2="32.3627" y2="31.1586">
					<stop  offset="0" style="stop-color:#E41C34"/>
					<stop  offset="4.690488e-02" style="stop-color:#DA1B34"/>
					<stop  offset="0.195" style="stop-color:#BF1835"/>
					<stop  offset="0.2821" style="stop-color:#B51735"/>
					<stop  offset="0.5367" style="stop-color:#941434"/>
					<stop  offset="0.7904" style="stop-color:#781133"/>
					<stop  offset="0.9385" style="stop-color:#6E1033"/>
				</linearGradient>
				<path class="st17" d="M6.7,21.5c2.8,0.6,5.5,1.5,8.2,2.5c2.7,1,5.3,2.2,7.8,3.6c2.5,1.4,4.9,3.1,6.8,5.3c1,1.1,1.8,2.3,2.3,3.7
					c0.5,1.4,0.7,2.9,0.3,4.3c0.1-1.4-0.1-2.8-0.7-4.1c-0.6-1.3-1.5-2.4-2.5-3.4c-1-1-2.1-1.9-3.2-2.7c-1.1-0.8-2.3-1.6-3.6-2.3
					c-1.2-0.7-2.5-1.4-3.7-2c-1.3-0.6-2.6-1.2-3.9-1.8C12,23.5,9.3,22.5,6.7,21.5z"/>
			</g>
			<linearGradient id="SVGID_17_" gradientUnits="userSpaceOnUse" x1="21.9282" y1="27.8176" x2="21.9282" y2="27.8176">
				<stop  offset="0" style="stop-color:#EFDC7F"/>
				<stop  offset="0.2103" style="stop-color:#EFD97C"/>
				<stop  offset="0.3676" style="stop-color:#EED072"/>
				<stop  offset="0.4832" style="stop-color:#EDC366"/>
				<stop  offset="0.4925" style="stop-color:#ECC164"/>
				<stop  offset="0.6844" style="stop-color:#D69645"/>
				<stop  offset="0.7823" style="stop-color:#B48037"/>
				<stop  offset="0.8808" style="stop-color:#996F2C"/>
				<stop  offset="0.9385" style="stop-color:#8F6828"/>
			</linearGradient>
			<path class="st18" d="M21.9,27.8"/>
		</g>
		<g>
			<path class="st4" d="M26.4,4.4c0,0,1.1,2.1,2.5,5.2C27.6,6.5,26.4,4.4,26.4,4.4z"/>
			<linearGradient id="SVGID_18_" gradientUnits="userSpaceOnUse" x1="10.9054" y1="73.3403" x2="45.4593" y2="13.4913">
				<stop  offset="0" style="stop-color:#223A77"/>
				<stop  offset="0.2038" style="stop-color:#1F3D81"/>
				<stop  offset="0.4525" style="stop-color:#1A4293"/>
				<stop  offset="0.9302" style="stop-color:#223A77"/>
			</linearGradient>
			<path class="st19" d="M48.9,27.6c-3.3-0.5-4.7-3.1-7.8-2c-3,1.1-3.4,4.8-4.9,5.8c0,0-0.1,0-0.1,0.1c0,0,0,0-0.1,0c0,0,0,0,0,0
				c0-3-0.4-7-1.9-11.5c-3.2-9.6-7.7-15.5-7.7-15.5s0,0,0,0c0,0,0,0,0,0c0,0,0,0,0,0c0,0,0,0,0,0c0,0,0,0,0,0l0,0c0,0,0,0,0,0
				c-1,1.2-1.8,2.5-2.6,3.9c-0.7,1.4-1.3,2.9-1.8,4.4c-0.5,1.5-0.8,3.1-1.1,4.6c-0.2,1.6-0.3,3.2-0.2,4.8c0.1,1.6,0.4,3.2,0.7,4.7
				l0.3,1.1l0.4,1.1c0.1,0.4,0.3,0.7,0.4,1.1c0.2,0.4,0.3,0.7,0.5,1.1c1.1,2.3,2.5,4.4,4.2,6.2c-1,0.9-1.9,1.9-2.6,3c0,0,0,0,0,0
				c-0.7,1-1.4,2-2.1,3.2l0,0C15.4,55.2,11,70.2,11,70.2c2.2-0.4,5-1.3,5-1.3c0.8-6.9,2.8-13.1,5.2-17.7c4-1.1,9.1-2.6,12.1-4.2
				c5.5-2.8,6.2-6.6,6.8-8.1c0,0,0,0,0-0.1c0.6-1.5,5.5-7.4,7.1-9.2c1.7-1.8,13.1,0.5,13.1,0.5C60.2,28.7,52.2,28.1,48.9,27.6z"/>
			<g>
				<path class="st20" d="M16.2,67c0.8-5.5,2.2-11,4.7-16l0,0l0.1-0.1l0.1,0c2.1-0.6,4.1-1.2,6.2-1.8c2-0.6,4.1-1.3,6-2.3
					c1.9-1,3.7-2.2,4.9-4c0.6-0.9,1.1-1.8,1.5-2.8c0.2-0.5,0.3-1,0.6-1.5c0.3-0.5,0.6-0.9,0.9-1.3c-0.3,0.4-0.6,0.9-0.9,1.4
					c-0.2,0.5-0.4,1-0.6,1.5c-0.3,1-0.8,2-1.4,2.9c-1.2,1.8-3,3.2-4.9,4.2c-1.9,1-4,1.8-6,2.5c-2,0.7-4.1,1.3-6.2,1.8l0.2-0.2l0,0
					c-1.4,2.4-2.4,5-3.3,7.6C17.4,61.6,16.7,64.3,16.2,67z"/>
			</g>
			<linearGradient id="SVGID_19_" gradientUnits="userSpaceOnUse" x1="24.7114" y1="39.0279" x2="24.7114" y2="2.4204">
				<stop  offset="0.2793" style="stop-color:#122136"/>
				<stop  offset="0.3074" style="stop-color:#12223A"/>
				<stop  offset="0.7721" style="stop-color:#19387A"/>
				<stop  offset="0.9916" style="stop-color:#1C4193"/>
			</linearGradient>
			<path class="st21" d="M26.4,4.4c-0.8,1.4-1.5,2.8-2,4.2c-0.6,1.4-1.1,2.9-1.5,4.4c-0.4,1.5-0.7,3-0.8,4.5c-0.2,1.5-0.2,3-0.1,4.6
				c0.1,1.5,0.3,3,0.6,4.5c0.3,1.5,0.8,2.9,1.4,4.4c1.2,2.8,2.8,5.5,4.6,8c-2.2-2.2-4.1-4.8-5.5-7.6c-0.2-0.4-0.3-0.7-0.5-1.1
				c-0.2-0.4-0.3-0.7-0.4-1.1L21.8,28l-0.3-1.1c-0.4-1.5-0.7-3.1-0.7-4.7c-0.1-1.6,0-3.2,0.2-4.8c0.2-1.6,0.6-3.1,1.1-4.6
				c0.5-1.5,1.1-3,1.8-4.4C24.6,7,25.4,5.6,26.4,4.4z"/>
			<linearGradient id="SVGID_20_" gradientUnits="userSpaceOnUse" x1="34.8838" y1="38.7814" x2="22.5635" y2="4.9316">
				<stop  offset="0" style="stop-color:#232A54;stop-opacity:0"/>
				<stop  offset="0.4141" style="stop-color:#1F264F;stop-opacity:0.5977"/>
				<stop  offset="0.6927" style="stop-color:#192048"/>
			</linearGradient>
			<path class="st22" d="M26.4,4.4c0,0,13.2,22.7,2.5,34.9l6.4-2.3c0,0,1.9-7.5-1.3-17.1S26.4,4.4,26.4,4.4z"/>
		</g>
	</g>
</g>
</svg>
