<svg id="Layer_1" data-name="Layer 1" xmlns="http://www.w3.org/2000/svg" xmlns:xlink="http://www.w3.org/1999/xlink" viewBox="0 0 1781.1 207.5"><defs><style>.cls-1{fill:none;}.cls-2{clip-path:url(#clip-path);}.cls-3{fill:#50c5d8;}.cls-4{fill:#fbed32;}.cls-5{fill:#fff;}.cls-6{fill:#a1dbe9;}</style><clipPath id="clip-path" transform="translate(-73.9 -96.97)"><rect class="cls-1" x="73.9" y="96.98" width="1781.1" height="207.23"/></clipPath></defs><g class="cls-2"><path class="cls-3" d="M176.59,134.63h39.65a5.54,5.54,0,0,1,3.93,1.64,5.66,5.66,0,0,1,1.62,4V293.66a5.54,5.54,0,0,0,.38,2.13,5.46,5.46,0,0,0,2.94,3,5.22,5.22,0,0,0,2.1.42h26.44a5.54,5.54,0,0,0,3.84-1.68,5.67,5.67,0,0,0,1.58-3.92V140.24a5.43,5.43,0,0,1,5.41-5.61h39a5.42,5.42,0,0,0,3.92-1.55,5.39,5.39,0,0,0,1.21-1.8,5.31,5.31,0,0,0,.42-2.12v-22a5.59,5.59,0,0,0-1.67-3.88,5.49,5.49,0,0,0-3.88-1.6H176.59a5.38,5.38,0,0,0-3.83,1.61,5.46,5.46,0,0,0-1.59,3.87v22a5.5,5.5,0,0,0,1.59,3.87A5.41,5.41,0,0,0,176.59,134.63Z" transform="translate(-73.9 -96.97)"/><path class="cls-3" d="M331,299.26H432.34a5.22,5.22,0,0,0,2.1-.42,5.46,5.46,0,0,0,2.94-3,5.54,5.54,0,0,0,.38-2.13V270.29a5.5,5.5,0,0,0-1.59-3.87,5.39,5.39,0,0,0-3.83-1.6h-64.1a5.53,5.53,0,0,1-3.84-1.69,5.67,5.67,0,0,1-1.58-3.92V215.28a5.48,5.48,0,0,1,1.59-3.87,5.36,5.36,0,0,1,3.83-1.61h64.1a5.39,5.39,0,0,0,2.1-.42,5.46,5.46,0,0,0,2.94-3,5.54,5.54,0,0,0,.38-2.13V181.36a5.5,5.5,0,0,0-1.59-3.87,5.43,5.43,0,0,0-3.83-1.6h-64.1a5.49,5.49,0,0,1-3.84-1.69,5.65,5.65,0,0,1-1.58-3.92v-30a5.67,5.67,0,0,1,1.58-3.92,5.53,5.53,0,0,1,3.84-1.69h64.1a5.43,5.43,0,0,0,3.83-1.6,5.5,5.5,0,0,0,1.59-3.87v-22a5.46,5.46,0,0,0-1.59-3.87,5.4,5.4,0,0,0-3.83-1.61H331a5.4,5.4,0,0,0-3.83,1.61,5.49,5.49,0,0,0-1.58,3.87V294.06a5.46,5.46,0,0,0,1.67,3.7A5.35,5.35,0,0,0,331,299.26Z" transform="translate(-73.9 -96.97)"/><path class="cls-3" d="M563.05,132.63A80.62,80.62,0,0,1,592.39,138a91.57,91.57,0,0,1,26.44,16.29l5.15,4.27,2.12-40-1.59-1.07a112.24,112.24,0,0,0-30.13-15.22,102.3,102.3,0,0,0-32.78-5.08A110.29,110.29,0,0,0,521,104.59a98.87,98.87,0,0,0-33.3,22,96.84,96.84,0,0,0-22.21,33.51,107.74,107.74,0,0,0-7.66,40.06,109,109,0,0,0,7.66,40.86,98.15,98.15,0,0,0,22,33.42,96.79,96.79,0,0,0,33.4,21.72A117,117,0,0,0,594.77,299a88.31,88.31,0,0,0,27.89-13.35l1.45-.94V240.78l-5.55,4.68a97.08,97.08,0,0,1-27.62,17.62,84.49,84.49,0,0,1-30.66,5.74,58.73,58.73,0,0,1-24.72-4.57,59.43,59.43,0,0,1-20.62-14.52,68.53,68.53,0,0,1-18-48.6,68.57,68.57,0,0,1,18.5-49.67,63.56,63.56,0,0,1,47.58-18.83Z" transform="translate(-73.9 -96.97)"/><path class="cls-3" d="M796.46,228l-4.75-5.47c-3.44-3.87-6.88-7.34-10.18-10.82L665.22,98.58a5.4,5.4,0,0,0-8.4.91,5.54,5.54,0,0,0-.85,3.1V293.66a5.53,5.53,0,0,0,.37,2.13,5.41,5.41,0,0,0,5,3.48h23.92a5.4,5.4,0,0,0,2.1-.43,5.46,5.46,0,0,0,2.94-3,5.36,5.36,0,0,0,.38-2.13v-121l3,3.47c3,3.6,6.34,7.07,9.65,10.41l119,115.23a5.51,5.51,0,0,0,8.29-1,5.66,5.66,0,0,0,1-3V107.13a5.62,5.62,0,0,0-1.63-3.84,5.53,5.53,0,0,0-3.79-1.64H802.41a5.56,5.56,0,0,0-3.8,1.64,5.66,5.66,0,0,0-1.62,3.84Z" transform="translate(-73.9 -96.97)"/><path class="cls-3" d="M1060.8,161.07A104.41,104.41,0,0,0,1004.23,105a108.76,108.76,0,0,0-79.3,0,103.44,103.44,0,0,0-33.83,22.43,101.56,101.56,0,0,0-22.74,33.52A103.66,103.66,0,0,0,860.7,201a99.93,99.93,0,0,0,30.4,73.17,102.9,102.9,0,0,0,33.7,22.43,105.63,105.63,0,0,0,39.65,7.88,103,103,0,0,0,39.65-7.88,107.75,107.75,0,0,0,34-22.43,101,101,0,0,0,22.73-33.38,105.37,105.37,0,0,0,0-80.11ZM1030,201.13a69.48,69.48,0,0,1-5,26,70.73,70.73,0,0,1-14.27,22A64.24,64.24,0,0,1,939.07,264a64.78,64.78,0,0,1-21.28-14.83,66.69,66.69,0,0,1-14.27-22,68.39,68.39,0,0,1-4.89-26,70.67,70.67,0,0,1,4.89-26.71,66.69,66.69,0,0,1,14.27-22,64.33,64.33,0,0,1,21.28-14.69,62.81,62.81,0,0,1,25.25-5.07,64.62,64.62,0,0,1,25.24,5.07,66.28,66.28,0,0,1,21.15,14.69A69.66,69.66,0,0,1,1030,200.86Z" transform="translate(-73.9 -96.97)"/><path class="cls-4" d="M1212.13,192.58V298.33H1193V192.58h-32.25v-17h84.06v17Z" transform="translate(-73.9 -96.97)"/><path class="cls-4" d="M1378.27,237.31a61.88,61.88,0,0,1-18.9,45.4,66.19,66.19,0,0,1-21.15,14,62.84,62.84,0,0,1-24.71,4.94,66.85,66.85,0,0,1-25.12-4.94,64,64,0,0,1-21-14,60.15,60.15,0,0,1-14-20.7,61.4,61.4,0,0,1-4.89-24.7,64.36,64.36,0,0,1,10.78-35.92,63.4,63.4,0,0,1,28.87-23.63,67.06,67.06,0,0,1,49.83,0,62.1,62.1,0,0,1,21,13.35,66.8,66.8,0,0,1,14.54,21.63A64.63,64.63,0,0,1,1378.27,237.31Zm-20.49,0a47.17,47.17,0,0,0-3.43-17.76,46.63,46.63,0,0,0-23.79-24.83,43.68,43.68,0,0,0-17-3.47,43.3,43.3,0,0,0-31.46,13.48,44.11,44.11,0,0,0-9.65,14.82,47.31,47.31,0,0,0-3.3,17.76,45.53,45.53,0,0,0,3.3,17.49,45,45,0,0,0,23.92,24.7,43.8,43.8,0,0,0,17.19,3.48,42.52,42.52,0,0,0,16.78-3.48,44.12,44.12,0,0,0,14.41-9.88,45.43,45.43,0,0,0,12.82-32.31Z" transform="translate(-73.9 -96.97)"/><path class="cls-4" d="M1419.51,243.32v55H1401V175.62h29.87a95.85,95.85,0,0,1,19.43,1.47,31.8,31.8,0,0,1,11,4.94,29,29,0,0,1,9,11.48,39.26,39.26,0,0,1,3.17,15.89,40.51,40.51,0,0,1-3.17,16.16,26.59,26.59,0,0,1-9,11.48,29.24,29.24,0,0,1-11,4.81,95.85,95.85,0,0,1-19.43,1.47Zm1.18-16.29h5a44.57,44.57,0,0,0,21.94-3.61,13.29,13.29,0,0,0,4.65-5.87,13.56,13.56,0,0,0,.77-7.48,15.35,15.35,0,0,0-1.23-7.42,15.11,15.11,0,0,0-4.59-5.93,40.45,40.45,0,0,0-21.54-4.14h-5Z" transform="translate(-73.9 -96.97)"/><path class="cls-4" d="M1491.67,298.33V175.62h19.82V298.33Z" transform="translate(-73.9 -96.97)"/><path class="cls-4" d="M1620,298.33l-13.21-31.51h-48.11l-14.14,31.51h-20.75l58.42-127.51,58.68,127.51Zm-54.58-48.2h33.83l-12.42-27.91c-.79-1.87-1.45-3.87-2.25-6.14s-1.58-4.94-2.37-7.74c0,2.67-1.33,5.07-2.12,7.47s-1.45,4.41-2.25,6.41Z" transform="translate(-73.9 -96.97)"/><path class="cls-5" d="M151.61,161.34v18l-58.68,28,58.68,28.17V252.8L73.9,215V199.39Z" transform="translate(-73.9 -96.97)"/><path class="cls-5" d="M1752.3,135.17l14.41,6.4L1698.25,301.8,1684,295.26Z" transform="translate(-73.9 -96.97)"/><path class="cls-5" d="M1777.28,252.8V235.31L1836,207.4l-58.69-28.17V161.34l77.72,38v15.49Z" transform="translate(-73.9 -96.97)"/><path class="cls-6" d="M1114.72,149.85h-13.21v56.22h13.21Z" transform="translate(-73.9 -96.97)"/><path class="cls-6" d="M1140.89,149.85h-13.21v56.22h13.21Z" transform="translate(-73.9 -96.97)"/><path class="cls-6" d="M1648.29,149.85h-13.22v56.22h13.22Z" transform="translate(-73.9 -96.97)"/><path class="cls-6" d="M1674.32,149.85h-13.21v56.22h13.21Z" transform="translate(-73.9 -96.97)"/></g></svg>